<?xml version="1.0" encoding="UTF-8"?>
<svg version="1.1" xmlns="http://www.w3.org/2000/svg" width="1024" height="1024">
<path d="M0 0 C1.59956543 0.19335938 1.59956543 0.19335938 3.23144531 0.390625 C90.72826515 11.14414596 172.54523515 48.41952713 237.21484375 108.4375 C239.71105295 110.7341525 242.2490421 112.96670399 244.8125 115.1875 C248.24916759 118.22312021 251.24016474 121.44543704 254.1953125 124.9453125 C256.15922642 127.18128376 258.24153958 129.23809731 260.375 131.3125 C264.39015484 135.28709772 267.97841423 139.47136495 271.50390625 143.8828125 C273.30269024 146.12918123 275.11816255 148.34858513 276.96484375 150.5546875 C325.96950216 209.36329419 355.82174882 283.28840259 365 359 C365.11714355 359.91507324 365.23428711 360.83014648 365.35498047 361.77294922 C371.99803938 415.55902351 366.80565241 474.84921671 349 526 C349.70020264 525.96874023 350.40040527 525.93748047 351.12182617 525.90527344 C366.71108367 525.32749934 381.44670663 530.07264877 393.375 540.25 C405.71527415 552.20527381 412.79919944 566.58221026 413.9609375 583.6640625 C414.09316711 594.95647084 411.42218302 604.70725347 407 615 C406.67 615.99 406.34 616.98 406 618 C406.58007812 618.52207031 407.16015625 619.04414062 407.7578125 619.58203125 C419.94616743 631.06643829 425.72386137 645.92336573 426.25 662.5625 C426.11325926 673.5154331 423.6193207 682.92016614 418.109375 692.37890625 C415.97826212 697.41403562 418.56114541 701.67540835 420.5 706.5 C426.03036256 720.26159986 425.64823231 735.3146109 420 749 C419.63777344 749.88042969 419.27554688 750.76085937 418.90234375 751.66796875 C415.90366119 758.22441029 411.74282448 763.60637442 407 769 C406.41734375 769.66644531 405.8346875 770.33289063 405.234375 771.01953125 C357.06571667 822.43433829 257.04992162 842.44605025 190 850 C188.97777344 850.11714355 187.95554687 850.23428711 186.90234375 850.35498047 C137.07688068 855.81986584 79.75330131 853.68595407 38.45947266 821.82568359 C34.06275836 818.28531012 30.45570632 814.18615326 27 809.73828125 C21.91809139 806.79368577 16.64619782 808.22272391 11 809 C10.05833984 809.12560303 9.11667969 809.25120605 8.14648438 809.38061523 C6.24540547 809.63812318 4.34445253 809.89656219 2.44360352 810.15576172 C-30.90279455 814.40276876 -66.3457222 814.03310154 -99.66015625 809.65625 C-108.18537422 808.13255691 -108.18537422 808.13255691 -115.8359375 811.16015625 C-116.67382812 812.11792969 -117.51171875 813.07570313 -118.375 814.0625 C-119.31846035 815.08606702 -120.26775976 816.10428101 -121.22265625 817.1171875 C-121.68945801 817.61444336 -122.15625977 818.11169922 -122.63720703 818.62402344 C-148.48281454 844.71966011 -194.25310036 852.00523572 -229.08886719 852.24145508 C-230.60090727 852.2460124 -232.11295351 852.24881551 -233.625 852.25 C-234.40734009 852.25067474 -235.18968018 852.25134949 -235.99572754 852.25204468 C-314.88158138 852.14539907 -400.80402329 829.89917499 -490 774 C-490.70898438 773.38769531 -491.41796875 772.77539062 -492.1484375 772.14453125 C-502.37881947 762.66222069 -511.19392655 748.27530217 -512.125 734.09643555 C-512.56406514 722.09486443 -512.07182628 711.37901859 -505.671875 700.8515625 C-504.44839872 697.47988951 -505.66183907 694.74808982 -507.0859375 691.59765625 C-507.51132812 690.76105469 -507.93671875 689.92445313 -508.375 689.0625 C-515.22699035 674.28603385 -515.83363944 658.45791405 -511 643 C-507.16487794 633.01958559 -502.31178425 624.92648687 -494 618 C-494.42152344 616.90300781 -494.84304688 615.80601562 -495.27734375 614.67578125 C-495.83093462 613.22143235 -496.38430862 611.7670009 -496.9375 610.3125 C-497.21529297 609.59126953 -497.49308594 608.87003906 -497.77929688 608.12695312 C-498.04677734 607.42119141 -498.31425781 606.71542969 -498.58984375 605.98828125 C-498.95903931 605.02208862 -498.95903931 605.02208862 -499.33569336 604.03637695 C-503.54742334 591.12566775 -502.46856688 574.30856119 -497 562 C-496.59910156 561.07445312 -496.19820313 560.14890625 -495.78515625 559.1953125 C-488.82728756 544.95689135 -476.67337747 534.3978502 -461.90234375 528.84375 C-455.71709894 527.04561692 -449.34932444 526.03983973 -443 525 C-443.21615967 524.22736816 -443.43231934 523.45473633 -443.6550293 522.65869141 C-452.85929804 489.54288149 -460.06936982 455.87033486 -460.203125 421.34375 C-460.20882507 420.16196167 -460.21452515 418.98017334 -460.22039795 417.76257324 C-460.22979026 415.26831947 -460.23635878 412.7740536 -460.24023438 410.27978516 C-460.24983157 406.5651922 -460.28086653 402.85117982 -460.3125 399.13671875 C-460.3873009 382.24370234 -459.21432578 365.74466567 -457 349 C-456.84636993 347.82954132 -456.84636993 347.82954132 -456.68963623 346.63543701 C-456.15103563 342.63588401 -455.518573 338.66067762 -454.8125 334.6875 C-454.60455811 333.51058594 -454.39661621 332.33367187 -454.18237305 331.12109375 C-442.25001923 266.36619475 -413.96247109 205.44774526 -373 154 C-372.26523437 153.071875 -371.53046875 152.14375 -370.7734375 151.1875 C-365.92268476 145.15405489 -360.80407403 139.42655155 -355.5390625 133.7578125 C-353.55512764 131.60295403 -351.63843486 129.42456898 -349.75 127.1875 C-341.61349816 117.80983686 -332.53296549 108.94714136 -323 101 C-321.55947266 99.76056641 -321.55947266 99.76056641 -320.08984375 98.49609375 C-255.99290287 43.42099681 -177.53557181 10.70033525 -94 0 C-92.99501465 -0.13277344 -91.9900293 -0.26554687 -90.95458984 -0.40234375 C-61.45045778 -4.12499873 -29.47568882 -3.75981057 0 0 Z " fill="#FED11E" transform="translate(556,87)"/>
<path d="M0 0 C1.59956543 0.19335938 1.59956543 0.19335938 3.23144531 0.390625 C90.72826515 11.14414596 172.54523515 48.41952713 237.21484375 108.4375 C239.71105295 110.7341525 242.2490421 112.96670399 244.8125 115.1875 C248.24916759 118.22312021 251.24016474 121.44543704 254.1953125 124.9453125 C256.15922642 127.18128376 258.24153958 129.23809731 260.375 131.3125 C264.39015484 135.28709772 267.97841423 139.47136495 271.50390625 143.8828125 C273.30269024 146.12918123 275.11816255 148.34858513 276.96484375 150.5546875 C325.96950216 209.36329419 355.82174882 283.28840259 365 359 C365.11714355 359.91507324 365.23428711 360.83014648 365.35498047 361.77294922 C371.99803938 415.55902351 366.80565241 474.84921671 349 526 C349.70020264 525.96874023 350.40040527 525.93748047 351.12182617 525.90527344 C366.71108367 525.32749934 381.44670663 530.07264877 393.375 540.25 C405.71527415 552.20527381 412.79919944 566.58221026 413.9609375 583.6640625 C414.09316711 594.95647084 411.42218302 604.70725347 407 615 C406.67 615.99 406.34 616.98 406 618 C406.58007812 618.52207031 407.16015625 619.04414062 407.7578125 619.58203125 C419.94616743 631.06643829 425.72386137 645.92336573 426.25 662.5625 C426.11325926 673.5154331 423.6193207 682.92016614 418.109375 692.37890625 C415.97826212 697.41403562 418.56114541 701.67540835 420.5 706.5 C426.03036256 720.26159986 425.64823231 735.3146109 420 749 C419.63777344 749.88042969 419.27554688 750.76085937 418.90234375 751.66796875 C415.90366119 758.22441029 411.74282448 763.60637442 407 769 C406.41734375 769.66644531 405.8346875 770.33289063 405.234375 771.01953125 C357.06571667 822.43433829 257.04992162 842.44605025 190 850 C188.97777344 850.11714355 187.95554687 850.23428711 186.90234375 850.35498047 C137.07688068 855.81986584 79.75330131 853.68595407 38.45947266 821.82568359 C34.06275836 818.28531012 30.45570632 814.18615326 27 809.73828125 C21.91809139 806.79368577 16.64619782 808.22272391 11 809 C10.05833984 809.12560303 9.11667969 809.25120605 8.14648438 809.38061523 C6.24540547 809.63812318 4.34445253 809.89656219 2.44360352 810.15576172 C-30.90279455 814.40276876 -66.3457222 814.03310154 -99.66015625 809.65625 C-108.18537422 808.13255691 -108.18537422 808.13255691 -115.8359375 811.16015625 C-116.67382812 812.11792969 -117.51171875 813.07570313 -118.375 814.0625 C-119.31846035 815.08606702 -120.26775976 816.10428101 -121.22265625 817.1171875 C-121.68945801 817.61444336 -122.15625977 818.11169922 -122.63720703 818.62402344 C-148.48281454 844.71966011 -194.25310036 852.00523572 -229.08886719 852.24145508 C-230.60090727 852.2460124 -232.11295351 852.24881551 -233.625 852.25 C-234.40734009 852.25067474 -235.18968018 852.25134949 -235.99572754 852.25204468 C-314.88158138 852.14539907 -400.80402329 829.89917499 -490 774 C-490.70898438 773.38769531 -491.41796875 772.77539062 -492.1484375 772.14453125 C-502.37881947 762.66222069 -511.19392655 748.27530217 -512.125 734.09643555 C-512.56406514 722.09486443 -512.07182628 711.37901859 -505.671875 700.8515625 C-504.44839872 697.47988951 -505.66183907 694.74808982 -507.0859375 691.59765625 C-507.51132812 690.76105469 -507.93671875 689.92445313 -508.375 689.0625 C-515.22699035 674.28603385 -515.83363944 658.45791405 -511 643 C-507.16487794 633.01958559 -502.31178425 624.92648687 -494 618 C-494.42152344 616.90300781 -494.84304688 615.80601562 -495.27734375 614.67578125 C-495.83093462 613.22143235 -496.38430862 611.7670009 -496.9375 610.3125 C-497.21529297 609.59126953 -497.49308594 608.87003906 -497.77929688 608.12695312 C-498.04677734 607.42119141 -498.31425781 606.71542969 -498.58984375 605.98828125 C-498.95903931 605.02208862 -498.95903931 605.02208862 -499.33569336 604.03637695 C-503.54742334 591.12566775 -502.46856688 574.30856119 -497 562 C-496.59910156 561.07445312 -496.19820313 560.14890625 -495.78515625 559.1953125 C-488.82728756 544.95689135 -476.67337747 534.3978502 -461.90234375 528.84375 C-455.71709894 527.04561692 -449.34932444 526.03983973 -443 525 C-443.21615967 524.22736816 -443.43231934 523.45473633 -443.6550293 522.65869141 C-452.85929804 489.54288149 -460.06936982 455.87033486 -460.203125 421.34375 C-460.20882507 420.16196167 -460.21452515 418.98017334 -460.22039795 417.76257324 C-460.22979026 415.26831947 -460.23635878 412.7740536 -460.24023438 410.27978516 C-460.24983157 406.5651922 -460.28086653 402.85117982 -460.3125 399.13671875 C-460.3873009 382.24370234 -459.21432578 365.74466567 -457 349 C-456.84636993 347.82954132 -456.84636993 347.82954132 -456.68963623 346.63543701 C-456.15103563 342.63588401 -455.518573 338.66067762 -454.8125 334.6875 C-454.60455811 333.51058594 -454.39661621 332.33367187 -454.18237305 331.12109375 C-442.25001923 266.36619475 -413.96247109 205.44774526 -373 154 C-372.26523437 153.071875 -371.53046875 152.14375 -370.7734375 151.1875 C-365.92268476 145.15405489 -360.80407403 139.42655155 -355.5390625 133.7578125 C-353.55512764 131.60295403 -351.63843486 129.42456898 -349.75 127.1875 C-341.61349816 117.80983686 -332.53296549 108.94714136 -323 101 C-321.55947266 99.76056641 -321.55947266 99.76056641 -320.08984375 98.49609375 C-255.99290287 43.42099681 -177.53557181 10.70033525 -94 0 C-92.99501465 -0.13277344 -91.9900293 -0.26554687 -90.95458984 -0.40234375 C-61.45045778 -4.12499873 -29.47568882 -3.75981057 0 0 Z M-101 44 C-102.45931946 44.21737068 -102.45931946 44.21737068 -103.94812012 44.43913269 C-138.53878874 49.66911651 -171.18239511 59.4999202 -203 74 C-203.88929199 74.39944824 -204.77858398 74.79889648 -205.69482422 75.21044922 C-224.04733907 83.48043053 -241.50860803 93.44670845 -258 105 C-259.07765625 105.7425 -260.1553125 106.485 -261.265625 107.25 C-273.32067827 115.63805206 -284.79366447 124.85087733 -295.59375 134.8046875 C-297.62046978 136.65374028 -299.67713482 138.45024353 -301.75390625 140.2421875 C-306.14965403 144.0809153 -310.31409863 148.12190975 -314.4375 152.25 C-315.55825928 153.37196777 -315.55825928 153.37196777 -316.70166016 154.51660156 C-321.40318826 159.27040303 -325.7920237 164.08841917 -329.9140625 169.35546875 C-331.83388576 171.78940199 -333.83266105 174.1332431 -335.86914062 176.46972656 C-381.7124129 229.3483525 -407.85943216 298.07120497 -416 367 C-416.14791992 368.22541504 -416.14791992 368.22541504 -416.29882812 369.47558594 C-417.29961219 379.28823821 -417.15045163 389.14525042 -417.13037109 398.99707031 C-417.12504798 402.0970558 -417.13032196 405.19689412 -417.13671875 408.296875 C-417.14609976 426.01061421 -416.46793932 443.18630846 -413.52587891 460.67163086 C-413.12022015 463.09100736 -412.73308702 465.51287391 -412.34765625 467.93554688 C-411.11134619 475.53888287 -409.78739616 482.78114466 -407 490 C-406.071875 489.154375 -405.14375 488.30875 -404.1875 487.4375 C-389.46813419 474.83796172 -375.02367011 470.95530716 -356 472 C-352.2276766 472.37770447 -348.66546842 473.03947062 -345 474 C-344.0615625 474.24492188 -343.123125 474.48984375 -342.15625 474.7421875 C-320.97678597 481.04029128 -304.94191819 496.47282546 -291 513 C-288.0894079 510.63091341 -285.33257596 508.35105241 -282.75 505.625 C-269.84447848 493.3060931 -255.22112869 488.48996599 -237.6640625 488.82421875 C-220.44215554 489.65042964 -206.60861126 497.74896249 -194.875 510.1875 C-185.63980503 521.0764824 -180.17903273 533.67188451 -174.88549805 546.75439453 C-162.54904816 576.93520678 -144.75619708 606.08453701 -121.203125 628.83984375 C-118.54017782 631.45085402 -116.10563191 634.20303277 -113.69140625 637.04296875 C-112.5655315 638.34565524 -111.40599471 639.62000114 -110.21484375 640.86328125 C-92.72416573 659.35958346 -77.87686178 686.13257745 -77 712 C-76.92265625 713.89492187 -76.92265625 713.89492187 -76.84375 715.828125 C-76.36061517 733.00227585 -80.67850661 748.06889626 -86.4050293 764.09912109 C-87.09956922 765.98614556 -87.09956922 765.98614556 -87 768 C-73.55901471 769.68914121 -60.35333482 770.32475379 -46.8125 770.25 C-45.41455704 770.24734131 -45.41455704 770.24734131 -43.9883728 770.24462891 C-29.57263326 770.21250986 -15.33040015 769.67712102 -1 768 C-2.39270546 763.29999444 -3.78496798 758.60230394 -5.31640625 753.9453125 C-14.13768252 727.0709511 -12.90934864 699.5329262 -0.3125 673.9375 C10.45769167 652.90778336 26.30895252 636.26062881 42.53515625 619.359375 C57.34244572 603.55776664 68.4223662 584.06373354 78.4375 565 C79.18193359 563.58533447 79.18193359 563.58533447 79.94140625 562.14208984 C83.00356848 556.21542544 85.60960004 550.22433191 88 544 C96.41148816 522.89235142 108.05892598 503.19772085 129.58203125 493.36328125 C145.06985299 487.29678317 161.16570279 486.91163768 176.59765625 493.546875 C183.19099615 496.61004524 188.68486489 500.04726046 194 505 C194.66 505 195.32 505 196 505 C196.226875 505.5775 196.45375 506.155 196.6875 506.75 C198.32802461 509.5623279 200.43778814 511.02970461 203 513 C203.43755615 512.52691406 203.8751123 512.05382812 204.32592773 511.56640625 C222.56958251 491.88656416 241.932083 473.18099163 270.40234375 471.71484375 C287.33501749 471.21314812 301.47098421 475.54576052 315 486 C328.51269377 436.26178678 327.15142408 381.19039053 317 331 C316.85481934 330.27167969 316.70963867 329.54335938 316.56005859 328.79296875 C308.18956086 287.78042624 291.2794812 248.31589851 269 213 C268.5570459 212.29746094 268.1140918 211.59492188 267.65771484 210.87109375 C258.22892928 196.06322767 247.50667104 182.24004777 236 169 C235.4225 168.32195312 234.845 167.64390625 234.25 166.9453125 C220.51237174 150.94097557 205.63215765 135.99934427 189 123 C188.11634766 122.29955566 188.11634766 122.29955566 187.21484375 121.58496094 C165.72565599 104.57811386 142.66927723 89.80215169 117.95068359 77.94287109 C116.01597599 77.00772206 114.09569673 76.04712507 112.17578125 75.08203125 C95.18874692 66.67275427 77.14584784 60.39408347 59 55 C58.13133301 54.73815918 57.26266602 54.47631836 56.36767578 54.20654297 C45.42273192 50.94842243 34.42594333 48.34352509 23.1875 46.3125 C22.14779053 46.12244385 21.10808105 45.9323877 20.03686523 45.73657227 C16.36535512 45.10185723 12.68664603 44.53770128 9 44 C8.14811096 43.87258423 7.29622192 43.74516846 6.41851807 43.6138916 C-9.79859508 41.24473281 -25.76795645 40.52771764 -42.14746094 40.60888672 C-45.99710498 40.62498789 -49.84569962 40.60892061 -53.6953125 40.58984375 C-69.66716001 40.57665199 -85.20487191 41.63906896 -101 44 Z " fill="#FF9D0B" transform="translate(556,87)"/>
<path d="M0 0 C3.80601437 2.04013073 6.15190275 4.38689611 8.15625 8.19921875 C10.75537245 16.82686134 10.00245164 28.09958568 6.44921875 36.328125 C1.60010525 45.26826956 -4.48196527 52.89588578 -11.4453125 60.26953125 C-13.3694829 62.3260987 -15.19952701 64.40134841 -17.0234375 66.54296875 C-22.71597838 73.08178124 -29.01096584 79.06591758 -35.17529297 85.15478516 C-40.76404067 90.68123529 -46.2928483 96.19222266 -51.39404297 102.18017578 C-54.35005949 105.5298485 -57.60812988 108.57827842 -60.8125 111.6875 C-75.14737737 125.22721984 -75.14737737 125.22721984 -82.375 142.75 C-82.25125 143.8225 -82.1275 144.895 -82 146 C-78.17279985 148.55146677 -76.5688164 148.43512537 -72 148 C-59.53359983 144.93269592 -49.81805507 134.93196579 -40.72631836 126.38818359 C-36.64327855 122.55607741 -32.42118077 118.96484681 -28.05078125 115.4609375 C-25.73446366 113.59246109 -23.44547949 111.70384821 -21.16796875 109.7890625 C-5.57673686 96.71549871 10.9054998 85.02411131 28 74 C28.64533691 73.58234375 29.29067383 73.1646875 29.95556641 72.734375 C42.21790563 64.872183 56.54410715 55.95661354 71.4375 55.75 C73.10619141 55.71132813 73.10619141 55.71132813 74.80859375 55.671875 C79.18945733 56.12229427 81.65297627 57.68277768 84.765625 60.7265625 C87.98192266 64.84003793 90.03580152 68.3462614 90.30078125 73.63671875 C89.13480991 82.7979221 82.31727767 90.43088481 75.31640625 95.94921875 C74.47916016 96.59310547 74.47916016 96.59310547 73.625 97.25 C73.10550781 97.66378906 72.58601563 98.07757812 72.05078125 98.50390625 C61.2839557 106.89460478 49.55489597 114.01635258 37.79174805 120.90307617 C34.31994647 122.93682302 30.85807602 124.98739091 27.39453125 127.03515625 C26.69296906 127.44947906 25.99140686 127.86380188 25.26858521 128.29067993 C-13.74417457 148.02967229 -13.74417457 148.02967229 -43 178 C-43.19758231 180.07564676 -43.19758231 180.07564676 -43.1875 182.375 C-43.20167969 183.14585937 -43.21585938 183.91671875 -43.23046875 184.7109375 C-42.97691762 187.22925893 -42.1759699 188.78438766 -41 191 C-33.29962338 190.65462123 -28.02162458 188.43072435 -21.3125 184.75 C-20.31428223 184.21568359 -19.31606445 183.68136719 -18.28759766 183.13085938 C-9.53068959 178.3976934 -0.96278291 173.3545091 7.57421875 168.23828125 C16.29851065 163.01188464 25.13554645 157.98405246 34 153 C35.0216626 152.42209717 35.0216626 152.42209717 36.06396484 151.83251953 C71.95496352 131.63297404 71.95496352 131.63297404 91 134 C95.49778834 135.28623803 98.16927297 137.77050374 100.4375 141.8125 C102.43007045 146.48770859 102.89741079 150.34897527 101.234375 155.26171875 C93.82527013 173.04945068 73.33898997 181.06698617 56.59179688 187.99121094 C48.3312914 191.3489666 40.03684313 194.61115682 31.70703125 197.79296875 C21.01969966 201.88713857 10.38774862 205.97248054 0.1875 211.1875 C-0.55242187 211.55496338 -1.29234375 211.92242676 -2.0546875 212.30102539 C-7.40319493 215.15960267 -11.65202719 218.9013268 -15 224 C-15.84618973 227.14058297 -15.60931738 228.67645063 -15 232 C-13.66666667 234.66666667 -13.66666667 234.66666667 -11 236 C5.16004938 238.69334156 25.54025291 224.21256603 39 216.4375 C53.82473649 207.90830336 71.36352476 197.96827805 89 200 C94.15809811 201.71936604 97.06854859 204.43038456 100 209 C100.9187063 215.3288656 99.59339913 219.74890099 96 225 C86.84673034 236.62394656 72.26897896 243.86284972 59.11767578 250.00683594 C57.00459243 250.99784621 54.90711288 252.01763796 52.80859375 253.0390625 C37.36698903 260.39906387 21.18375259 265.92155639 5.06054688 271.57275391 C1.75710119 272.73078943 -1.5367657 273.91345971 -4.828125 275.10546875 C-31.35000094 284.54876543 -59.04853992 289.34880347 -86.77734375 293.65234375 C-87.56156204 293.77488022 -88.34578033 293.89741669 -89.15376282 294.02366638 C-98.45692868 295.43570807 -107.61657422 296.16148988 -117.02734375 296.203125 C-118.05573868 296.20882507 -119.08413361 296.21452515 -120.14369202 296.22039795 C-122.31103507 296.22978984 -124.47839202 296.23635861 -126.64575195 296.24023438 C-129.89756429 296.24988152 -133.14872759 296.28093764 -136.40039062 296.3125 C-149.22367377 296.37722269 -161.42679966 295.55129889 -174 293 C-175.08478386 292.78235741 -175.08478386 292.78235741 -176.19148254 292.56031799 C-191.58884869 289.42237003 -205.95200564 283.25006289 -218 273 C-219.34964844 271.85337891 -219.34964844 271.85337891 -220.7265625 270.68359375 C-237.57232699 255.14278284 -249.51774292 230.81818729 -250.52392578 207.8684082 C-250.95124928 180.93891404 -233.65848658 161.39373318 -216 143 C-214.61089345 141.61820454 -213.21600957 140.2421637 -211.8125 138.875 C-185.46352116 112.79710119 -164.93448 75.96245941 -152.125 41.4375 C-148.4997965 32.11300699 -143.46354537 23.6772792 -135 18 C-129.80044275 16.26681425 -124.98580277 16.28299905 -119.9375 18.375 C-113.46303659 21.9378704 -109.31837686 29.15974395 -107 36 C-104.18511216 48.45814877 -104.48704452 63.44002149 -110 75 C-110.4125 75.91652344 -110.825 76.83304688 -111.25 77.77734375 C-117.41246659 90.25984 -127.63322358 98.75651427 -138.5859375 106.9296875 C-142.98981916 110.70647921 -146.35940272 115.72468812 -147.484375 121.4765625 C-147.63746015 126.05380854 -147.05209923 129.42167676 -144 133 C-138.6127099 136.86779802 -133.56021995 137.61538346 -127 137 C-119.08174194 135.49373451 -113.03067224 131.34371495 -108.41259766 124.72485352 C-106.88639832 122.12244817 -105.46324978 119.48449323 -104.0625 116.8125 C-102.93088717 114.74140669 -101.79528782 112.67248785 -100.65625 110.60546875 C-100.06199219 109.52313965 -99.46773437 108.44081055 -98.85546875 107.32568359 C-81.12166328 75.54017069 -61.09150364 42.50168504 -36 16 C-35.41734375 15.30777344 -34.8346875 14.61554687 -34.234375 13.90234375 C-26.29135605 4.94054628 -12.22521378 -3.14468969 0 0 Z " fill="#FFD11D" transform="translate(837,600)"/>
<path d="M0 0 C17.14602188 6.26987846 28.82562962 21.0190423 39.125 35.43896484 C39.57907227 36.06464355 40.03314453 36.69032227 40.50097656 37.33496094 C57.46362862 60.7145189 72.67327551 85.36249623 86.92529297 110.47070312 C95.32048367 125.69344984 95.32048367 125.69344984 109 135.81396484 C116.12452415 137.23886967 121.94045097 137.1206065 128.43359375 133.70458984 C131.20824539 131.62840709 132.85706178 129.62287789 133.62890625 126.21240234 C133.80717154 118.91540989 131.62965004 114.13006446 127.125 108.43896484 C123.873912 105.05330022 120.21416126 102.26711409 116.484375 99.43115234 C106.05761968 91.3052732 98.8149156 81.83239642 94.125 69.43896484 C93.57585937 68.12798828 93.57585937 68.12798828 93.015625 66.79052734 C91.76091211 62.06884461 91.79606526 57.55364725 91.8125 52.68896484 C91.79638672 51.75052734 91.78027344 50.81208984 91.76367188 49.84521484 C91.75695088 40.11321241 93.94255791 31.13816606 100.125 23.43896484 C104.08076339 19.51737651 107.1154074 16.57520841 112.8125 16.18896484 C119.52856905 16.34627817 123.53548967 18.50308685 128.125 23.25146484 C135.17013298 31.65929279 138.98225894 41.86586474 142.7578125 52.03271484 C145.16192676 58.0223938 148.12185483 63.72703833 151.09423828 69.45117188 C152.071888 71.33653994 153.03473417 73.22884816 153.99609375 75.12255859 C167.62645147 101.64408514 185.42218889 126.15668778 206.75 147.00146484 C223.06623755 163.20157259 236.08661419 182.63483193 236.5 206.12646484 C236.49283078 214.7608894 234.94378883 222.24308048 232.125 230.43896484 C231.78597656 231.44056641 231.44695312 232.44216797 231.09765625 233.47412109 C221.93589634 257.69898804 204.54995268 275.86252216 181.125 286.43896484 C176.19834016 288.53601075 171.29961035 290.11870833 166.125 291.43896484 C165.38491699 291.63506348 164.64483398 291.83116211 163.88232422 292.03320312 C148.89140396 295.78476758 133.79303942 295.81080167 118.4375 295.81396484 C117.44419678 295.81586823 116.45089355 295.81777161 115.42749023 295.81973267 C97.15333087 295.81577706 79.00513667 294.68596916 61.015625 291.34130859 C58.42753584 290.86316826 55.83935434 290.38820602 53.24804688 289.92773438 C40.71657285 287.69792765 28.32479666 285.12819618 16 281.93896484 C14.94756104 281.66665039 13.89512207 281.39433594 12.81079102 281.11376953 C-1.29431553 277.3700048 -15.10586991 272.80441176 -28.8125 267.81396484 C-29.87209427 267.42911926 -29.87209427 267.42911926 -30.95309448 267.03649902 C-44.52698325 262.08808768 -57.78727004 256.56684435 -70.875 250.43896484 C-71.67228516 250.06787598 -72.46957031 249.69678711 -73.29101562 249.31445312 C-87.7524138 242.5251084 -104.9084779 233.98652695 -112.875 219.43896484 C-114.08143566 215.81965786 -114.19768559 213.2466548 -113.875 209.43896484 C-111.13614877 204.35252684 -108.3648792 201.26892458 -102.875 199.43896484 C-95.66140513 198.47958101 -89.3986601 199.55981257 -82.625 201.93896484 C-81.99577637 202.1575415 -81.36655273 202.37611816 -80.71826172 202.60131836 C-69.58762295 206.77496546 -59.07097239 212.804737 -48.53515625 218.27099609 C-47.74839508 218.67893402 -46.96163391 219.08687195 -46.15103149 219.50717163 C-39.61544776 222.89708153 -39.61544776 222.89708153 -36.4831543 224.53442383 C-34.08691195 225.78599945 -31.68645215 227.02914994 -29.28515625 228.27099609 C-28.21612816 228.83352837 -28.21612816 228.83352837 -27.12550354 229.40742493 C-19.59810972 233.28181314 -11.49601038 236.93902065 -2.875 235.43896484 C-0.14438424 234.12516666 -0.14438424 234.12516666 1.125 231.43896484 C1.8797906 227.32192521 2.02589838 225.04225857 -0.02734375 221.38818359 C-12.15795859 206.11369302 -36.61153734 200.28978201 -54.2421875 193.78271484 C-90.04370782 180.54000195 -90.04370782 180.54000195 -103.875 169.43896484 C-104.803125 168.77896484 -105.73125 168.11896484 -106.6875 167.43896484 C-112.29146884 162.31533619 -115.40588978 156.6609568 -116.25 149.06396484 C-115.71627386 143.90461219 -114.23812901 139.67672892 -110.40234375 136.04443359 C-104.70501596 132.23274621 -98.59399602 132.80694445 -92.09375 133.91162109 C-77.82496251 137.11442689 -64.76518592 143.7466967 -51.875 150.43896484 C-50.5364645 151.12387273 -49.19792282 151.80876854 -47.859375 152.49365234 C-37.85780518 157.65853486 -28.18979978 163.3311101 -18.51953125 169.08740234 C3.00001953 183.92182785 3.00001953 183.92182785 27.125 190.43896484 C29.58150736 186.09585983 29.8016668 182.33837506 29.125 177.43896484 C18.9351454 157.05925565 -11.67795229 144.28994253 -30.4375 133.18896484 C-74.85012716 106.89645998 -74.85012716 106.89645998 -88.875 95.43896484 C-89.79502808 94.6932019 -89.79502808 94.6932019 -90.73364258 93.93237305 C-94.06776757 91.16451105 -96.84301049 88.56821029 -99.1875 84.87646484 C-99.65800781 84.15330078 -100.12851563 83.43013672 -100.61328125 82.68505859 C-103.35611921 77.80229752 -104.31649019 74.31264105 -103.55078125 68.78662109 C-101.9586758 63.25566516 -97.78533617 58.37116202 -92.875 55.43896484 C-67.3031943 50.98117709 -40.50748038 73.74649285 -21.21337891 87.31005859 C-9.68602994 95.5204595 1.3241101 104.29995551 12.125 113.43896484 C12.75809082 113.97295898 13.39118164 114.50695312 14.04345703 115.05712891 C20.04482806 120.12760456 25.95189316 125.25502352 31.6875 130.62646484 C44.85426503 142.82045402 44.85426503 142.82045402 61.375 147.75146484 C65.2020155 147.73695004 65.2020155 147.73695004 68.125 145.43896484 C69.31494528 138.89426582 67.32472135 135.01589953 63.64453125 129.63427734 C56.48919712 120.23218634 47.72785604 111.82172569 39.25 103.62646484 C37.50966627 101.83494483 35.91613356 100.01846172 34.3046875 98.11474609 C30.77750984 94.05294827 27.01387323 90.26632197 23.1953125 86.48193359 C22.55704529 85.84917511 21.91877808 85.21641663 21.26116943 84.56448364 C18.59031625 81.92122583 15.91607165 79.2814703 13.23681641 76.64672852 C5.37293733 68.90485196 -2.12034241 61.18602349 -8.875 52.43896484 C-9.77725842 51.3112924 -10.67958715 50.1836762 -11.58203125 49.05615234 C-19.02257592 39.36549861 -23.02843482 31.39569221 -23.1875 19.12646484 C-23.23100586 18.0252832 -23.23100586 18.0252832 -23.27539062 16.90185547 C-23.35321086 10.15544 -21.16557489 6.23060299 -16.875 1.00146484 C-11.38097497 -1.86000652 -5.91771859 -1.77069236 0 0 Z " fill="#FFD11D" transform="translate(200.875,600.56103515625)"/>
<path d="M0 0 C12.62245996 3.98472098 24.52812475 10.6900667 36.39233398 16.46777344 C51.60081772 23.79970321 67.58154847 30.88540022 84 35 C84.95084473 35.26635254 84.95084473 35.26635254 85.92089844 35.53808594 C106.81158523 41.29200014 133.13750081 42.0971647 153.96582031 35.61962891 C156.1172439 34.96428648 158.28056531 34.40640291 160.4609375 33.85546875 C182.62675693 28.0197012 203.6668895 17.38792609 224.13305664 7.22631836 C233.8375154 2.44094074 242.92179675 -1.81880949 254 0 C256.91632607 2.57721839 258.8492529 5.18708418 259.17700195 9.12866211 C260.02994549 45.99553222 248.23303576 81.78156894 224 110 C223.26652344 110.8559375 222.53304687 111.711875 221.77734375 112.59375 C212.31999221 123.3650732 212.31999221 123.3650732 207 127 C206.01 127 205.02 127 204 127 C202.30859375 124.76171875 202.30859375 124.76171875 200.4375 121.6875 C189.40888763 104.61223494 172.11202919 90.06956108 152 85 C149.03651417 85.18657378 147.55860686 85.54181685 145.26171875 87.42578125 C141.84725637 91.51805254 138.83435438 95.70953807 135.9375 100.1875 C129.40094518 110.14976371 129.40094518 110.14976371 123 111.75 C115.87519096 109.96879774 111.93837109 100.98992897 108.24682617 95.06396484 C106.03220935 91.51683685 103.81418969 88.1013519 101 85 C91.42207016 83.00459795 80.81537478 90.30162399 72.9453125 95.05859375 C60.15355237 103.49029771 50.84396533 113.94121007 43 127 C42.01 128.485 42.01 128.485 41 130 C34.71610984 127.86458954 30.73180218 123.496939 26 119 C25.16855469 118.23300781 24.33710938 117.46601562 23.48046875 116.67578125 C6.86703289 100.84723212 -3.24859803 80.30346257 -11 59 C-11.2688501 58.26225342 -11.5377002 57.52450684 -11.81469727 56.7644043 C-16.25537638 44.06056543 -18.35338871 30.43395323 -18.4375 17 C-18.44740967 16.18233154 -18.45731934 15.36466309 -18.4675293 14.5222168 C-18.39668117 9.6479677 -17.72006687 6.19850321 -15 2 C-10.07289393 -1.28473738 -5.75941951 -0.92593296 0 0 Z " fill="#3B3B44" transform="translate(386,490)"/>
<path d="M0 0 C6.31681188 5.7250128 10.62759387 13.89627563 15.1171875 21.09375 C16.84821176 23.98753464 16.84821176 23.98753464 19 26 C22.99556916 26.63565873 24.56625189 26.30948514 27.890625 23.9375 C31.33210568 20.93287187 33.6133575 17.42347165 36 13.5625 C39.19056826 8.4318604 42.21777189 3.77198242 47 0 C52.31370483 -0.10407026 56.96031331 1.9277882 61.75 4.0625 C62.8004248 4.52994629 62.8004248 4.52994629 63.87207031 5.00683594 C70.20613698 7.92823888 75.64288263 11.52122832 81 16 C81.98613281 16.81210937 82.97226562 17.62421875 83.98828125 18.4609375 C91.64649597 24.99645016 97.72549264 32.42309091 103 41 C103 41.66 103 42.32 103 43 C103.66 43.33 104.32 43.66 105 44 C79.26459989 61.37139507 51.56819948 71.50380161 20.125 71.25 C18.89338135 71.24250732 17.6617627 71.23501465 16.39282227 71.22729492 C-11.57750982 70.89636165 -38.05489278 63.1701245 -61 47 C-56.93838488 38.76527444 -52.08131801 31.86843896 -46 25 C-45.45859375 24.37480469 -44.9171875 23.74960937 -44.359375 23.10546875 C-35.03932128 13.05581486 -14.49013933 -2.61297595 0 0 Z " fill="#FE323C" transform="translate(487,574)"/>
<path d="M0 0 C11.14052433 8.42238953 19.17446471 20.27071606 21.91796875 34.08203125 C23.89131661 48.71950164 20.77701105 62.56074815 12.2734375 74.71875 C5.89863884 82.2022093 -0.99732452 89.07077335 -10.7890625 91.46875 C-18.80130719 89.4230705 -23.42201712 81.63993544 -27.91796875 75.2421875 C-31.47409726 70.28050496 -34.9793781 66.90268007 -40.7265625 64.71875 C-47.0836877 64.11215408 -51.91050673 65.97045382 -57.7265625 68.21875 C-69.00194498 72.57744263 -69.00194498 72.57744263 -74.7265625 71.71875 C-78.35516484 69.10815486 -79.76742613 65.92657709 -81.4140625 61.84375 C-81.83042969 60.83570313 -82.24679687 59.82765625 -82.67578125 58.7890625 C-86.78754946 46.77475093 -85.45204039 33.41153174 -80.5078125 21.875 C-72.88110937 6.79107603 -60.55433902 -2.86353866 -44.7265625 -8.28125 C-29.32751493 -12.25191351 -13.1480382 -8.56151325 0 0 Z " fill="#3B3B44" transform="translate(668.7265625,328.28125)"/>
<path d="M0 0 C11.45878707 8.38869695 21.08080781 20.2033513 23.6328125 34.515625 C24.20575577 46.70732477 23.67640562 58.57395642 17.6328125 69.515625 C15.1459556 72.24045863 13.72577336 72.50519573 10.01171875 72.921875 C4.85117045 72.72114054 0.33514135 70.87559587 -4.4296875 69.015625 C-12.62576564 65.8193049 -12.62576564 65.8193049 -21.3671875 65.515625 C-28.55642215 69.11024233 -33.18052964 75.92670492 -37.9296875 82.203125 C-40.81607966 85.92708631 -43.41898966 88.91149451 -47.3671875 91.515625 C-54.50391465 92.29988073 -58.8515003 88.59803874 -64.3671875 84.515625 C-73.4987936 77.11496164 -80.22726077 66.06363198 -82.3671875 54.515625 C-84.09192587 36.94367351 -80.92531073 22.57763945 -69.81640625 8.55859375 C-51.82917762 -11.21396775 -22.20036612 -13.92102166 0 0 Z " fill="#3B3B44" transform="translate(400.3671875,327.484375)"/>
<path d="M0 0 C8.49911317 5.86919891 13.33375425 13.70551565 15.8203125 23.6796875 C17.20435144 32.85953759 14.33042572 41.50057372 9.0078125 48.9921875 C2.47371554 56.960201 -4.54711986 62.01979752 -15.02734375 63.0625 C-26.03624226 63.54739865 -33.95933016 61.65928647 -42.4921875 54.4921875 C-50.11865793 47.18897406 -53.97605191 38.87595641 -54.5546875 28.3671875 C-54.3076032 19.41038156 -50.28618834 11.11130297 -44.1796875 4.6796875 C-31.50508629 -7.09348733 -14.83637157 -8.98690608 0 0 Z " fill="#FF9D0B" transform="translate(283.1796875,379.3203125)"/>
<path d="M0 0 C6.77467153 6.14116217 11.09924592 14.01272189 12.2734375 23.12109375 C12.71129637 33.10764421 9.20414985 41.8844172 2.8125 49.5 C-3.50410166 56.00705196 -11.32475426 60.04315004 -20.44482422 60.29321289 C-32.42941332 60.40236467 -39.9427187 57.91229057 -48.80078125 49.4296875 C-55.4206456 42.11608958 -58.58392644 33.26108342 -58.3125 23.421875 C-57.00951968 13.3237775 -51.95939399 4.88489074 -44 -1.3125 C-30.0118016 -11.11756097 -13.58166883 -10.14127921 0 0 Z " fill="#FF9D0B" transform="translate(783,382)"/>
</svg>
