<?xml version="1.0" encoding="UTF-8"?>
<svg version="1.1" xmlns="http://www.w3.org/2000/svg" width="1901" height="2048">
<path d="M0 0 C10.13427562 3.37809187 10.13427562 3.37809187 13.375 5.0625 C14.20515625 5.49046875 15.0353125 5.9184375 15.890625 6.359375 C16.91671875 6.90078125 17.9428125 7.4421875 19 8 C19.67353516 8.35513672 20.34707031 8.71027344 21.04101562 9.07617188 C24.24115742 10.76351937 27.44118519 12.451074 30.63964844 14.14160156 C35.6055648 16.76041427 40.59312583 19.32301166 45.625 21.8125 C52.63310648 25.28040103 59.56842821 28.88182661 66.5 32.5 C73.34906743 36.07475037 80.20045116 39.63596637 87.125 43.0625 C93.87065649 46.40717594 100.56608877 49.84617326 107.25 53.3125 C108.2517627 53.8288501 109.25352539 54.3452002 110.28564453 54.87719727 C111.22778809 55.36760498 112.16993164 55.8580127 113.140625 56.36328125 C113.98141602 56.79938721 114.82220703 57.23549316 115.68847656 57.68481445 C118 59 118 59 120.02148438 60.55151367 C122.14042966 62.10280962 124.05313304 62.91630434 126.515625 63.8125 C132.49246539 66.11904295 138.09018448 69.01102553 143.75 72 C144.75160156 72.52078125 145.75320312 73.0415625 146.78515625 73.578125 C150.6812739 75.62165161 154.45453324 77.62343412 158.078125 80.125 C160.63197338 81.76383319 162.79652503 82.76789613 165.60546875 83.83984375 C171.80238979 86.21577508 177.50989806 89.36044343 183.3125 92.5625 C184.37017578 93.13935547 185.42785156 93.71621094 186.51757812 94.31054688 C194.13339227 98.47642124 194.13339227 98.47642124 197.70458984 100.6340332 C199.89194631 101.93569874 201.91842664 102.78303459 204.3125 103.625 C211.29583351 106.33495032 217.64023187 110.19349095 224.11376953 113.92333984 C226.67825917 115.38715027 229.27423851 116.78936014 231.875 118.1875 C233.5834778 119.1247367 235.29181699 120.06222612 237 121 C237.83917969 121.44472656 238.67835938 121.88945313 239.54296875 122.34765625 C248.27726723 127.20907199 256.35765297 133.71739201 259.9609375 143.28125 C261.36953643 146.96690736 263.06014318 150.49874254 264.75 154.0625 C265.26844482 155.16489014 265.26844482 155.16489014 265.79736328 156.28955078 C268.12159013 161.21263725 270.53686668 166.0827515 273 170.9375 C276.1168006 177.09408724 278.95925692 183.33774748 281.72094727 189.66040039 C285.12516831 197.39771201 288.81567959 204.99127655 292.49804688 212.59912109 C296.08104102 220.02443482 299.50662571 227.50544424 302.84960938 235.04125977 C305.07986881 240.03961115 307.44048352 244.9425695 309.9375 249.8125 C313.24012611 256.25957731 316.14864074 262.84213569 319 269.5 C323.00739822 278.853148 327.3297126 287.96241923 332 297 C334.47637723 301.81407734 336.8774083 306.56527972 338.8125 311.625 C340.53916217 316.06994156 342.59665342 320.31229817 344.75 324.5625 C355.32333476 345.43544233 355.32333476 345.43544233 359 355.0625 C360.93084604 360.0759248 363.3614506 364.82107216 365.78588867 369.60766602 C368.36477717 374.70630242 370.86958553 379.83480129 373.3125 385 C373.63766602 385.6813501 373.96283203 386.3627002 374.29785156 387.06469727 C375.84249739 390.34606716 377.2603452 393.62209618 378.5 397.03125 C379.95609112 401.00848658 381.75567579 404.73497755 383.6875 408.5 C384.03127686 409.17998047 384.37505371 409.85996094 384.72924805 410.56054688 C385.81558113 412.70904491 386.90709141 414.85484018 388 417 C389.44229435 419.83093383 390.8790102 422.6645995 392.3125 425.5 C392.63758545 426.13357422 392.9626709 426.76714844 393.29760742 427.41992188 C394.85948852 430.51044394 396.25417281 433.57883948 397.43359375 436.8359375 C399.22059811 441.75124086 401.47943837 446.4178748 403.75 451.125 C404.19102051 452.04643799 404.63204102 452.96787598 405.08642578 453.91723633 C407.62505776 459.20443804 410.22229675 464.45673667 412.875 469.6875 C414.73686431 473.37234979 416.46509155 477.01869215 417.9375 480.875 C419.58806259 485.18324812 421.59466147 489.26867703 423.6875 493.375 C429.2389278 504.29259055 434.15124276 515.49579207 439.06640625 526.7109375 C442.50177743 534.53265344 446.06649044 542.23683629 449.94311523 549.84985352 C452.49453685 554.89679032 454.83604812 560.01687927 457.125 565.1875 C461.52492736 575.12409307 466.25439039 584.89401815 471.03955078 594.64916992 C474.2021407 601.13225559 477.1517444 607.64256383 479.87841797 614.3203125 C481.40479844 617.96714577 483.13269718 621.48465795 484.9375 625 C485.44953979 626.01380737 485.44953979 626.01380737 485.97192383 627.0480957 C487.52296235 630.11715648 489.09133242 633.17647643 490.671875 636.23046875 C493.19983928 641.16260524 495.45397247 646.04854673 497.375 651.25 C500.56305578 659.80257273 504.79912649 667.79930486 508.97949219 675.89746094 C514.88663417 687.36569445 514.88663417 687.36569445 516.9375 693.375 C519.53734864 700.93115585 523.35749017 707.90729696 527 715 C534.90321434 730.47475047 534.90321434 730.47475047 537.8203125 738.12890625 C541.94309525 748.16283115 546.90383291 757.89358622 551.8125 767.5625 C553.69499927 771.28881705 555.44988809 774.97486964 556.9375 778.875 C558.57288954 783.13943348 560.55260341 787.18514644 562.625 791.25 C565.86389631 797.61271653 568.88423105 804.05120462 571.8125 810.5625 C575.20982743 818.11494491 578.70670719 825.60740291 582.3125 833.0625 C586.90496035 842.56805435 591.24054724 852.17708489 595.52526855 861.82363892 C599.25347285 870.20908001 603.10015578 878.48983345 607.31640625 886.640625 C609.34807843 890.69454165 611.1583543 894.85629717 613 899 C613.495 611.405 613.495 611.405 614 318 C626.31960656 322.10653552 637.40882151 327.74800519 648.83056641 333.85009766 C654.67990093 336.95052143 660.63687497 339.84291915 666.58203125 342.75390625 C675.082909 346.9402952 683.41541869 351.35710482 691.64648438 356.05541992 C695.91943109 358.45653064 700.17573182 360.53307962 704.7265625 362.359375 C711.81739405 365.23451035 718.43778756 368.87359571 725.125 372.5625 C732.18336882 376.45399251 739.15019973 380.20629881 746.703125 383.06713867 C750.63388272 384.66359119 754.26314897 386.76669946 757.9375 388.875 C759.50904607 389.76053826 761.08066043 390.64595535 762.65234375 391.53125 C764.10185557 392.35365033 765.5511001 393.17652207 767 394 C768.9964698 395.131253 770.99582635 396.25745225 773 397.375 C773.7425 397.79523438 774.485 398.21546875 775.25 398.6484375 C777.67593507 399.84072945 780.07458133 400.82131081 782.59375 401.79296875 C788.45313357 404.09982976 793.94875281 406.97708123 799.5 409.9375 C801.44747311 410.96828637 803.39538637 411.99824162 805.34375 413.02734375 C806.28532959 413.52500244 807.22690918 414.02266113 808.19702148 414.53540039 C813.20931302 417.15440021 818.27779647 419.65855058 823.3503418 422.15820312 C829.17852239 425.03241173 834.93469841 428.0411099 840.6875 431.0625 C841.49566162 431.48619873 842.30382324 431.90989746 843.13647461 432.34643555 C846.73124001 434.24007032 850.29893867 436.15551289 853.80859375 438.203125 C856.35253332 439.63545327 858.64074558 440.72695337 861.375 441.6875 C869.17353078 444.89356266 876.54804199 449.05484576 884 453 C884 801.81 884 1150.62 884 1510 C877.25900373 1507.75300124 877.25900373 1507.75300124 874.51953125 1505.828125 C873.91173828 1505.41046875 873.30394531 1504.9928125 872.67773438 1504.5625 C872.06220703 1504.129375 871.44667969 1503.69625 870.8125 1503.25 C866.55232982 1500.26557808 862.26903412 1497.55514587 857.6796875 1495.09765625 C852.03155395 1492.07036156 846.68055135 1488.68156946 841.3125 1485.1875 C834.08928569 1480.52991161 826.812491 1476.10739836 819.2746582 1471.98120117 C814.83051959 1469.52848815 810.76248885 1466.78207801 806.6640625 1463.80078125 C803.34016096 1461.55397977 799.88598412 1459.62426228 796.375 1457.6875 C785.6630575 1451.77601456 775.20235147 1445.387859 765.1875 1438.3515625 C763.2282178 1437.141006 761.28451922 1436.14405852 759.21484375 1435.140625 C755.09454236 1433.11241832 751.34713284 1430.71621295 747.5625 1428.125 C746.90999268 1427.68518799 746.25748535 1427.24537598 745.58520508 1426.79223633 C742.8401647 1424.9407558 740.10677003 1423.07378287 737.3828125 1421.19140625 C733.80571971 1418.74090674 730.29727677 1416.60521765 726.375 1414.75 C722.14882401 1412.70445363 718.30362694 1410.27316992 714.4375 1407.625 C707.58654806 1402.93441292 700.5165739 1398.66993432 693.375 1394.4375 C686.62856974 1390.43776644 679.93705512 1386.4499257 673.5625 1381.875 C669.27515566 1378.80029595 665.00315936 1376.40744436 660.2421875 1374.15625 C657.32827796 1372.65360675 654.90068425 1370.78164696 652.34375 1368.7421875 C650.03131305 1367.02327603 647.62429747 1365.56594917 645.15942383 1364.07910156 C629.27800073 1354.26263964 616.52348286 1339.49399292 605 1325 C603.54208495 1323.18716353 602.08380908 1321.37461712 600.625 1319.5625 C594.51558074 1311.93201133 594.51558074 1311.93201133 592.375 1308.0625 C590.49344565 1304.67428747 588.28400492 1301.6291692 586 1298.5 C579.95192731 1289.98355764 575.4254649 1280.6445504 570.70800781 1271.35107422 C568.88186145 1267.76821473 567.03428105 1264.19709191 565.1796875 1260.62890625 C554.20255098 1239.50048536 554.20255098 1239.50048536 548.92480469 1228.83032227 C545.53032991 1221.99651584 541.96688868 1215.25073305 538.42333984 1208.4934082 C535.52878237 1202.96373273 532.69143121 1197.41336168 529.9375 1191.8125 C526.474498 1184.77540819 522.70504278 1177.91952411 518.85522461 1171.0871582 C516.32321516 1166.5588898 514.06861636 1162.01351792 512.00976562 1157.25268555 C510.23032393 1153.2829301 508.17058867 1149.46249135 506.125 1145.625 C505.68663818 1144.79645508 505.24827637 1143.96791016 504.79663086 1143.11425781 C502.00626957 1137.85152219 499.17270692 1132.61472634 496.25390625 1127.421875 C495 1125 495 1125 493.66577148 1121.81347656 C492.01751626 1117.94302879 490.09302253 1114.26114257 488.09375 1110.5625 C487.7277771 1109.87873291 487.3618042 1109.19496582 486.98474121 1108.49047852 C485.82589615 1106.32550537 484.66342676 1104.16251406 483.5 1102 C481.96541875 1099.14760427 480.43469942 1096.29318524 478.90625 1093.4375 C478.55929077 1092.79562744 478.21233154 1092.15375488 477.8548584 1091.49243164 C475.67076352 1087.41073294 473.81815729 1083.26099296 472 1079 C470.92857528 1076.90434916 469.83021221 1074.8222795 468.70703125 1072.75390625 C468.08086914 1071.59511963 467.45470703 1070.43633301 466.80957031 1069.24243164 C466.32018982 1068.34090866 466.32018982 1068.34090866 465.82092285 1067.4211731 C461.03534369 1058.6006399 456.28641198 1049.77002582 451.86547852 1040.75976562 C448.66233702 1034.25057746 445.26392472 1027.84477464 441.85449219 1021.44165039 C439.79347331 1017.54473122 437.8138693 1013.65935126 436.0703125 1009.609375 C433.60727918 1003.94750826 430.60298771 998.59110673 427.625 993.1875 C423.23767322 985.20728062 419.01899038 977.17240021 415 969 C411.40924873 961.71426144 407.64889994 954.52800815 403.85107422 947.34863281 C401.28973376 942.49269949 398.79788871 937.6138613 396.375 932.6875 C392.43678697 924.69316968 388.20918464 916.8535914 384 909 C379.52187747 900.6438005 375.05552621 892.29160692 370.875 883.78125 C368.01333729 877.97006652 365.00748989 872.23681705 362 866.5 C358.23574773 859.31757323 354.52965846 852.11436427 350.93310547 844.84667969 C348.00693607 838.95819674 344.93022532 833.15288599 341.84887695 827.34448242 C338.82745888 821.62777307 335.92482775 815.86022898 333.0625 810.0625 C329.27514083 802.39751764 325.22412686 794.9156137 321.04858398 787.45629883 C317.4233993 780.91833014 314.16248577 774.25093505 311.07983398 767.44116211 C309.43224448 763.83957527 307.71147313 760.44501394 305.55859375 757.1171875 C302.53949237 752.42234637 300.27436421 747.43468403 297.9375 742.375 C294.25883786 734.54242387 290.39380037 726.87460835 286.1875 719.3125 C281.15879403 710.27172176 276.49481688 701.07895815 271.91424561 691.80670166 C268.07118288 684.0353858 264.14065361 676.35768763 259.7512207 668.87939453 C257.50019649 665.02673385 255.7465449 661.10193624 254 657 C252.59561951 654.17918869 251.11404508 651.40186785 249.625 648.625 C249.06425781 647.56925781 249.06425781 647.56925781 248.4921875 646.4921875 C245.7214531 641.29231608 242.86222457 636.15200422 240 631 C239.67 808.54 239.34 986.08 239 1169 C229.30428337 1164.15214169 219.62035705 1159.30465249 210 1154.3125 C208.42025391 1153.49942383 208.42025391 1153.49942383 206.80859375 1152.66992188 C201.67275692 1150.005586 196.69249386 1147.24863475 191.82421875 1144.1237793 C188.82504307 1142.27618753 185.67176369 1140.77501043 182.5 1139.25 C172.05763753 1134.12614612 161.99492851 1128.38043046 152 1122.4375 C146.73703111 1119.34416319 141.3351477 1116.61471337 135.86474609 1113.91430664 C127.57147981 1109.81747692 119.50895696 1105.42379139 111.6796875 1100.4921875 C109.41432214 1099.23071583 107.1988645 1098.18792568 104.82421875 1097.16015625 C99.69290874 1094.92011352 94.82754742 1092.28251872 89.9375 1089.5625 C89.09123047 1089.09779297 88.24496094 1088.63308594 87.37304688 1088.15429688 C82.73174003 1085.58851661 78.19625511 1082.92534069 73.75463867 1080.02636719 C71.4180941 1078.65961703 68.91829905 1077.87707218 66.37109375 1076.98828125 C59.27588412 1074.03096982 52.65524811 1069.64175172 46.11328125 1065.6171875 C40.14575249 1061.95452552 34.40850017 1058.60772238 27.796875 1056.22265625 C23.04319893 1054.14458277 18.66845295 1051.39206041 14.23876953 1048.70336914 C13.54895996 1048.28563232 12.85915039 1047.86789551 12.1484375 1047.4375 C11.54177246 1047.06496094 10.93510742 1046.69242188 10.31005859 1046.30859375 C6.94671764 1044.40334036 3.45740398 1042.72870199 0 1041 C0 697.47 0 353.94 0 0 Z " fill="#4C76CE" transform="translate(0,533)"/>
<path d="M0 0 C0.82239014 53.62294362 1.14332584 107.2329041 1.10353777 160.86177602 C1.09615856 171.09553779 1.09486804 181.32929832 1.09374207 191.56306237 C1.09158748 209.79285776 1.0850285 228.02264851 1.07543945 246.25244141 C1.06616982 263.89404274 1.05913663 281.53564279 1.05493164 299.17724609 C1.05453756 300.82590429 1.05453756 300.82590429 1.05413551 302.50786871 C1.05282987 308.02524467 1.05156631 313.54262063 1.05032361 319.0599966 C1.04006369 364.37333427 1.02254769 409.68666689 1 455 C-0.62937752 455.81247948 -0.62937752 455.81247948 -2.29167175 456.64137268 C-3.73767445 457.36318256 -5.18366265 458.08502146 -6.62963867 458.80688477 C-7.34311211 459.16255775 -8.05658554 459.51823074 -8.79167938 459.8846817 C-14.6747354 462.82278486 -20.499852 465.86263238 -26.3125 468.9375 C-34.14998561 473.05873498 -42.04823824 476.97478429 -50.07739258 480.70678711 C-56.45683589 483.6914913 -62.66568847 486.95046357 -68.87597656 490.27001953 C-75.11203507 493.58300578 -81.45146067 496.61687053 -87.85302734 499.59448242 C-94.4895906 502.70386829 -100.97062829 506.07090709 -107.41992188 509.55078125 C-110.90822651 511.42270465 -114.38450535 513.20056658 -118.0234375 514.76171875 C-125.36383623 517.95793354 -132.40365682 521.80252222 -139.5 525.5 C-156.08773917 534.14287357 -156.08773917 534.14287357 -163.00878906 537.11328125 C-166.80851215 538.80535999 -170.45706789 540.79249462 -174.125 542.75 C-174.9504834 543.18683105 -175.7759668 543.62366211 -176.62646484 544.07373047 C-180.41645984 546.08174751 -184.19861026 548.10338726 -187.96875 550.1484375 C-195.01073627 553.96059863 -202.11731528 557.50503148 -209.38769531 560.86206055 C-214.81064371 563.38718963 -220.09977337 566.11820606 -225.375 568.9375 C-232.44038875 572.71194291 -239.59026878 576.21633299 -246.85253906 579.59423828 C-253.4892517 582.70373739 -259.97046608 586.07081957 -266.41992188 589.55078125 C-269.91589909 591.42682198 -273.4003976 593.2077599 -277.046875 594.7734375 C-284.98312996 598.22977013 -292.59277586 602.42576523 -300.26367188 606.4284668 C-308.33986591 610.63806243 -316.43868186 614.7275501 -324.71342468 618.53366089 C-330.38835915 621.15273007 -335.91824189 624.00777691 -341.4375 626.9375 C-348.44071823 630.62358413 -355.45455657 634.26916922 -362.55541992 637.76342773 C-367.0212028 639.97495043 -371.43721141 642.27461896 -375.84375 644.6015625 C-377.07447728 645.24898803 -378.30527207 645.89628526 -379.53613281 646.54345703 C-381.38527686 647.51579426 -383.23273263 648.49077746 -385.07556152 649.47503662 C-386.80173323 650.39685265 -388.53358824 651.30800183 -390.265625 652.21875 C-391.27399414 652.75435547 -392.28236328 653.28996094 -393.32128906 653.84179688 C-396 655 -396 655 -400 655 C-400 505.18 -400 355.36 -400 201 C-394.72 198.36 -389.44 195.72 -384 193 C-380.82550179 191.34541306 -377.6572875 189.68621248 -374.5 188 C-368.84852646 184.98171763 -363.15341891 182.06556421 -357.41796875 179.2109375 C-351.90784547 176.4680525 -346.42032161 173.68661473 -340.95703125 170.8515625 C-340.29421143 170.50768997 -339.6313916 170.16381744 -338.94848633 169.80952454 C-337.59550841 169.10733953 -336.24258316 168.40505304 -334.88970947 167.70266724 C-324.05159577 162.07979665 -313.18995666 156.56422181 -302.1262207 151.39501953 C-295.69465647 148.3759243 -289.42510499 145.10216372 -283.1628418 141.74829102 C-277.33536474 138.64810475 -271.41724017 135.7934911 -265.4375 133 C-258.8513228 129.91839967 -252.44072428 126.66590209 -246.125 123.0625 C-238.41119693 118.6624095 -230.49541857 114.81706228 -222.46191406 111.03759766 C-216.68321988 108.31021597 -210.99527768 105.4773477 -205.375 102.4375 C-199.21452515 99.10771403 -192.96389236 96.03821616 -186.625 93.0625 C-179.82301908 89.86909043 -173.12521363 86.54570334 -166.5 83 C-159.91554522 79.47649759 -153.26053217 76.17242603 -146.5 73 C-138.96994303 69.4635416 -131.57779966 65.73876675 -124.23876953 61.82250977 C-117.24058917 58.0967814 -110.15502102 54.56084665 -103.05322266 51.03759766 C-97.46542879 48.25696989 -91.93321669 45.39541918 -86.4375 42.4375 C-79.38162481 38.64610703 -72.18670718 35.20433527 -64.93725586 31.80053711 C-58.24251154 28.63890979 -51.69972567 25.24793291 -45.17333984 21.75463867 C-38.41417186 18.16114805 -31.52687022 14.87945091 -24.59643555 11.63134766 C-18.43234176 8.72726141 -12.39758984 5.64342887 -6.44042969 2.33544922 C-2.19792006 0 -2.19792006 0 0 0 Z " fill="#4CABCE" transform="translate(1423,1393)"/>
<path d="M0 0 C0 148.5 0 297 0 450 C-26.91489362 464.68085106 -26.91489362 464.68085106 -33.3984375 467.453125 C-37.89627176 469.38494969 -42.25235066 471.55219582 -46.625 473.75 C-47.94407349 474.41044312 -47.94407349 474.41044312 -49.28979492 475.08422852 C-55.31881249 478.11667259 -61.27523636 481.25105211 -67.17578125 484.52734375 C-69.75515275 485.87232723 -72.36606058 487.02062572 -75.04711914 488.14477539 C-78.95948601 489.8581172 -82.75100583 491.82526119 -86.5625 493.75 C-88.35025708 494.64844414 -90.13801751 495.54688161 -91.92578125 496.4453125 C-93.22829834 497.10128418 -93.22829834 497.10128418 -94.55712891 497.77050781 C-97.78492214 499.39504976 -101.0171936 501.01045687 -104.25 502.625 C-105.35988281 503.18058594 -106.46976563 503.73617188 -107.61328125 504.30859375 C-109.94205258 505.47163641 -112.27242662 506.63077024 -114.60546875 507.78515625 C-123.81300531 512.35149552 -132.93315054 517.07195631 -142.01928711 521.87573242 C-143.41932983 522.61206909 -143.41932983 522.61206909 -144.84765625 523.36328125 C-145.67273682 523.79938721 -146.49781738 524.23549316 -147.34790039 524.68481445 C-149.3265537 525.66603561 -151.34305513 526.57161204 -153.37524414 527.43652344 C-157.05476161 529.02362049 -160.6027813 530.79235933 -164.1484375 532.65234375 C-165.13367905 533.16445152 -165.13367905 533.16445152 -166.13882446 533.68690491 C-168.91483451 535.12986411 -171.68783766 536.57855741 -174.4609375 538.02709961 C-187.72921454 544.95069936 -187.72921454 544.95069936 -194.57666016 547.89282227 C-200.66817863 550.67592082 -206.56527568 553.89899809 -212.5 557 C-227.64367449 564.91284666 -227.64367449 564.91284666 -232.4921875 566.99609375 C-239.38509354 569.95832093 -245.97858846 573.59071457 -252.625 577.0625 C-255.365684 578.49379573 -258.10811336 579.92166926 -260.8515625 581.34765625 C-261.77214951 581.83057884 -261.77214951 581.83057884 -262.71133423 582.32325745 C-265.59400866 583.82147113 -268.48064756 585.20567764 -271.46826172 586.48413086 C-275.2983915 588.12807361 -278.96484282 589.9766457 -282.65625 591.90625 C-283.7151947 592.45520935 -283.7151947 592.45520935 -284.79553223 593.01525879 C-287.0315777 594.17450209 -289.26598742 595.33684441 -291.5 596.5 C-294.44645157 598.03409235 -297.3945791 599.56489307 -300.34375 601.09375 C-301.33936951 601.61418884 -301.33936951 601.61418884 -302.35510254 602.1451416 C-306.49950444 604.29314999 -310.70731785 606.16027908 -315 608 C-317.57598028 609.25678125 -320.11625015 610.5785193 -322.65625 611.90625 C-323.7151947 612.45520935 -323.7151947 612.45520935 -324.79553223 613.01525879 C-327.0315777 614.17450209 -329.26598742 615.33684441 -331.5 616.5 C-334.44645157 618.03409235 -337.3945791 619.56489307 -340.34375 621.09375 C-341.00749634 621.44070923 -341.67124268 621.78766846 -342.35510254 622.1451416 C-346.49950444 624.29314999 -350.70731785 626.16027908 -355 628 C-357.57598028 629.25678125 -360.11625015 630.5785193 -362.65625 631.90625 C-363.7151947 632.45520935 -363.7151947 632.45520935 -364.79553223 633.01525879 C-367.0315777 634.17450209 -369.26598742 635.33684441 -371.5 636.5 C-374.44645157 638.03409235 -377.3945791 639.56489307 -380.34375 641.09375 C-381.00749634 641.44070923 -381.67124268 641.78766846 -382.35510254 642.1451416 C-388.15044838 645.14882025 -393.53975284 647.70795057 -400 649 C-400 500.83 -400 352.66 -400 200 C-384.26972145 191.0112694 -384.26972145 191.0112694 -378.51953125 188.2890625 C-377.90276016 187.99455704 -377.28598907 187.70005157 -376.65052795 187.3966217 C-375.3620028 186.78152966 -374.07246935 186.16854526 -372.78192139 185.55770874 C-369.37841323 183.94582323 -365.98363904 182.31581121 -362.58984375 180.68359375 C-361.59358978 180.20455345 -361.59358978 180.20455345 -360.57720947 179.71583557 C-354.52603619 176.79394523 -348.58633963 173.68319712 -342.66845703 170.50097656 C-336.92737014 167.4337679 -331.08225597 164.6336787 -325.1875 161.875 C-319.39513021 159.16220368 -313.75376901 156.38549474 -308.25 153.125 C-300.85626838 148.76278647 -293.13112109 145.1663557 -285.37646484 141.49487305 C-279.29716444 138.6080468 -273.29190105 135.64367028 -267.375 132.4375 C-259.87885657 128.37897262 -252.21308317 124.72735281 -244.50732422 121.08569336 C-238.75963064 118.35670636 -233.09623019 115.52675485 -227.5 112.5 C-219.96121111 108.42260056 -212.25562491 104.74743632 -204.5078125 101.0859375 C-198.75996374 98.35685281 -193.09639071 95.52684167 -187.5 92.5 C-179.96121111 88.42260056 -172.25562491 84.74743632 -164.5078125 81.0859375 C-158.75996374 78.35685281 -153.09639071 75.52684167 -147.5 72.5 C-139.96121111 68.42260056 -132.25562491 64.74743632 -124.5078125 61.0859375 C-118.75996374 58.35685281 -113.09639071 55.52684167 -107.5 52.5 C-99.96265646 48.42338229 -92.25865945 44.74867851 -84.51220703 41.08813477 C-78.02388889 38.00766439 -71.66467377 34.75586571 -65.34716797 31.34155273 C-58.98697263 27.93122175 -52.47734782 24.8707234 -45.94580078 21.80493164 C-39.96123683 18.97885718 -34.08671103 15.99411437 -28.25 12.875 C-22.04437434 9.56242779 -15.7976655 6.38150041 -9.4375 3.375 C-8.7165918 3.03194824 -7.99568359 2.68889648 -7.25292969 2.33544922 C-2.25100353 0 -2.25100353 0 0 0 Z " fill="#4CABCE" transform="translate(1423,787)"/>
<path d="M0 0 C0 150.48 0 300.96 0 456 C-7.92 459.96 -7.92 459.96 -16 464 C-20.50528761 466.32399451 -25.00581223 468.65487464 -29.5 471 C-38.59228984 475.72854135 -47.70367184 480.40479786 -56.88867188 484.95019531 C-59.37259852 486.18526522 -61.85045185 487.43212058 -64.328125 488.6796875 C-80.48415724 496.80624106 -80.48415724 496.80624106 -88.4375 500.4375 C-96.03505385 503.9271234 -103.41181492 507.81726098 -110.79467773 511.73803711 C-114.90148371 513.90955384 -118.98598176 516.04073828 -123.25390625 517.87890625 C-129.320886 520.51094451 -135.14866927 523.6275137 -141.01062012 526.68121338 C-144.48990013 528.49350656 -147.97355385 530.29735405 -151.45703125 532.1015625 C-152.13116058 532.45092865 -152.80528992 532.8002948 -153.49984741 533.1602478 C-158.06348594 535.52281966 -162.64222857 537.84990881 -167.25 540.125 C-174.38082954 543.65900143 -181.4395031 547.32787734 -188.5 551 C-197.56293447 555.71225224 -206.64417665 560.37500704 -215.79833984 564.90722656 C-220.53807231 567.25974847 -225.26784754 569.63227952 -230 572 C-232.07809277 573.03912696 -234.15621712 574.07819076 -236.234375 575.1171875 C-237.22373047 575.61186523 -238.21308594 576.10654297 -239.23242188 576.61621094 C-241.61848958 577.80924479 -244.00455729 579.00227865 -246.390625 580.1953125 C-247.3660022 580.68306152 -247.3660022 580.68306152 -248.36108398 581.18066406 C-249.61046528 581.80527397 -250.85997497 582.42962712 -252.10961914 583.05371094 C-255.77809589 584.88628074 -259.4429662 586.72582817 -263.10546875 588.5703125 C-263.99008789 589.01487793 -264.87470703 589.45944336 -265.78613281 589.91748047 C-267.49596229 590.77680361 -269.20500757 591.63768972 -270.91308594 592.50048828 C-274.63276604 594.36791023 -278.35397419 596.17504624 -282.17578125 597.82421875 C-288.18322865 600.45843024 -293.9777664 603.52013778 -299.79443359 606.5456543 C-301.75842819 607.56688245 -303.72474591 608.58352597 -305.69140625 609.59960938 C-310.87250326 612.28481206 -315.99616032 614.99432514 -321 618 C-322.63193497 618.68018843 -324.27831875 619.32677451 -325.9375 619.9375 C-329.02042475 621.12394504 -331.69372614 622.31920991 -334.375 624.25 C-337 626 -337 626 -341 626 C-341 476.18 -341 326.36 -341 172 C-316.59661017 159.26779661 -316.59661017 159.26779661 -306.19921875 154.1171875 C-301.02889919 151.53265809 -295.92692421 148.81787154 -290.8125 146.125 C-282.36811172 141.6811748 -273.85047027 137.45266641 -265.17700195 133.47314453 C-261.0543508 131.55871419 -257.13388353 129.52345533 -253.265625 127.1328125 C-247.68574864 123.71430475 -241.85238485 120.92717118 -235.93899536 118.13638306 C-232.71361594 116.6128399 -229.49692301 115.07124838 -226.28125 113.52734375 C-225.64711685 113.22289841 -225.0129837 112.91845306 -224.3596344 112.6047821 C-218.44007864 109.75107172 -212.62779108 106.72037028 -206.8347168 103.62036133 C-200.90050715 100.45081358 -194.90140087 97.42769496 -188.875 94.4375 C-181.53846207 90.79502131 -174.26460756 87.06056999 -167.04150391 83.19848633 C-161.83429998 80.42118683 -156.57380715 77.76853658 -151.28393555 75.15283203 C-145.78586462 72.42212125 -140.36196632 69.56108272 -134.9375 66.6875 C-126.48952734 62.21773893 -117.91809933 58.07166796 -109.27124023 54.00268555 C-102.72987502 50.89795783 -96.37718566 47.57077353 -90.13354492 43.90380859 C-86.8034354 41.95558125 -83.46322943 40.34357963 -79.91381836 38.84350586 C-76.64966318 37.40484581 -73.50390485 35.74565348 -70.34375 34.09375 C-69.2848053 33.54479065 -69.2848053 33.54479065 -68.20446777 32.98474121 C-65.9684223 31.82549791 -63.73401258 30.66315559 -61.5 29.5 C-58.55354843 27.96590765 -55.6054209 26.43510693 -52.65625 24.90625 C-51.99250366 24.55929077 -51.32875732 24.21233154 -50.64489746 23.8548584 C-47.60332232 22.27843577 -44.58301488 20.82163016 -41.42944336 19.47265625 C-37.98960767 17.99553737 -34.75629289 16.32697736 -31.47265625 14.53125 C-30.25591774 13.87098618 -29.03911901 13.21083333 -27.82226562 12.55078125 C-25.94112063 11.52577169 -24.06089989 10.49912381 -22.18188477 9.47021484 C-4.86058555 0 -4.86058555 0 0 0 Z " fill="#4CAACE" transform="translate(1901,1152)"/>
<path d="M0 0 C0 147.84 0 295.68 0 448 C-6.6 451.3 -13.2 454.6 -20 458 C-26.47707688 461.4233162 -26.47707688 461.4233162 -32.9453125 464.86328125 C-36.80698472 466.9117504 -40.70739004 468.87363197 -44.625 470.8125 C-51.2991854 474.11590171 -57.90412198 477.54309829 -64.5 481 C-71.5868958 484.71357938 -78.69220313 488.37392021 -85.86328125 491.921875 C-91.78569788 494.86499039 -97.64225889 497.93057405 -103.5 501 C-110.58693024 504.71351468 -117.69220183 508.37391956 -124.86328125 511.921875 C-130.78569788 514.86499039 -136.64225889 517.93057405 -142.5 521 C-149.58693024 524.71351468 -156.69220183 528.37391956 -163.86328125 531.921875 C-169.78569788 534.86499039 -175.64225889 537.93057405 -181.5 541 C-188.58693024 544.71351468 -195.69220183 548.37391956 -202.86328125 551.921875 C-208.78569788 554.86499039 -214.64225889 557.93057405 -220.5 561 C-227.58693024 564.71351468 -234.69220183 568.37391956 -241.86328125 571.921875 C-247.78569788 574.86499039 -253.64225889 577.93057405 -259.5 581 C-266.58693024 584.71351468 -273.69220183 588.37391956 -280.86328125 591.921875 C-287.79315994 595.36564364 -294.63614027 598.97467617 -301.48974609 602.56713867 C-307.80325489 605.87069447 -314.14655251 609.10131663 -320.53564453 612.25585938 C-325.94799051 614.93994988 -331.24338888 617.81518389 -336.5234375 620.75 C-339 622 -339 622 -341 622 C-341.13038494 585.34116024 -341.25793711 548.68231156 -341.38218227 512.02345046 C-341.39718501 507.59750207 -341.41220895 503.17155375 -341.42724609 498.74560547 C-341.43023671 497.86525944 -341.43322732 496.9849134 -341.43630856 496.07789022 C-341.47769861 483.90669202 -341.52020785 471.73549822 -341.56369197 459.56430733 C-341.63912906 438.44913116 -341.7121407 417.33394789 -341.78125 396.21875 C-341.78399162 395.38262759 -341.78673324 394.54650517 -341.78955793 393.68504572 C-342.03241802 319.45665233 -342.05775636 245.22871564 -342 171 C-340.92308395 170.46301483 -339.84616791 169.92602966 -338.73661804 169.37277222 C-337.29794967 168.65462968 -335.85929586 167.93645796 -334.4206543 167.21826172 C-333.71392326 166.86595993 -333.00719223 166.51365814 -332.2790451 166.15068054 C-325.74752462 162.88873674 -319.27908116 159.51383071 -312.8125 156.125 C-303.77214781 151.4081849 -294.67529911 146.87677687 -285.44189453 142.55175781 C-278.79215016 139.42109997 -272.28772132 136.05937906 -265.80175781 132.60400391 C-260.98474332 130.03848574 -256.14258871 127.54311124 -251.25 125.125 C-245.74314536 122.40297263 -240.29180891 119.5884315 -234.85693359 116.7253418 C-225.07211772 111.57108898 -215.21065513 106.65627898 -205.20922852 101.93652344 C-198.82186863 98.90946314 -192.56715111 95.70340468 -186.35009766 92.34301758 C-179.93886946 88.9047688 -173.37534609 85.82028066 -166.79199219 82.72802734 C-161.32123315 80.14444691 -155.9469632 77.43918481 -150.625 74.5625 C-144.05527827 71.01289621 -137.37672546 67.75149454 -130.625 64.5625 C-122.65859465 60.79920467 -114.8293031 56.85817276 -107.06298828 52.69946289 C-100.41913976 49.16506967 -93.64705113 45.94585384 -86.83544922 42.74975586 C-80.17267558 39.60511837 -73.66317222 36.22806002 -67.16845703 32.75219727 C-60.4428831 29.17683238 -53.58919688 25.91559241 -46.6953125 22.6796875 C-41.2143674 20.09326518 -35.83246675 17.37925226 -30.5 14.5 C-23.92330078 10.95072093 -17.24784043 7.64945379 -10.5 4.4375 C-9.57251953 3.99535156 -8.64503906 3.55320312 -7.68945312 3.09765625 C-1.13406275 0 -1.13406275 0 0 0 Z " fill="#4CABCE" transform="translate(1901,547)"/>
<path d="M0 0 C0.92385498 0.44158447 1.84770996 0.88316895 2.79956055 1.33813477 C4.27162964 2.0544104 4.27162964 2.0544104 5.7734375 2.78515625 C6.79671143 3.27878662 7.81998535 3.77241699 8.87426758 4.28100586 C16.04211086 7.76227539 23.11860688 11.39311772 30.1484375 15.14404297 C36.64279599 18.60614934 43.21350461 21.89779406 49.80712891 25.16601562 C55.15768165 27.82719236 60.4477045 30.5807133 65.7109375 33.41015625 C71.66662113 36.61051888 77.70473534 39.56141343 83.8359375 42.41015625 C89.21403967 44.91157429 94.42170731 47.49610278 99.5234375 50.53515625 C107.29672981 55.12011235 115.45070254 58.8974986 123.59185791 62.7727356 C131.65821273 66.61696354 139.59277953 70.53881534 147.2265625 75.19921875 C149.50585432 76.48512937 151.67431062 77.54341713 154.06640625 78.57421875 C160.24581615 81.26265495 166.18698027 84.41778571 172.16015625 87.52941895 C175.63389332 89.33886377 179.11193682 91.13999277 182.58984375 92.94140625 C183.26314728 93.2903595 183.93645081 93.63931274 184.63015747 93.99884033 C189.87160672 96.71228532 195.13982336 99.36496578 200.43164062 101.97827148 C206.0739926 104.77886051 211.63752231 107.72536944 217.2109375 110.66015625 C226.0796327 115.32765793 235.05648253 119.70174558 244.1237793 123.96826172 C250.62006779 127.04950972 256.86368405 130.37527916 263.015625 134.09375 C266.20062379 135.87687276 269.42214172 137.33368035 272.765625 138.78735352 C276.81434968 140.58895303 280.75631726 142.599869 284.7109375 144.59765625 C286.48693456 145.4909741 288.26297673 146.38420229 290.0390625 147.27734375 C290.90853516 147.71530273 291.77800781 148.15326172 292.67382812 148.60449219 C294.84439792 149.69491655 297.01832331 150.77793583 299.1953125 151.85546875 C315.75259432 160.05624073 332.22526844 168.46485299 348.1484375 177.84765625 C345.55586404 180.84247689 342.57692776 182.3474828 339.07421875 184.140625 C338.47843521 184.44749237 337.88265167 184.75435974 337.26881409 185.07052612 C335.33567503 186.06434803 333.39842682 187.04984625 331.4609375 188.03515625 C330.12038593 188.72214664 328.78005459 189.40956694 327.43994141 190.09741211 C320.40362101 193.70363095 313.35147115 197.27790668 306.26269531 200.7800293 C300.29978175 203.73860036 294.40757955 206.83110129 288.50650024 209.91067505 C287.61769669 210.37448074 287.61769669 210.37448074 286.7109375 210.84765625 C286.11993256 211.15613495 285.52892761 211.46461365 284.92001343 211.78244019 C278.12128751 215.32669861 271.31132939 218.78978536 264.3359375 221.97265625 C256.78413042 225.41934483 249.56528838 229.40135369 242.30615234 233.421875 C236.10369689 236.83706218 229.83849925 239.97068455 223.40136719 242.91455078 C218.13269218 245.33923944 213.01168547 247.98675841 207.8984375 250.72265625 C201.29493012 254.25441975 194.62229586 257.55720722 187.8359375 260.72265625 C179.39952437 264.66528585 171.24617092 269.00574384 163.10498047 273.52246094 C156.97057525 276.90703571 150.76991671 280.00196197 144.40039062 282.91503906 C139.13201194 285.339492 134.0113448 287.98690381 128.8984375 290.72265625 C122.25419179 294.27663418 115.53857458 297.59837903 108.7109375 300.78515625 C100.79424533 304.4868551 93.14861245 308.53295308 85.52978516 312.81005859 C79.21341718 316.32965777 72.7775741 319.46990384 66.21777344 322.50634766 C60.64131214 325.10093517 55.19532548 327.88246119 49.7734375 330.78515625 C43.17115395 334.31902272 36.4963303 337.61772187 29.7109375 340.78515625 C22.6626205 344.08086101 15.80956969 347.60427209 9.0234375 351.41015625 C2.35010828 355.1344516 -4.36271192 358.73510321 -11.2265625 362.09765625 C-12.00531738 362.49283447 -12.78407227 362.8880127 -13.58642578 363.29516602 C-14.32103027 363.64764404 -15.05563477 364.00012207 -15.8125 364.36328125 C-16.44978027 364.67555664 -17.08706055 364.98783203 -17.74365234 365.30957031 C-23.34789525 366.74016463 -28.23937075 363.91471835 -33.08984375 361.37109375 C-33.78104813 361.01703461 -34.4722525 360.66297546 -35.18440247 360.29818726 C-37.410783 359.1555855 -39.63115422 358.00181368 -41.8515625 356.84765625 C-43.32690447 356.08807666 -44.80265348 355.32928717 -46.27880859 354.57128906 C-49.30377493 353.0165069 -52.3267986 351.45804607 -55.34814453 349.89624023 C-67.79416037 343.46401712 -80.23516663 337.06861761 -92.93066406 331.13891602 C-99.26208276 328.16951456 -105.44383747 324.96204719 -111.61279297 321.67016602 C-118.65832111 317.91846998 -125.79327953 314.360142 -132.94335938 310.81274414 C-138.10843833 308.24248947 -143.22354024 305.60833739 -148.2890625 302.84765625 C-154.45446574 299.4950885 -160.75806273 296.47249698 -167.1015625 293.47265625 C-175.07449189 289.70113207 -182.92941969 285.7766889 -190.70898438 281.62207031 C-197.7219958 277.88514552 -204.82569869 274.34406059 -211.94384766 270.8125 C-217.10874867 268.24233604 -222.22389659 265.60859561 -227.2890625 262.84765625 C-233.51065817 259.45955451 -239.88165356 256.42955504 -246.2890625 253.41015625 C-252.94876735 250.26934414 -259.48750421 247.05306742 -265.8515625 243.34765625 C-273.13311786 239.10929543 -280.67324584 235.52051143 -288.29296875 231.93359375 C-294.75221944 228.88291862 -301.07667463 225.66256996 -307.35693359 222.26171875 C-313.28074587 219.08356881 -319.33267442 216.21035844 -325.4140625 213.34765625 C-332.77551091 209.87842648 -339.92829044 206.2320784 -346.96118164 202.14086914 C-354.99515519 197.51968654 -363.4370503 193.71650262 -371.8515625 189.84765625 C-370.44854035 185.6385898 -367.49900416 184.65824823 -363.7890625 182.66015625 C-362.7064917 182.06424683 -362.7064917 182.06424683 -361.60205078 181.45629883 C-356.2276541 178.52380092 -350.7725504 175.77177654 -345.27490234 173.0793457 C-339.39042879 170.17534738 -333.65584093 167.02271948 -327.9140625 163.84765625 C-320.50490061 159.75406232 -313.0383691 155.95502314 -305.34228516 152.43359375 C-301.35094122 150.59546208 -297.67980853 148.6081536 -294.03125 146.17578125 C-290.92606547 144.28373333 -287.6727543 142.70394994 -284.4140625 141.09765625 C-272.69480937 135.31398654 -261.18738268 129.17701168 -249.7890625 122.78515625 C-243.66308244 119.35115247 -237.47735501 116.11654548 -231.17163086 113.02709961 C-225.30761678 110.12995036 -219.58057732 107.00194295 -213.8515625 103.84765625 C-206.87165763 100.00465326 -199.85996597 96.29472347 -192.70288086 92.79394531 C-186.75687626 89.86024724 -180.98232383 86.63837024 -175.22753906 83.34716797 C-171.6844734 81.33921336 -168.15353457 79.49593115 -164.4140625 77.87890625 C-159.52377777 75.76025719 -154.92858685 73.21207855 -150.2890625 70.59765625 C-144.28726336 67.25411253 -138.27390143 63.99035222 -132.1015625 60.97265625 C-124.16828871 57.08856149 -116.43697738 52.85126661 -108.68530273 48.61889648 C-103.22654417 45.64752126 -97.75414344 42.75068791 -92.1640625 40.03515625 C-83.74224376 35.93362115 -75.59834263 31.32085577 -67.41418457 26.77047729 C-59.30770989 22.26626622 -51.16716421 17.91207506 -42.828125 13.8515625 C-36.59983841 10.77007933 -30.54518727 7.34514949 -24.47290039 3.96972656 C-9.25234084 -4.44174444 -9.25234084 -4.44174444 0 0 Z " fill="#4CABCE" transform="translate(971.8515625,498.15234375)"/>
<path d="M0 0 C4.00964723 1.88543987 7.84100714 4.05406341 11.6875 6.25 C18.7687602 10.26166237 25.7733153 13.84495864 33.32788086 16.8828125 C36.72938705 18.30494976 39.77010145 19.98787256 42.9375 21.875 C44.11778856 22.56630245 45.29879606 23.25637867 46.48046875 23.9453125 C47.35517822 24.45819824 47.35517822 24.45819824 48.24755859 24.98144531 C51.05804354 26.61495648 53.89885697 28.18873954 56.75 29.75 C58.19632813 30.54664063 58.19632813 30.54664063 59.671875 31.359375 C62.29100172 32.65049381 64.81491383 33.71359096 67.53515625 34.74609375 C73.57361014 37.1150692 79.18150539 40.1939053 84.86117554 43.31109619 C93.80055022 48.21270269 102.74528511 52.9510033 112.046875 57.13671875 C118.74006164 60.21910734 125.22043664 63.75289153 131.74633789 67.17016602 C138.11949163 70.50624491 144.51321105 73.78418066 150.96240234 76.97021484 C156.87832464 79.90749095 162.71677208 82.98845749 168.5625 86.0625 C174.33187415 89.0957758 180.08856337 92.12206606 186.0234375 94.82104492 C186.69632813 95.1276001 187.36921875 95.43415527 188.0625 95.75 C189.15087158 96.2442749 190.23924316 96.7385498 191.3605957 97.24780273 C194.85407076 98.88720325 198.1562754 100.78001928 201.48046875 102.7421875 C208.24927914 106.67431292 215.19883226 110.10390926 222.27520752 113.44229126 C232.2621901 118.15921521 242.11624558 123.00386525 251.70043945 128.50341797 C258.01267429 132.09353424 264.52897583 135.17292147 271.10473633 138.24682617 C277.90808721 141.44033798 284.56324619 144.85878938 291.19384766 148.39501953 C296.02892718 150.97164119 300.89526019 153.45935967 305.8125 155.875 C316.04935739 160.91847956 326.01125103 166.48629897 336 172 C333.20953484 174.95090788 330.14694109 176.66491689 326.5625 178.5 C325.20623197 179.20680173 323.85080692 179.91522266 322.49609375 180.625 C321.77019043 181.00527344 321.04428711 181.38554687 320.29638672 181.77734375 C317.05833274 183.50136824 313.86103044 185.29577666 310.65893555 187.08544922 C302.76187789 191.49392326 294.81486947 195.59684094 286.5925293 199.36328125 C282.56733697 201.21921114 278.85977806 203.21848129 275.1796875 205.671875 C272.07450363 207.56392252 268.82119371 209.14371086 265.5625 210.75 C254.19247852 216.36116215 243.00217085 222.25985109 232 228.5625 C225.92272246 232.03790564 219.72076372 235.06782816 213.35766602 237.98071289 C207.70861548 240.59497333 202.32207422 243.55237814 196.92944336 246.65551758 C192.54485021 249.16658173 188.10629712 251.47940895 183.5625 253.6875 C175.133063 257.79365268 167.00492708 262.42397556 158.86743164 267.0769043 C153.77402636 269.97076537 148.72420649 272.64021657 143.33862305 274.94042969 C138.3807704 277.18670597 133.64602128 279.88631008 128.875 282.5 C127.82957031 283.06847656 126.78414062 283.63695312 125.70703125 284.22265625 C121.43880895 286.54832478 117.18020158 288.88064275 112.98046875 291.328125 C110 293 110 293 106.4375 294.25 C100.56571464 296.34626119 95.3188988 299.7173172 89.95898438 302.85449219 C71.81097561 313.46646341 71.81097561 313.46646341 64.40625 315.953125 C61.43986602 317.24369465 58.85071775 318.93745402 56.12792969 320.67578125 C52.79963337 322.74699273 49.34799581 324.56044586 45.875 326.375 C45.1327417 326.76582764 44.3904834 327.15665527 43.62573242 327.55932617 C39.21683003 329.87127124 34.77930969 332.1140341 30.3125 334.3125 C23.93570252 337.47117008 17.68397117 340.84148969 11.4375 344.25 C10.48464111 344.76989502 9.53178223 345.28979004 8.55004883 345.82543945 C3.43287983 348.62362632 3.43287983 348.62362632 -1.58569336 351.59277344 C-4 353 -4 353 -7.4375 354.1875 C-12.27700862 355.87120737 -16.54381124 358.60144845 -20.81225586 361.39526367 C-23.87761927 363.27739768 -25.84652341 364.00103817 -29.46484375 363.9765625 C-33.49084782 362.86440668 -36.89811141 361.17972167 -40.5 359.125 C-47.39093254 355.33097716 -54.38327085 351.8505361 -61.5 348.5 C-69.10593714 344.90534054 -76.60394193 341.18002457 -84.01318359 337.1965332 C-88.51269 334.77857415 -93.04591452 332.45093952 -97.625 330.1875 C-103.17494515 327.44378494 -108.66998019 324.60885549 -114.14746094 321.72314453 C-123.92720636 316.57116809 -133.78447234 311.66050676 -143.77978516 306.94091797 C-150.28592685 303.85611905 -156.67334433 300.60495981 -163.01464844 297.19580078 C-167.513624 294.778006 -172.04640469 292.45069722 -176.625 290.1875 C-182.17494515 287.44378494 -187.66998019 284.60885549 -193.14746094 281.72314453 C-202.92720636 276.57116809 -212.78447234 271.66050676 -222.77978516 266.94091797 C-229.28443411 263.85682681 -235.67060607 260.60677218 -242.01025391 257.19799805 C-246.55157566 254.75716033 -251.12831144 252.40981474 -255.75 250.125 C-261.90938924 247.07971965 -267.9907852 243.90366073 -274.0625 240.6875 C-282.49876219 236.22762443 -291.050832 232.06730331 -299.67822266 227.99169922 C-306.2177006 224.88925439 -312.63970698 221.62308165 -319.01416016 218.19604492 C-324.14271649 215.43995309 -329.32581058 212.81821583 -334.54492188 210.23852539 C-341.70622796 206.68149836 -348.77715577 202.95177465 -355.84423828 199.21166992 C-360.83861897 196.58421404 -365.84389041 194.09690855 -371.02954102 191.86816406 C-373.05531475 190.97562889 -375.02779772 190.00471203 -377 189 C-376.77880859 187.16870117 -376.77880859 187.16870117 -376 185 C-374.07666016 183.5871582 -374.07666016 183.5871582 -371.5390625 182.30078125 C-370.60223633 181.81851074 -369.66541016 181.33624023 -368.70019531 180.83935547 C-367.68538086 180.33549316 -366.67056641 179.83163086 -365.625 179.3125 C-364.5844043 178.78285645 -363.54380859 178.25321289 -362.47167969 177.70751953 C-355.3511167 174.1059279 -348.16111886 170.65925333 -340.92626953 167.29418945 C-334.54490325 164.31061493 -328.33539329 161.05011466 -322.12402344 157.72998047 C-316.65310748 154.82348604 -311.11597189 152.1140531 -305.5 149.5 C-298.29704815 146.14685075 -291.26761324 142.54723159 -284.26342773 138.79858398 C-278.44252833 135.7048716 -272.53502065 132.85052066 -266.5625 130.0625 C-259.55630041 126.78611304 -252.74303895 123.28805991 -246 119.5 C-238.40304418 115.23223231 -230.68389623 111.38655994 -222.78955078 107.70141602 C-216.89373029 104.93744223 -211.11567168 102.00991365 -205.375 98.9375 C-198.38476431 95.19819921 -191.30618388 91.73742947 -184.12011719 88.39208984 C-178.53223277 85.77255388 -173.06638525 82.97300839 -167.625 80.0625 C-160.99859196 76.51890762 -154.3028467 73.19160542 -147.5 70 C-139.93595699 66.45093161 -132.52660648 62.69201886 -125.16186523 58.74780273 C-119.37541615 55.66998092 -113.50057713 52.8347687 -107.5625 50.0625 C-100.55631589 46.78607861 -93.74304122 43.28806118 -87 39.5 C-79.40304418 35.23223231 -71.68389623 31.38655994 -63.78955078 27.70141602 C-57.89373732 24.93744553 -52.11560011 22.01004262 -46.375 18.9375 C-39.21344567 15.10467147 -31.96104698 11.54369321 -24.58837891 8.13500977 C-19.33248164 5.69047062 -14.32336055 3.0070978 -9.421875 -0.1015625 C-5.96472205 -1.38405472 -3.42123726 -1.12149749 0 0 Z " fill="#4CABCE" transform="translate(473,244)"/>
<path d="M0 0 C2.87744313 1.39902255 5.68717626 2.91347058 8.5 4.4375 C15.65369102 8.26146025 22.85729087 11.96004559 30.125 15.5625 C36.6158302 18.78236949 43.05860453 22.06384613 49.4375 25.5 C56.99571957 29.56411879 64.71985351 33.23970271 72.4765625 36.9074707 C79.08226691 40.04485045 85.57292283 43.34093658 92.01318359 46.8034668 C96.51269 49.22142585 101.04591452 51.54906048 105.625 53.8125 C111.17494515 56.55621506 116.66998019 59.39114451 122.14746094 62.27685547 C131.93066288 67.43065281 141.79083522 72.34442433 151.79077148 77.06347656 C158.1759985 80.08952607 164.4300173 83.29222631 170.64331055 86.65478516 C176.23486708 89.65630755 181.94035924 92.3730345 187.6875 95.0625 C193.5209437 97.79598321 199.20722726 100.59014205 204.75 103.875 C212.14373162 108.23721353 219.86887891 111.8336443 227.62353516 115.50512695 C233.70283851 118.3919546 239.70807245 121.35637626 245.625 124.5625 C252.11004461 128.07300923 258.70774534 131.28756849 265.375 134.4375 C273.30680609 138.18761366 281.11917078 142.09306998 288.85791016 146.22583008 C295.87074052 149.96270693 302.97430003 153.50367694 310.09228516 157.03515625 C315.25717343 159.60531387 320.37250057 162.23876528 325.4375 165 C332.8965629 169.03893204 340.54686459 172.6496716 348.23413086 176.23242188 C349.65544312 176.90047852 349.65544312 176.90047852 351.10546875 177.58203125 C351.95262451 177.97624268 352.79978027 178.3704541 353.67260742 178.77661133 C356.02598775 180.0136604 358.02841689 181.21196534 360 183 C360 183.99 360 184.98 360 186 C358.71323688 186.75838213 357.42016797 187.50606269 356.125 188.25 C355.40570312 188.66765625 354.68640625 189.0853125 353.9453125 189.515625 C351.43788917 190.77931315 348.9896899 191.8043394 346.375 192.8125 C340.65303225 195.06143787 335.29346438 197.85721549 329.875 200.75 C327.83129671 201.82920046 325.78702419 202.90732362 323.7421875 203.984375 C322.26250488 204.76458008 322.26250488 204.76458008 320.75292969 205.56054688 C317.19208704 207.42244189 313.6031521 209.22174686 310 211 C302.29369907 214.81132384 294.6793367 218.7950617 287.06640625 222.7890625 C281.73778893 225.58270653 276.3941865 228.33516006 271 231 C261.19157715 235.85554781 251.46062578 240.83533066 241.77612305 245.93408203 C235.96982867 248.98503443 230.13282881 251.95917637 224.25146484 254.86230469 C220.2218692 256.86137379 216.22903472 258.92143565 212.25 261.01953125 C211.2379248 261.55263916 210.22584961 262.08574707 209.18310547 262.63500977 C207.20066452 263.6819399 205.22037664 264.73296129 203.24267578 265.78881836 C198.91444055 268.0738153 194.63288455 270.21069914 190.0625 271.96875 C184.09308663 274.27256863 178.52056969 277.25337159 172.875 280.25 C170.6463453 281.42154737 168.41717949 282.59212295 166.1875 283.76171875 C165.11886719 284.32294434 164.05023437 284.88416992 162.94921875 285.46240234 C159.28001319 287.37537061 155.58548195 289.23124388 151.875 291.0625 C145.14366165 294.39510581 138.4740601 297.8426997 131.8125 301.3125 C130.81911621 301.8288501 129.82573242 302.3452002 128.80224609 302.87719727 C127.8633252 303.36760498 126.9244043 303.8580127 125.95703125 304.36328125 C125.12147705 304.79938721 124.28592285 305.23549316 123.42504883 305.68481445 C121.74875471 306.59392514 120.09933529 307.55373942 118.47485352 308.55249023 C116.15495229 309.90937041 113.96145262 310.87057728 111.4453125 311.796875 C105.35002442 314.173654 99.64793672 317.18579344 93.875 320.25 C91.64373772 321.422843 89.41196788 322.59472092 87.1796875 323.765625 C85.57625488 324.60770508 85.57625488 324.60770508 83.94042969 325.46679688 C80.31551403 327.35690567 76.66601011 329.19125021 73 331 C62.74703412 336.06935171 52.63129908 341.40880691 42.49511719 346.70654297 C41.67172852 347.13338379 40.84833984 347.56022461 40 348 C39.35450195 348.38687988 38.70900391 348.77375977 38.04394531 349.17236328 C33.97583883 350.8196257 30.85069426 350.34583745 26.84716797 348.71826172 C25.74002441 348.12803223 24.63288086 347.53780273 23.4921875 346.9296875 C22.88545197 346.61097687 22.27871643 346.29226624 21.65359497 345.96389771 C19.72108 344.94570022 17.79802251 343.91099452 15.875 342.875 C14.60738602 342.20196506 13.33916082 341.53007998 12.0703125 340.859375 C10.18717584 339.86375305 8.30463339 338.86715867 6.42474365 337.86541748 C2.56424365 335.81077655 -1.32244442 333.82306634 -5.2421875 331.8828125 C-9.97674653 329.53589455 -14.62100825 327.05757932 -19.24951172 324.50878906 C-23.99086901 321.9079025 -28.77486701 319.38939154 -33.5625 316.875 C-34.52607422 316.36324219 -35.48964844 315.85148437 -36.48242188 315.32421875 C-40.92741115 312.99232283 -45.3265194 310.80571272 -50.015625 309.0078125 C-55.67881053 306.82304739 -60.89326479 303.95220293 -66.1875 301 C-67.13302734 300.47921875 -68.07855469 299.9584375 -69.05273438 299.421875 C-72.91750409 297.2888453 -76.76391296 295.14335515 -80.55078125 292.875 C-83.28809884 291.38699044 -85.82992509 290.23608381 -88.71875 289.12109375 C-94.54705473 286.86273588 -99.99022862 284.00080018 -105.5 281.0625 C-107.44747311 280.03171363 -109.39538637 279.00175838 -111.34375 277.97265625 C-112.2925 277.47137207 -113.24125 276.97008789 -114.21875 276.45361328 C-119.26311068 273.81719092 -124.36424929 271.29548995 -129.47216797 268.78491211 C-134.69018774 266.20559078 -139.80318884 263.48335582 -144.88745117 260.64990234 C-152.81105234 256.23620281 -160.70015003 252.0828293 -169.0703125 248.58911133 C-174.56689444 246.2661847 -179.84601426 243.5919794 -185.125 240.8125 C-185.9193042 240.39597168 -186.7136084 239.97944336 -187.53198242 239.55029297 C-190.79888555 237.81105829 -193.89329437 236.07469394 -196.9296875 233.94921875 C-199.53738846 232.29369358 -201.73257743 231.24967631 -204.5859375 230.15625 C-210.85481562 227.75290623 -216.69953894 224.64077924 -222.625 221.5 C-224.7835712 220.36404547 -226.94241922 219.22861678 -229.1015625 218.09375 C-230.11677979 217.55927246 -231.13199707 217.02479492 -232.17797852 216.47412109 C-236.66488574 214.13032441 -241.19902671 211.88892548 -245.73828125 209.6484375 C-252.18560461 206.45901806 -258.56926832 203.15665676 -264.9375 199.8125 C-265.75452393 199.38437012 -266.57154785 198.95624023 -267.41333008 198.51513672 C-273.58815394 195.26160461 -273.58815394 195.26160461 -276.44140625 193.44921875 C-278.78294985 192.12293986 -281.00205589 191.18600333 -283.5078125 190.22265625 C-289.86531522 187.74400808 -295.84014679 184.60829463 -301.875 181.4375 C-302.98875 180.86064453 -304.1025 180.28378906 -305.25 179.68945312 C-313.48318416 175.38935031 -313.48318416 175.38935031 -316.14111328 173.38696289 C-318.57983835 171.56736779 -321.10212815 170.85618941 -324 170 C-322.53960416 166.22283462 -320.79265695 164.99127866 -317.2578125 163.1171875 C-316.28344238 162.59455322 -315.30907227 162.07191895 -314.30517578 161.53344727 C-313.25571777 160.98615967 -312.20625977 160.43887207 -311.125 159.875 C-309.51407471 159.01829712 -309.51407471 159.01829712 -307.87060547 158.14428711 C-300.17919737 154.07607148 -292.4121654 150.16661094 -284.60693359 146.32226562 C-279.75156687 143.91981394 -275.10285405 141.34655854 -270.5078125 138.47265625 C-267.29426237 136.58557152 -263.96883912 134.95212273 -260.625 133.3125 C-254.38292328 130.2476798 -248.26769134 126.99935011 -242.1875 123.625 C-235.59881056 119.96953166 -228.98615158 116.37319687 -222.3125 112.875 C-221.53132813 112.46540039 -220.75015625 112.05580078 -219.9453125 111.63378906 C-217.63072987 110.42152641 -215.31543517 109.21063334 -213 108 C-203.60571149 103.08518817 -194.2876839 98.1038915 -185.1484375 92.7265625 C-182.45775608 91.25102753 -179.77163729 90.04579237 -176.94189453 88.87109375 C-172.91538048 87.06488277 -169.10009164 84.83781133 -165.25 82.6875 C-163.470065 81.70179959 -161.69011719 80.71612232 -159.91015625 79.73046875 C-157.64521178 78.4716881 -155.38079364 77.21196887 -153.11669922 75.95166016 C-151.6417818 75.13176783 -150.16475421 74.31567444 -148.6875 73.5 C-147.54861328 72.86578125 -147.54861328 72.86578125 -146.38671875 72.21875 C-144 71 -144 71 -140.921875 69.74609375 C-135.56042675 67.48719847 -130.59674314 64.46002258 -125.5625 61.5625 C-119.11763458 57.86367149 -112.68558249 54.24481007 -106 51 C-99.17429203 47.6437674 -92.46528804 44.12440252 -85.8125 40.4375 C-84.96236328 39.96892578 -84.11222656 39.50035156 -83.23632812 39.01757812 C-79.57641079 36.99685156 -75.92993189 34.96363789 -72.32421875 32.84765625 C-69.59472807 31.33055978 -66.90209622 30.10158305 -64.02294922 28.91162109 C-59.39848277 26.82765323 -55.00275367 24.25782162 -50.5625 21.8125 C-43.47525362 17.93543526 -36.38089234 14.11505912 -29.125 10.5625 C-23.21985949 7.67009476 -17.58997426 4.45893043 -12 1 C-6.95553085 -2.10428871 -5.43974787 -2.16957386 0 0 Z " fill="#4CABCE" transform="translate(1444,247)"/>
<path d="M0 0 C2.11781061 1.00018591 4.17791753 2.07557846 6.23995972 3.186203 C7.01240524 3.58895447 7.78485077 3.99170593 8.58070374 4.40666199 C11.0501458 5.69674343 13.5105048 7.0030774 15.97042847 8.311203 C19.18249961 10.004012 22.39818264 11.68985648 25.61495972 13.373703 C26.80676346 13.9997493 26.80676346 13.9997493 28.02264404 14.63844299 C34.0689176 17.79547896 40.2011419 20.72546549 46.3891449 23.59236145 C51.70050506 26.06366404 56.82588994 28.77088596 61.90792847 31.686203 C69.58487848 35.99964558 77.39003682 39.8854986 85.36740112 43.60929871 C91.2635255 46.37348324 97.04193412 49.30111666 102.78292847 52.373703 C108.99902559 55.6988923 115.26698914 58.8358052 121.65792847 61.811203 C128.97519538 65.21984429 136.13226692 68.86443832 143.25704956 72.65763855 C148.06647021 75.21669358 152.89890602 77.71025702 157.78292847 80.123703 C164.73496165 83.55956022 171.60184767 87.14935209 178.47042847 90.748703 C186.68055418 95.04544195 194.93785535 99.16744323 203.34127808 103.07096863 C209.63812878 106.01456639 215.76441911 109.23162797 221.89157104 112.51115417 C227.75422045 115.62743473 233.7055815 118.50163633 239.72042847 121.311203 C246.30662687 124.39277467 252.71716087 127.64537643 259.03292847 131.248703 C266.69774122 135.61975963 274.55928559 139.44333964 282.54220581 143.19670105 C289.62924007 146.54141675 296.56636508 150.10482301 303.47531128 153.8009491 C310.5783761 157.58220547 317.82536228 161.00113576 325.15792847 164.311203 C324.86129761 166.18132019 324.86129761 166.18132019 324.15792847 168.311203 C321.64679234 169.9149538 319.25438734 171.25126409 316.59542847 172.561203 C315.83544556 172.94961365 315.07546265 173.33802429 314.29244995 173.73820496 C311.92182621 174.94496544 309.54188701 176.13103038 307.15792847 177.311203 C306.42864136 177.67326843 305.69935425 178.03533386 304.94796753 178.40837097 C298.9301992 181.39514115 298.9301992 181.39514115 296.68893433 182.50163269 C292.25445528 184.7081263 288.03894052 187.14346062 283.82980347 189.7565155 C280.43280325 191.73313259 276.93501083 193.45550476 273.40792847 195.186203 C267.12533754 198.27550966 261.03733897 201.59936366 254.97824097 205.11198425 C243.85267864 211.54887427 232.57623565 217.68535523 221.02560425 223.32292175 C215.35101967 226.13096361 209.95089213 229.33346404 204.52584839 232.59172058 C198.43122319 236.22245688 192.16584283 239.39487929 185.79855347 242.514328 C179.60437388 245.55043883 173.58842164 248.90038019 167.61886597 252.35417175 C166.69581665 252.88687683 166.69581665 252.88687683 165.75411987 253.43034363 C164.00585355 254.44203543 162.26145847 255.4604084 160.51730347 256.47917175 C157.15792847 258.311203 157.15792847 258.311203 153.78683472 259.748703 C149.46917628 261.60775938 145.43801015 263.81964759 141.34542847 266.123703 C140.15348877 266.78910095 140.15348877 266.78910095 138.93746948 267.46794128 C134.08525695 270.18835395 129.28760116 272.97538761 124.59152222 275.9596405 C122.45151328 277.14815269 120.35020218 278.10764661 118.10324097 279.0690155 C112.36804626 281.57539879 107.01165924 284.68686321 101.59542847 287.811203 C95.19255632 291.49024746 88.80343397 295.08945934 82.15792847 298.311203 C74.95385655 301.82196668 67.97895438 305.62831076 61.03292847 309.623703 C53.72392195 313.79559327 46.38865774 317.79968314 38.82369995 321.48527527 C32.67432095 324.49876697 26.72564375 327.84033956 20.77902222 331.233078 C20.17815796 331.57274597 19.5772937 331.91241394 18.95822144 332.26237488 C17.72660796 332.97989746 16.51233485 333.72780328 15.31466675 334.50065613 C10.75117778 337.373006 10.75117778 337.373006 7.72067261 337.05729675 C5.1482175 336.30837584 3.12690446 335.37558604 0.80636597 334.045578 C-0.03088013 333.57442566 -0.86812622 333.10327332 -1.73074341 332.61784363 C-2.63373169 332.10415222 -3.53671997 331.59046082 -4.46707153 331.061203 C-12.95351474 326.32365323 -21.55518108 321.96331902 -30.34207153 317.811203 C-39.76186995 313.35263175 -48.94885906 308.6217536 -58.05252075 303.55168152 C-64.51054712 299.97608798 -71.07568426 296.77003955 -77.77908325 293.68449402 C-84.6683454 290.47837656 -91.29797541 286.86191388 -97.90701294 283.11564636 C-101.54717767 281.06403408 -105.15879505 279.12044569 -108.99832153 277.467453 C-115.04886117 274.85283543 -120.84659571 271.73722724 -126.68432617 268.68574524 C-136.13904437 263.74596761 -145.59249548 258.84632555 -155.27957153 254.373703 C-161.54976401 251.47659552 -167.53874628 248.28595677 -173.51248169 244.82292175 C-180.20539387 240.99745827 -187.15540767 237.75649345 -194.12649536 234.47453308 C-201.23414106 231.11578181 -208.20730769 227.56117341 -215.14358521 223.8634491 C-219.88497413 221.33677801 -224.65056946 218.87891489 -229.46707153 216.498703 C-236.4190895 213.06283269 -243.2861463 209.47334211 -250.15457153 205.873703 C-258.50419135 201.49994296 -266.89089854 197.26758386 -275.47805786 193.37785339 C-279.27733819 191.63316479 -282.84699277 189.73551552 -286.40066528 187.529953 C-293.15177855 183.40084564 -300.32136001 180.12475607 -307.46707153 176.748703 C-323.78627338 169.03622979 -323.78627338 169.03622979 -330.84207153 164.311203 C-329.84207153 161.311203 -329.84207153 161.311203 -327.55154419 159.93595886 C-326.54655884 159.47068787 -325.54157349 159.00541687 -324.50613403 158.52604675 C-323.38851685 158.00043152 -322.27089966 157.47481628 -321.11941528 156.93327332 C-320.52370728 156.65858215 -319.92799927 156.38389099 -319.3142395 156.10087585 C-316.20153792 154.66486146 -313.10443137 153.19594204 -310.00613403 151.72917175 C-309.38740417 151.43716888 -308.76867432 151.14516602 -308.13119507 150.84431458 C-302.95552222 148.39150018 -297.88491824 145.7743737 -292.84207153 143.061203 C-285.97829632 139.38055323 -279.02064805 135.98932644 -271.96072388 132.70256042 C-265.56530039 129.70458248 -259.33600243 126.44461288 -253.1098938 123.11198425 C-247.2467134 119.99553524 -241.29491709 117.12100257 -235.27957153 114.311203 C-228.69337313 111.22963134 -222.28283913 107.97702958 -215.96707153 104.373703 C-208.29939138 100.00101116 -200.43462056 96.17664734 -192.44900513 92.42131042 C-186.24333017 89.49214501 -180.14125139 86.42555112 -174.09207153 83.186203 C-167.14376684 79.4668378 -160.10574453 76.028876 -152.96170044 72.70304871 C-147.37396751 70.08361958 -141.90829519 67.28412496 -136.46707153 64.373703 C-129.8406635 60.83011062 -123.14491823 57.50280843 -116.34207153 54.311203 C-109.58140365 51.13908028 -102.92653091 47.83465953 -96.34207153 44.311203 C-89.75759606 40.78773786 -83.10260573 37.48362998 -76.34207153 34.311203 C-68.81201457 30.7747446 -61.41987119 27.04996976 -54.08084106 23.13371277 C-47.09433494 19.41419959 -40.02398961 15.8767119 -32.92825317 12.37077332 C-28.53601991 10.19200727 -24.17890967 7.97630002 -19.88113403 5.6158905 C-19.11172485 5.19509216 -18.34231567 4.77429382 -17.54959106 4.34074402 C-16.12514061 3.55542158 -14.70632957 2.75973959 -13.29470825 1.95158386 C-8.73306997 -0.56108475 -5.07226242 -1.89664682 0 0 Z " fill="#4CABCE" transform="translate(956.8420715332031,0.6887969970703125)"/>
</svg>
