<svg xmlns="http://www.w3.org/2000/svg" version="1.1" viewBox="49.86 14 126.26 199.1">
<path d="M0 0 C7.26 0 14.52 0 22 0 C23 1 23 1 23.12304783 3.45003605 C23.12212604 4.54789149 23.12120424 5.64574694 23.12025452 6.77687073 C23.12162918 8.03195435 23.12300385 9.28703796 23.12442017 10.58015442 C23.12088055 11.98385644 23.11724574 13.38755822 23.11352539 14.79125977 C23.11324353 16.25936888 23.11340124 17.72747813 23.1139679 19.19558716 C23.1142559 23.19334657 23.10835874 27.19107624 23.10139394 31.18882871 C23.09516085 35.36220733 23.09455664 39.53558656 23.09336853 43.70896912 C23.09025508 51.61732792 23.08204151 59.52567297 23.07201904 67.4340257 C23.06085832 76.43508494 23.05534756 85.43614482 23.05032361 94.43720925 C23.03985891 112.95814752 23.02205879 131.47907216 23 150 C15.41 150 7.82 150 0 150 C0 100.5 0 51 0 0 Z " fill="#1B115A" transform="translate(153,14)"/>
<path d="M0 0 C1.40958984 -0.00193359 1.40958984 -0.00193359 2.84765625 -0.00390625 C3.83636719 -0.00003906 4.82507813 0.00382812 5.84375 0.0078125 C7.32681641 0.00201172 7.32681641 0.00201172 8.83984375 -0.00390625 C9.77957031 -0.00261719 10.71929687 -0.00132813 11.6875 0 C12.55568359 0.00112793 13.42386719 0.00225586 14.31835938 0.00341797 C16.34375 0.1328125 16.34375 0.1328125 17.34375 1.1328125 C17.44254672 3.05412027 17.47007217 4.97910798 17.47073364 6.9029541 C17.47355347 8.15659256 17.47637329 9.41023102 17.47927856 10.70185852 C17.47733397 12.10397353 17.47528578 13.5060884 17.47314453 14.90820312 C17.47449852 16.37469018 17.47627845 17.8411769 17.47845459 19.30766296 C17.48302916 23.3013536 17.48123927 27.29501853 17.4780755 31.28870964 C17.47555202 35.45895332 17.47788941 39.62919472 17.47946167 43.79943848 C17.4812834 50.80395912 17.47887697 57.80846923 17.47412109 64.81298828 C17.46867847 72.92286539 17.47044112 81.03271736 17.4759475 89.14259386 C17.48047853 96.09289278 17.48112923 103.04318411 17.47850883 109.99348402 C17.476946 114.15014527 17.47675245 118.3067947 17.48004532 122.4634552 C17.48292389 126.37037654 17.4809486 130.27726532 17.47515106 134.18418312 C17.47382339 135.62216449 17.47421771 137.06014858 17.47641373 138.49812889 C17.47912491 140.45297526 17.4751307 142.40782759 17.47073364 144.3626709 C17.47035662 145.45922752 17.46997959 146.55578415 17.46959114 147.68556976 C17.34375 150.1328125 17.34375 150.1328125 16.34375 151.1328125 C14.78202255 151.21966853 13.21645656 151.23983469 11.65234375 151.23046875 C10.70810547 151.22724609 9.76386719 151.22402344 8.79101562 151.22070312 C7.79779297 151.21232422 6.80457031 151.20394531 5.78125 151.1953125 C4.78416016 151.19080078 3.78707031 151.18628906 2.75976562 151.18164062 C0.28770151 151.16981257 -2.18424518 151.15333099 -4.65625 151.1328125 C-5.43083292 147.01852888 -5.78173844 143.13541454 -5.78323364 138.95121765 C-5.78605347 137.73277664 -5.78887329 136.51433563 -5.79177856 135.25897217 C-5.78983464 133.92224106 -5.7877865 132.5855101 -5.78564453 131.2487793 C-5.78700059 129.83081518 -5.78878168 128.41285141 -5.79095459 126.99488831 C-5.79550245 123.15644708 -5.79375081 119.31803281 -5.7905755 115.47959113 C-5.78804071 111.46285922 -5.79039234 107.44612959 -5.79196167 103.42939758 C-5.79377904 96.69015082 -5.79138729 89.95091502 -5.78662109 83.21166992 C-5.78116826 75.41126845 -5.78295026 67.61089307 -5.7884475 59.81049222 C-5.7929778 53.11486737 -5.79362992 46.41925041 -5.79100883 39.72362453 C-5.78944701 35.72353329 -5.78924992 31.72345434 -5.79254532 27.72336388 C-5.79542319 23.96821932 -5.79344993 20.21310864 -5.78765106 16.45796776 C-5.78632348 15.07642168 -5.78671755 13.69487276 -5.78891373 12.31332779 C-5.79162499 10.43538257 -5.78763062 8.55743116 -5.78323364 6.67948914 C-5.78285662 5.62629832 -5.78247959 4.57310751 -5.78209114 3.48800182 C-5.55916537 -0.68418217 -3.70153202 0.00480897 0 0 Z " fill="#1B115A" transform="translate(55.65625,61.8671875)"/>
<path d="M0 0 C7.26 0 14.52 0 22 0 C23.54501451 1.54501451 23.12719131 2.9866022 23.12939453 5.13671875 C23.13254669 6.01432861 23.13569885 6.89193848 23.13894653 7.79614258 C23.1369223 8.75029053 23.13489807 9.70443848 23.1328125 10.6875 C23.13424759 12.14675903 23.13424759 12.14675903 23.13571167 13.63549805 C23.13639358 15.696778 23.13453853 17.75806008 23.13037109 19.81933594 C23.125023 22.98637688 23.13031572 26.153276 23.13671875 29.3203125 C23.13605797 31.31770865 23.13477681 33.31510471 23.1328125 35.3125 C23.13483673 36.26664795 23.13686096 37.2207959 23.13894653 38.20385742 C23.13579437 39.08146729 23.13264221 39.95907715 23.12939453 40.86328125 C23.12859894 41.63969971 23.12780334 42.41611816 23.12698364 43.21606445 C23 45 23 45 22 46 C19.05291431 46.10050242 16.13436198 46.13869572 13.1875 46.125 C11.95676758 46.13080078 11.95676758 46.13080078 10.70117188 46.13671875 C9.50911133 46.13478516 9.50911133 46.13478516 8.29296875 46.1328125 C7.20278442 46.13112061 7.20278442 46.13112061 6.09057617 46.12939453 C4 46 4 46 0 45 C0 30.15 0 15.3 0 0 Z " fill="#241B60" transform="translate(119,63)"/>
<path d="M0 0 C7.26 0 14.52 0 22 0 C23 1 23 1 23.12025452 2.79066467 C23.1169236 3.95981667 23.1169236 3.95981667 23.11352539 5.15258789 C23.11344986 6.03342545 23.11337433 6.914263 23.11329651 7.8217926 C23.10813522 8.77907761 23.10297394 9.73636261 23.09765625 10.72265625 C23.0962413 11.69786728 23.09482635 12.67307831 23.09336853 13.67784119 C23.08775133 16.80609143 23.07519593 19.93427123 23.0625 23.0625 C23.05748722 25.17773334 23.05292393 27.29296781 23.04882812 29.40820312 C23.03777631 34.60549296 23.02102146 39.80274145 23 45 C18 46 18 46 0 45 C0 30.15 0 15.3 0 0 Z " fill="#1F145D" transform="translate(119,155)"/>
<path d="M0 0 C7.26 0 14.52 0 22 0 C22 15.18 22 30.36 22 46 C15.07 46 8.14 46 1 46 C0 45 0 45 -0.12025452 43.17137146 C-0.11803391 42.37417191 -0.11581329 41.57697235 -0.11352539 40.75561523 C-0.11344986 39.85475693 -0.11337433 38.95389862 -0.11329651 38.02574158 C-0.10813522 37.04658279 -0.10297394 36.06742401 -0.09765625 35.05859375 C-0.0962413 34.06118668 -0.09482635 33.0637796 -0.09336853 32.03614807 C-0.08775114 28.83656876 -0.07519571 25.63705831 -0.0625 22.4375 C-0.05748724 20.27408955 -0.05292395 18.11067801 -0.04882812 15.94726562 C-0.03862505 10.63146226 -0.01905308 5.31580861 0 0 Z " fill="#120653" transform="translate(85,26)"/>
<path d="M0 0 C7.26 0 14.52 0 22 0 C22 15.18 22 30.36 22 46 C14.74 45.67 7.48 45.34 0 45 C0 30.15 0 15.3 0 0 Z " fill="#1A1059" transform="translate(85,118)"/>
<path d="M0 0 C1.40958984 -0.00193359 1.40958984 -0.00193359 2.84765625 -0.00390625 C3.83636719 -0.00003906 4.82507813 0.00382812 5.84375 0.0078125 C7.32681641 0.00201172 7.32681641 0.00201172 8.83984375 -0.00390625 C9.77957031 -0.00261719 10.71929687 -0.00132813 11.6875 0 C12.55568359 0.00112793 13.42386719 0.00225586 14.31835938 0.00341797 C16.34375 0.1328125 16.34375 0.1328125 17.34375 1.1328125 C17.44274523 2.68236809 17.47454524 4.23634923 17.4765625 5.7890625 C17.47849609 7.19865234 17.47849609 7.19865234 17.48046875 8.63671875 C17.47660156 9.62542969 17.47273438 10.61414063 17.46875 11.6328125 C17.47455078 13.11587891 17.47455078 13.11587891 17.48046875 14.62890625 C17.47917969 15.56863281 17.47789062 16.50835937 17.4765625 17.4765625 C17.47543457 18.34474609 17.47430664 19.21292969 17.47314453 20.10742188 C17.34375 22.1328125 17.34375 22.1328125 16.34375 23.1328125 C14.70902118 23.21981592 13.07060945 23.23982313 11.43359375 23.23046875 C10.44423828 23.22724609 9.45488281 23.22402344 8.43554688 23.22070312 C7.39462891 23.21232422 6.35371094 23.20394531 5.28125 23.1953125 C4.23646484 23.19080078 3.19167969 23.18628906 2.11523438 23.18164062 C-0.4753166 23.16981163 -3.06575559 23.15332939 -5.65625 23.1328125 C-5.68512512 19.48699563 -5.70300585 15.84120787 -5.71875 12.1953125 C-5.72712891 11.15439453 -5.73550781 10.11347656 -5.74414062 9.04101562 C-5.74897461 7.55698242 -5.74897461 7.55698242 -5.75390625 6.04296875 C-5.75914307 5.12652588 -5.76437988 4.21008301 -5.76977539 3.26586914 C-5.55776486 -0.71764922 -3.47735337 0.00451772 0 0 Z " fill="#EA2998" transform="translate(124.65625,119.8671875)"/>
<path d="M0 0 C7.26 0 14.52 0 22 0 C22 7.26 22 14.52 22 22 C14.74 22 7.48 22 0 22 C0 14.74 0 7.48 0 0 Z " fill="#FFCD14" transform="translate(85,84)"/>
<path d="M0 0 C7.26 0 14.52 0 22 0 C22 14.52 22 29.04 22 44 C21.67 44 21.34 44 21 44 C21 30.14 21 16.28 21 2 C14.73 2 8.46 2 2 2 C2 15.86 2 29.72 2 44 C6.95 44 11.9 44 17 44 C17 44.33 17 44.66 17 45 C11.39 45 5.78 45 0 45 C0 30.15 0 15.3 0 0 Z " fill="#33326D" transform="translate(119,155)"/>
<path d="M0 0 C7.26 0 14.52 0 22 0 C21.67 0.66 21.34 1.32 21 2 C14.73 2 8.46 2 2 2 C2 15.86 2 29.72 2 44 C8.27 44 14.54 44 21 44 C21.33 44.66 21.66 45.32 22 46 C18.52085059 46.02887814 15.04173169 46.04675687 11.5625 46.0625 C10.07266602 46.07506836 10.07266602 46.07506836 8.55273438 46.08789062 C7.60849609 46.09111328 6.66425781 46.09433594 5.69140625 46.09765625 C4.81685791 46.10289307 3.94230957 46.10812988 3.04125977 46.11352539 C1 46 1 46 0 45 C-0.0928726 43.58774954 -0.11746772 42.17091066 -0.11352539 40.75561523 C-0.11344986 39.85475693 -0.11337433 38.95389862 -0.11329651 38.02574158 C-0.10813522 37.04658279 -0.10297394 36.06742401 -0.09765625 35.05859375 C-0.0962413 34.06118668 -0.09482635 33.0637796 -0.09336853 32.03614807 C-0.08775114 28.83656876 -0.07519571 25.63705831 -0.0625 22.4375 C-0.05748724 20.27408955 -0.05292395 18.11067801 -0.04882812 15.94726562 C-0.03862505 10.63146226 -0.01905308 5.31580861 0 0 Z " fill="#5C5B8B" transform="translate(85,26)"/>
</svg>