<?xml version="1.0" encoding="UTF-8"?>
<svg version="1.1" xmlns="http://www.w3.org/2000/svg" width="2048" height="2048">
<path d="M0 0 C0.96334868 -0.00235223 1.92669736 -0.00470446 2.91923842 -0.00712797 C6.16635801 -0.01381617 9.41343757 -0.0133598 12.66056347 -0.01294994 C15.00461249 -0.01624869 17.34866094 -0.01997428 19.69270867 -0.02409142 C25.47171185 -0.03306606 31.25070532 -0.03733892 37.02971472 -0.03961039 C43.95129087 -0.04257339 50.87285687 -0.05127147 57.7944277 -0.06002467 C74.52614666 -0.08086776 91.25786738 -0.09133927 107.9895963 -0.10015428 C115.90696895 -0.10436161 123.82434085 -0.10958354 131.74171286 -0.11483881 C158.84964979 -0.13273028 185.95758693 -0.14772514 213.06552887 -0.155159 C214.76738525 -0.15563375 216.46924163 -0.15610964 218.17109801 -0.15658666 C219.01505869 -0.15682303 219.85901937 -0.15705941 220.72855463 -0.15730295 C225.00440877 -0.15850414 229.28026292 -0.15971959 233.55611706 -0.16094494 C234.40467082 -0.16118509 235.25322458 -0.16142524 236.12749208 -0.16167267 C263.62829241 -0.16956237 291.12904957 -0.19298675 318.62983105 -0.22550088 C347.71212356 -0.25982196 376.79439082 -0.27951232 405.87670392 -0.28280324 C409.0712911 -0.28322077 412.26587827 -0.28370033 415.46046543 -0.28422642 C416.24704994 -0.28434961 417.03363444 -0.2844728 417.84405484 -0.28459973 C430.48730326 -0.28692909 443.13050145 -0.30257448 455.77373199 -0.32306826 C468.4911295 -0.34335463 481.20846686 -0.34879032 493.92587755 -0.33929763 C500.81183265 -0.33455018 507.69763941 -0.33611621 514.58357143 -0.35605907 C520.89362728 -0.37369333 527.20340181 -0.37269042 533.51346066 -0.35716178 C535.79016566 -0.35478614 538.06689016 -0.35910686 540.34356538 -0.37099043 C555.90193644 -0.44713738 570.74607898 0.26989806 584.7775526 7.82172108 C585.43175182 8.16203358 586.08595104 8.50234608 586.75997448 8.85297108 C606.8177795 19.61569572 622.23720649 37.41493599 628.8869276 59.33343983 C632.15886422 71.33568309 632.67728569 83.16619616 632.65405244 95.56225699 C632.6551717 96.89596684 632.65672847 98.22967638 632.65867834 99.56338527 C632.66276483 103.22148887 632.66066376 106.87956638 632.65753247 110.53766995 C632.6552229 114.53484664 632.65874038 118.53201904 632.66149929 122.52919486 C632.66554917 129.55945404 632.66588065 136.58970583 632.66379335 143.61996575 C632.6606857 154.14461427 632.66333161 164.669256 632.66709206 175.19390403 C632.67332913 193.13107833 632.67479767 211.06825023 632.67367458 229.00542545 C632.67255061 247.18562809 632.67358255 265.36582868 632.67724705 283.546031 C632.6774767 284.69386747 632.67770635 285.84170394 632.67794297 287.02432333 C632.67888459 291.69921195 632.67984028 296.37410056 632.68081416 301.04898917 C632.69096202 349.83296644 632.69402027 398.61694256 632.69460627 447.40092077 C632.69467101 452.65296699 632.69473895 457.90501321 632.69480968 463.15705943 C632.69482668 464.4603392 632.69484368 465.76361897 632.6948612 467.10639206 C632.69526954 495.97766907 632.69745904 524.84894586 632.69996552 553.72022275 C632.70099386 565.6056674 632.70198389 577.49111205 632.70298177 589.37655669 C632.70314765 591.34637014 632.70314765 591.34637014 632.70331689 593.3559778 C632.70591623 624.28670421 632.70814906 655.21743065 632.70999908 686.14815712 C632.71003945 686.82209346 632.71007983 687.49602981 632.71012142 688.19038847 C632.71268453 731.13586723 632.71358392 774.08134586 632.71332109 817.0268247 C632.71330833 819.1385718 632.71329637 821.25031891 632.71328467 823.36206601 C632.71320233 838.19791222 632.71309962 853.03375843 632.71299179 867.86960464 C632.71296103 872.12335224 632.71293096 876.37709983 632.71290098 880.63084742 C632.71287589 884.1790276 632.7128501 887.72720777 632.71282287 891.27538795 C632.71231144 958.29223672 632.71372945 1025.3090843 632.72317028 1092.3259325 C632.72326964 1093.03149579 632.723369 1093.73705907 632.72347137 1094.46400306 C632.72658273 1116.50926782 632.72994922 1138.55453254 632.73336315 1160.59979725 C632.73686459 1183.22011883 632.74033506 1205.84044041 632.74362755 1228.46076202 C632.74377984 1229.50551082 632.74377984 1229.50551082 632.7439352 1230.57136566 C632.75028461 1274.19301686 632.75420627 1317.81466771 632.75548553 1361.43631935 C632.75550556 1362.11006603 632.75552559 1362.78381271 632.75554622 1363.47797596 C632.75644119 1393.73133437 632.75672764 1423.98469276 632.75643622 1454.23805119 C632.75633973 1464.81950205 632.75628769 1475.40095291 632.75625749 1485.98240378 C632.75624958 1488.61484944 632.75623937 1491.24729511 632.75622687 1493.87974077 C632.75605047 1535.84428769 632.76175174 1577.80883124 632.77038068 1619.7733772 C632.77902614 1662.03299923 632.78122571 1704.29261659 632.77461936 1746.55223914 C632.77370705 1752.38996137 632.77286377 1758.2276836 632.77206135 1764.06540585 C632.77182122 1765.78195561 632.77182122 1765.78195561 632.77157623 1767.53318314 C632.76922194 1785.66342288 632.77358379 1803.79365454 632.78073253 1821.92389275 C632.78761934 1839.74543619 632.78738393 1857.56696769 632.7795404 1875.38851086 C632.77515407 1885.8401564 632.77624237 1896.29176679 632.78540718 1906.74340943 C632.79094761 1913.68479414 632.78923352 1920.62615262 632.7816244 1927.56753531 C632.77751386 1931.50233234 632.77647074 1935.43706019 632.78437509 1939.37185298 C632.84766136 1973.09686145 630.23040364 2000.33415979 606.1525526 2025.82172108 C599.8459976 2031.86021223 592.60102626 2036.29214692 584.9025526 2040.32172108 C584.31288708 2040.64261707 583.72322155 2040.96351307 583.11568737 2041.29413319 C568.33941355 2048.73703974 552.8331477 2048.7086177 536.70792675 2048.63758564 C534.30310718 2048.64176343 531.89829013 2048.64769232 529.49347866 2048.6552031 C524.26880657 2048.66750961 519.04428627 2048.66750268 513.81961763 2048.65646893 C505.99811677 2048.64002596 498.17675033 2048.64683121 490.35524625 2048.65799949 C477.02190209 2048.67636263 463.68861905 2048.67581749 450.35526943 2048.66487598 C436.84873371 2048.65385997 423.34223819 2048.65155842 409.83570004 2048.65982533 C408.98171159 2048.66034202 408.12772314 2048.66085871 407.24785626 2048.66139105 C403.76953229 2048.6635242 400.29120836 2048.66571905 396.81288447 2048.66799216 C364.43532598 2048.68913619 332.05779444 2048.69059018 299.68023205 2048.67940235 C298.72133213 2048.67907117 297.7624322 2048.67873999 296.77447471 2048.67839877 C295.33381814 2048.67790119 295.33381814 2048.67790119 293.86405739 2048.67739356 C264.60048817 2048.66729975 235.33693009 2048.66469576 206.07335949 2048.66948414 C204.11352479 2048.66979406 202.15369009 2048.67010268 200.19385538 2048.67041002 C192.31803613 2048.67165189 184.44221689 2048.67292656 176.56639766 2048.67424907 C154.55040274 2048.67791705 132.53440778 2048.68019949 110.51841259 2048.68139362 C109.51586732 2048.68144821 108.51332205 2048.68150279 107.48039662 2048.68155903 C75.53631032 2048.68319607 43.5922279 2048.67868894 11.64814281 2048.66999531 C10.61210842 2048.66971431 9.57607403 2048.66943332 8.50864466 2048.6691438 C-8.3157434 2048.66456405 -25.14013138 2048.65968618 -41.96451936 2048.65478311 C-108.69145664 2048.63535786 -175.41836182 2048.63625947 -242.14529896 2048.65570545 C-258.96121181 2048.66059024 -275.77712466 2048.66543445 -292.59303761 2048.66999531 C-294.14617595 2048.670418 -294.14617595 2048.670418 -295.73069082 2048.67084923 C-327.64156352 2048.67947431 -359.55243355 2048.683131 -391.46330738 2048.68139362 C-392.46511589 2048.68133929 -393.4669244 2048.68128495 -394.49909074 2048.68122897 C-416.49065105 2048.67997904 -438.48221109 2048.67744445 -460.47377112 2048.67375161 C-468.34253745 2048.67243505 -476.21130378 2048.67118273 -484.08007012 2048.66994877 C-486.03760328 2048.66963921 -487.99513643 2048.66932429 -489.95266957 2048.66900398 C-519.20824092 2048.66423012 -548.46379972 2048.66829441 -577.7193695 2048.67839877 C-579.15771938 2048.67889554 -579.15771938 2048.67889554 -580.62512684 2048.67940235 C-581.58225682 2048.67973308 -582.5393868 2048.68006381 -583.52552072 2048.68040456 C-615.80992072 2048.69143821 -648.09428842 2048.68737747 -680.37868381 2048.66627938 C-683.84598744 2048.66406997 -687.31329112 2048.66192316 -690.78059483 2048.65982533 C-691.6315265 2048.6593045 -692.48245818 2048.65878367 -693.35917567 2048.65824706 C-706.82889164 2048.65035985 -720.29856741 2048.65584795 -733.76827976 2048.66690135 C-747.01532354 2048.67748679 -760.26229953 2048.67376038 -773.50933472 2048.654845 C-781.27355441 2048.64418111 -789.03758816 2048.64437448 -796.80179892 2048.66077139 C-802.57014625 2048.67172521 -808.33830815 2048.66176209 -814.10663079 2048.64374629 C-816.42257861 2048.63972289 -818.73855029 2048.64236831 -821.05447914 2048.65257004 C-836.69251767 2048.71655918 -851.61710982 2048.03829811 -865.7224474 2040.44672108 C-866.37664661 2040.10640858 -867.03084583 2039.76609608 -867.70486927 2039.41547108 C-887.76267429 2028.65274643 -903.18210128 2010.85350616 -909.8318224 1988.93500233 C-913.22191977 1976.49931722 -913.62149071 1964.23289729 -913.60108185 1951.39444923 C-913.60243058 1949.91980221 -913.60421565 1948.44515553 -913.60639408 1946.9705095 C-913.61110429 1942.92726468 -913.60962886 1938.8840425 -913.60711631 1934.8407966 C-913.60547888 1930.43849734 -913.60962769 1926.03620284 -913.61302549 1921.63390511 C-913.61817384 1913.92108136 -913.61959767 1906.20826388 -913.61856937 1898.49543858 C-913.61704397 1887.02592291 -913.62120726 1875.55641418 -913.626444 1864.08689987 C-913.63611473 1842.4099731 -913.63892813 1820.73304869 -913.63950106 1799.05612002 C-913.6399606 1782.31643356 -913.64201892 1765.57674803 -913.64520168 1748.83706188 C-913.64609923 1744.01858511 -913.64698904 1739.20010833 -913.64787656 1734.38163155 C-913.64809761 1733.18374578 -913.64831866 1731.98586001 -913.6485464 1730.75167467 C-913.65470055 1697.05763064 -913.65864697 1663.36358693 -913.65820312 1629.66954231 C-913.65818755 1628.39921216 -913.65817197 1627.12888201 -913.65815592 1625.820057 C-913.65807281 1619.38149112 -913.65797377 1612.94292523 -913.65787121 1606.50435934 C-913.65785126 1605.22563612 -913.65783132 1603.94691291 -913.65781077 1602.6294405 C-913.65777033 1600.04355081 -913.65772853 1597.45766113 -913.65768538 1594.87177144 C-913.65707259 1554.63739232 -913.66457984 1514.40302162 -913.67825794 1474.16864491 C-913.69361874 1428.96596393 -913.70222417 1383.7632885 -913.70129472 1338.56060475 C-913.70122009 1333.7405562 -913.70117138 1328.92050765 -913.7011404 1324.1004591 C-913.70112875 1322.91363996 -913.7011171 1321.72682082 -913.70110509 1320.50403746 C-913.70107432 1301.40623674 -913.70745978 1282.30844333 -913.71607267 1263.21064478 C-913.72454978 1244.0169524 -913.72553863 1224.82327072 -913.71896335 1205.6295775 C-913.71526816 1194.22845126 -913.71709915 1182.82735753 -913.72690569 1171.42623474 C-913.73290568 1163.80653192 -913.73160999 1156.18685265 -913.72443519 1148.56715091 C-913.7205539 1144.2284231 -913.71977747 1139.88975822 -913.72789254 1135.55103485 C-913.73522582 1131.59554659 -913.73317157 1127.64017307 -913.72396867 1123.68468974 C-913.72226259 1122.27079777 -913.72382519 1120.85689656 -913.72926988 1119.44301404 C-913.83232834 1090.73284248 -907.05246361 1067.57006376 -887.0974474 1046.44672108 C-880.79089239 1040.40822993 -873.54592105 1035.97629524 -865.8474474 1031.94672108 C-865.25778187 1031.62582508 -864.66811634 1031.30492908 -864.06058216 1030.97430897 C-852.3684201 1025.08488984 -839.51297736 1023.53570459 -826.60269642 1023.65320301 C-825.18232749 1023.65145279 -823.76195986 1023.64793968 -822.34159899 1023.64284635 C-818.48964104 1023.63401064 -814.63813806 1023.64974994 -810.78623796 1023.66995859 C-806.61333926 1023.68738634 -802.44046202 1023.68137617 -798.26753712 1023.67834949 C-791.05461619 1023.67626173 -783.84184106 1023.68871028 -776.62895679 1023.71130085 C-766.20062502 1023.74394069 -755.77236305 1023.75424007 -745.34398574 1023.75925282 C-728.42078335 1023.76798676 -711.49765851 1023.79455052 -694.57449818 1023.83246326 C-678.14448908 1023.86923271 -661.71450111 1023.89752027 -645.28445911 1023.91449451 C-643.76291624 1023.91607086 -643.76291624 1023.91607086 -642.21063513 1023.91767904 C-637.12139711 1023.92289955 -632.03215895 1023.9279543 -626.94292068 1023.93292665 C-584.78604235 1023.97432945 -542.62924933 1024.04472583 -500.4724474 1024.13422108 C-500.47320684 1023.21909036 -500.47396628 1022.30395964 -500.47474873 1021.36109769 C-500.51951753 967.10735211 -500.55382692 912.85360848 -500.57457805 858.59984811 C-500.57707943 852.08363647 -500.57966808 845.56742486 -500.58231068 839.05121326 C-500.58309761 837.10534564 -500.58309761 837.10534564 -500.58390044 835.12016757 C-500.59259995 814.12310847 -500.60836744 793.12606034 -500.62675299 772.12900774 C-500.64546463 750.57960435 -500.6565668 729.03020669 -500.66062438 707.4807955 C-500.66336681 694.1866951 -500.6720246 680.8926257 -500.68828033 667.59853484 C-500.69886281 658.47881352 -500.70204515 649.35910819 -500.69945015 640.23938118 C-500.69817084 634.98003351 -500.70011411 629.72073996 -500.71085835 624.46140194 C-500.72063634 619.63967219 -500.72105292 614.81803264 -500.71424519 609.99629863 C-500.71340457 608.25850875 -500.71590291 606.52071309 -500.72221376 604.78293447 C-500.81607636 577.32403138 -494.48212364 553.81356962 -474.99197865 533.55609608 C-460.25409919 519.77887331 -441.22604212 510.86850792 -420.9724474 509.88422108 C-416.75277138 509.49918546 -413.29220705 507.78504946 -409.5349474 505.94672108 C-397.19376527 499.92958103 -384.59929275 496.15755103 -371.1599474 493.38422108 C-370.21393665 493.18554432 -369.26792591 492.98686756 -368.29324818 492.7821703 C-351.69348838 489.55835274 -334.71643426 488.81569333 -317.84817982 488.51532459 C-315.99362952 488.47730224 -314.13907982 488.43925134 -312.28453064 488.40117455 C-290.49154891 487.98102247 -268.69577713 488.00498446 -246.89968228 488.03282714 C-241.01689007 488.03922096 -235.13409692 488.03967679 -229.25130177 488.04085255 C-218.1887807 488.04391986 -207.12626991 488.05206893 -196.06375331 488.06220204 C-183.43663744 488.07350898 -170.809521 488.07890977 -158.1824013 488.08389747 C-132.27907732 488.09425728 -106.37576386 488.112363 -80.4724474 488.13422108 C-80.47396628 487.26005322 -80.47548516 486.38588537 -80.47705007 485.48522758 C-80.56661358 433.64465026 -80.63521951 381.80408116 -80.67670871 329.96344191 C-80.68171138 323.73521192 -80.68688869 317.50698208 -80.69217396 311.27875233 C-80.69374782 309.41890416 -80.69374782 309.41890416 -80.69535348 307.5214833 C-80.7127462 287.46016982 -80.74427767 267.39890232 -80.78105858 247.33761609 C-80.81849948 226.74419571 -80.84068991 206.15079936 -80.84880137 185.55734634 C-80.8542826 172.85590129 -80.87157823 160.15458619 -80.90411326 147.45318115 C-80.92530001 138.73664307 -80.93163802 130.02017191 -80.9264529 121.30360997 C-80.92389762 116.27887758 -80.92774184 111.25437187 -80.94926929 106.22968006 C-80.9688737 101.61993647 -80.96962822 97.01056993 -80.95604298 92.40080822 C-80.95436636 90.7423842 -80.95932223 89.08393572 -80.97198012 87.42555916 C-81.15026802 62.60252703 -72.90490966 40.95651792 -55.4568224 22.95843983 C-40.82348251 8.63117577 -20.39085792 -0.03373487 0 0 Z " fill="#EDC349" transform="translate(1164.4724473953247,-0.13422107696533203)"/>
<path d="M0 0 C0.96334868 -0.00235223 1.92669736 -0.00470446 2.91923842 -0.00712797 C6.16635801 -0.01381617 9.41343757 -0.0133598 12.66056347 -0.01294994 C15.00461249 -0.01624869 17.34866094 -0.01997428 19.69270867 -0.02409142 C25.47171185 -0.03306606 31.25070532 -0.03733892 37.02971472 -0.03961039 C43.95129087 -0.04257339 50.87285687 -0.05127147 57.7944277 -0.06002467 C74.52614666 -0.08086776 91.25786738 -0.09133927 107.9895963 -0.10015428 C115.90696895 -0.10436161 123.82434085 -0.10958354 131.74171286 -0.11483881 C158.84964979 -0.13273028 185.95758693 -0.14772514 213.06552887 -0.155159 C214.76738525 -0.15563375 216.46924163 -0.15610964 218.17109801 -0.15658666 C219.43703903 -0.15694122 219.43703903 -0.15694122 220.72855463 -0.15730295 C225.00440877 -0.15850414 229.28026292 -0.15971959 233.55611706 -0.16094494 C234.40467082 -0.16118509 235.25322458 -0.16142524 236.12749208 -0.16167267 C263.62829241 -0.16956237 291.12904957 -0.19298675 318.62983105 -0.22550088 C347.71212356 -0.25982196 376.79439082 -0.27951232 405.87670392 -0.28280324 C409.0712911 -0.28322077 412.26587827 -0.28370033 415.46046543 -0.28422642 C416.24704994 -0.28434961 417.03363444 -0.2844728 417.84405484 -0.28459973 C430.48730326 -0.28692909 443.13050145 -0.30257448 455.77373199 -0.32306826 C468.4911295 -0.34335463 481.20846686 -0.34879032 493.92587755 -0.33929763 C500.81183265 -0.33455018 507.69763941 -0.33611621 514.58357143 -0.35605907 C520.89362728 -0.37369333 527.20340181 -0.37269042 533.51346066 -0.35716178 C535.79016566 -0.35478614 538.06689016 -0.35910686 540.34356538 -0.37099043 C555.90193644 -0.44713738 570.74607898 0.26989806 584.7775526 7.82172108 C585.43175182 8.16203358 586.08595104 8.50234608 586.75997448 8.85297108 C606.8177795 19.61569572 622.23720649 37.41493599 628.8869276 59.33343983 C632.15886422 71.33568309 632.67728569 83.16619616 632.65405244 95.56225699 C632.6551717 96.89596684 632.65672847 98.22967638 632.65867834 99.56338527 C632.66276483 103.22148887 632.66066376 106.87956638 632.65753247 110.53766995 C632.6552229 114.53484664 632.65874038 118.53201904 632.66149929 122.52919486 C632.66554917 129.55945404 632.66588065 136.58970583 632.66379335 143.61996575 C632.6606857 154.14461427 632.66333161 164.669256 632.66709206 175.19390403 C632.67332913 193.13107833 632.67479767 211.06825023 632.67367458 229.00542545 C632.67255061 247.18562809 632.67358255 265.36582868 632.67724705 283.546031 C632.6774767 284.69386747 632.67770635 285.84170394 632.67794297 287.02432333 C632.67888459 291.69921195 632.67984028 296.37410056 632.68081416 301.04898917 C632.69096202 349.83296644 632.69402027 398.61694256 632.69460627 447.40092077 C632.69467101 452.65296699 632.69473895 457.90501321 632.69480968 463.15705943 C632.69482668 464.4603392 632.69484368 465.76361897 632.6948612 467.10639206 C632.69526954 495.97766907 632.69745904 524.84894586 632.69996552 553.72022275 C632.70099386 565.6056674 632.70198389 577.49111205 632.70298177 589.37655669 C632.70314765 591.34637014 632.70314765 591.34637014 632.70331689 593.3559778 C632.70591623 624.28670421 632.70814906 655.21743065 632.70999908 686.14815712 C632.71003945 686.82209346 632.71007983 687.49602981 632.71012142 688.19038847 C632.71268453 731.13586723 632.71358392 774.08134586 632.71332109 817.0268247 C632.71330833 819.1385718 632.71329637 821.25031891 632.71328467 823.36206601 C632.71320233 838.19791222 632.71309962 853.03375843 632.71299179 867.86960464 C632.71296103 872.12335224 632.71293096 876.37709983 632.71290098 880.63084742 C632.71287589 884.1790276 632.7128501 887.72720777 632.71282287 891.27538795 C632.71231144 958.29223672 632.71372945 1025.3090843 632.72317028 1092.3259325 C632.72326964 1093.03149579 632.723369 1093.73705907 632.72347137 1094.46400306 C632.72658273 1116.50926782 632.72994922 1138.55453254 632.73336315 1160.59979725 C632.73686459 1183.22011883 632.74033506 1205.84044041 632.74362755 1228.46076202 C632.74377984 1229.50551082 632.74377984 1229.50551082 632.7439352 1230.57136566 C632.75028461 1274.19301686 632.75420627 1317.81466771 632.75548553 1361.43631935 C632.75550556 1362.11006603 632.75552559 1362.78381271 632.75554622 1363.47797596 C632.75644119 1393.73133437 632.75672764 1423.98469276 632.75643622 1454.23805119 C632.75633973 1464.81950205 632.75628769 1475.40095291 632.75625749 1485.98240378 C632.75624958 1488.61484944 632.75623937 1491.24729511 632.75622687 1493.87974077 C632.75605047 1535.84428769 632.76175174 1577.80883124 632.77038068 1619.7733772 C632.77902614 1662.03299923 632.78122571 1704.29261659 632.77461936 1746.55223914 C632.77370705 1752.38996137 632.77286377 1758.2276836 632.77206135 1764.06540585 C632.77182122 1765.78195561 632.77182122 1765.78195561 632.77157623 1767.53318314 C632.76922194 1785.66342288 632.77358379 1803.79365454 632.78073253 1821.92389275 C632.78761934 1839.74543619 632.78738393 1857.56696769 632.7795404 1875.38851086 C632.77515407 1885.8401564 632.77624237 1896.29176679 632.78540718 1906.74340943 C632.79094761 1913.68479414 632.78923352 1920.62615262 632.7816244 1927.56753531 C632.77751386 1931.50233234 632.77647074 1935.43706019 632.78437509 1939.37185298 C632.84766136 1973.09686145 630.23040364 2000.33415979 606.1525526 2025.82172108 C599.8459976 2031.86021223 592.60102626 2036.29214692 584.9025526 2040.32172108 C584.31288708 2040.64261707 583.72322155 2040.96351307 583.11568737 2041.29413319 C571.31241691 2047.23951835 558.38254851 2048.73099848 545.35409069 2048.61523914 C543.90072343 2048.61698917 542.44735744 2048.62050193 540.99399805 2048.62559581 C537.0508316 2048.63443525 533.10810924 2048.61868681 529.16499925 2048.59848356 C524.89394004 2048.58106142 520.62290192 2048.5870656 516.35181713 2048.59009266 C508.96865023 2048.59218077 501.58562572 2048.57972854 494.20249462 2048.5571413 C483.5280103 2048.52450624 472.8535942 2048.51420257 462.17906541 2048.50918934 C444.85654955 2048.50045465 427.53410942 2048.47388886 410.21163464 2048.43597889 C393.39360461 2048.39921137 376.57559522 2048.37092286 359.75753307 2048.35394764 C358.71927519 2048.35289675 357.68101731 2048.35184585 356.61129707 2048.35076311 C351.40218648 2048.34554262 346.19307575 2048.34048787 340.98396492 2048.3355155 C297.83177505 2048.29411039 254.67966775 2048.22371197 211.5275526 2048.13422108 C211.52825452 2046.2323971 211.52825452 2046.2323971 211.52897061 2044.29215243 C211.54496976 2000.88062214 211.56030144 1957.46909162 211.57516003 1914.05756092 C211.57545942 1913.18301321 211.57575881 1912.3084655 211.57606728 1911.40741635 C211.60812772 1817.70271522 211.63579741 1723.99801401 211.65458202 1630.29330921 C211.65500038 1628.21198272 211.65541873 1626.13065623 211.65583709 1624.04932974 C211.66460506 1580.36217437 211.67275522 1536.67501891 211.68019164 1492.98786329 C211.68392784 1471.04250595 211.68778276 1449.09714864 211.69174993 1427.15179134 C211.69234767 1423.84140766 211.69294203 1420.53102398 211.69353625 1417.2206403 C211.70271668 1366.24267458 211.71444403 1315.264711 211.73354626 1264.28674793 C211.73395695 1263.19059521 211.73436765 1262.09444248 211.73479079 1260.965073 C211.74142794 1243.29173633 211.74827876 1225.61839974 211.75515793 1207.94506316 C211.77496771 1157.04318937 211.79319877 1106.14131723 211.80097198 1055.23943996 C211.80113259 1054.19277852 211.8012932 1053.14611708 211.80145867 1052.06773863 C211.80495588 1029.09149185 211.80764048 1006.11524504 211.80955555 983.13899808 C211.81034042 973.8942582 211.81124228 964.64951834 211.81218433 955.40477848 C211.81228462 954.39297931 211.8123849 953.38118014 211.81248822 952.33872039 C211.815778 919.73346281 211.82859272 887.1282175 211.84639923 854.52296487 C211.86429154 821.68082278 211.87285088 788.8386926 211.86842457 755.99654551 C211.86781532 751.45871049 211.86731318 746.92087547 211.86687565 742.38304043 C211.86678601 741.49349083 211.86669637 740.60394124 211.86660401 739.68743559 C211.86546179 725.59850606 211.87441784 711.50960171 211.88758219 697.42067904 C211.90031776 683.5687309 211.90237194 669.71681544 211.89304805 655.86486422 C211.88790352 647.74275757 211.89097271 639.62075451 211.90620361 631.49865994 C211.91659387 625.46910812 211.91133081 619.43967686 211.89997253 613.41012233 C211.89782853 610.98567535 211.90072314 608.56121736 211.90925834 606.13678445 C211.99979394 578.68080275 206.33161446 555.16539144 186.99239635 534.60785389 C174.92018371 522.46320796 159.00509943 515.68662764 142.5275526 512.13422108 C141.47754101 511.86962065 141.47754101 511.86962065 140.40631706 511.59967476 C136.3500762 510.94384054 132.36289326 510.99076459 128.26029015 510.99555588 C127.3191619 510.99271366 126.37803366 510.98987144 125.40838638 510.9869431 C122.23701469 510.97858386 119.06567947 510.97732692 115.8942976 510.97600269 C113.60484204 510.97143818 111.31538731 510.96643832 109.02593356 510.96103913 C102.72076025 510.947436 96.41559235 510.94003336 90.11040819 510.93361247 C84.01358318 510.92692334 77.9167682 510.91461496 71.81995122 510.90289444 C59.34675939 510.87907715 46.87356443 510.8598758 34.40036106 510.8432951 C22.04834787 510.82686044 9.69634054 510.80838036 -2.6556654 510.78716183 C-3.42335782 510.78584422 -4.19105023 510.78452661 -4.98200606 510.78316908 C-8.8806462 510.7764671 -12.77928627 510.76972851 -16.67792632 510.76297582 C-44.29993874 510.71519866 -71.92195661 510.67201768 -99.5439806 510.63153553 C-126.38024766 510.59219445 -153.2165102 510.55077406 -180.05276966 510.50653553 C-180.87981901 510.505173 -181.70686835 510.50381047 -182.5589798 510.50240665 C-190.86446532 510.48872141 -199.16995077 510.47499386 -207.47543617 510.46123531 C-224.39502769 510.43320793 -241.31461966 510.40546294 -258.23421192 510.37788868 C-259.01216634 510.37662048 -259.79012075 510.37535228 -260.59164954 510.37404565 C-312.55190814 510.2893739 -364.51217705 510.21130579 -416.4724474 510.13422108 C-390.51980944 490.30166823 -349.4825964 489.26063098 -318.34817982 488.57782459 C-317.42525713 488.55681474 -316.50233445 488.53580488 -315.55144441 488.51415837 C-292.66849374 488.00375354 -269.78717265 488.00359029 -246.89968228 488.03282714 C-241.01689007 488.03922096 -235.13409692 488.03967679 -229.25130177 488.04085255 C-218.1887807 488.04391986 -207.12626991 488.05206893 -196.06375331 488.06220204 C-183.43663744 488.07350898 -170.809521 488.07890977 -158.1824013 488.08389747 C-132.27907732 488.09425728 -106.37576386 488.112363 -80.4724474 488.13422108 C-80.47396628 487.26005322 -80.47548516 486.38588537 -80.47705007 485.48522758 C-80.56661358 433.64465026 -80.63521951 381.80408116 -80.67670871 329.96344191 C-80.68171138 323.73521192 -80.68688869 317.50698208 -80.69217396 311.27875233 C-80.6932232 310.03885355 -80.69427244 308.79895477 -80.69535348 307.5214833 C-80.7127462 287.46016982 -80.74427767 267.39890232 -80.78105858 247.33761609 C-80.81849948 226.74419571 -80.84068991 206.15079936 -80.84880137 185.55734634 C-80.8542826 172.85590129 -80.87157823 160.15458619 -80.90411326 147.45318115 C-80.92530001 138.73664307 -80.93163802 130.02017191 -80.9264529 121.30360997 C-80.92389762 116.27887758 -80.92774184 111.25437187 -80.94926929 106.22968006 C-80.9688737 101.61993647 -80.96962822 97.01056993 -80.95604298 92.40080822 C-80.95436636 90.7423842 -80.95932223 89.08393572 -80.97198012 87.42555916 C-81.15026802 62.60252703 -72.90490966 40.95651792 -55.4568224 22.95843983 C-40.82348251 8.63117577 -20.39085792 -0.03373487 0 0 Z " fill="#D08C0B" transform="translate(1164.4724473953247,-0.13422107696533203)"/>
<path d="M0 0 C2.34942113 -0.00461554 4.69883937 -0.01097283 7.04825163 -0.01890898 C12.79790869 -0.03379814 18.54734298 -0.03026817 24.2970028 -0.01870592 C31.19225479 -0.00588641 38.08742342 -0.01643648 44.98267134 -0.02755357 C58.49032371 -0.04856286 71.99790018 -0.04681244 85.5055597 -0.03523792 C97.32662616 -0.02515887 109.14766486 -0.02255671 120.96873474 -0.02732849 C121.75414423 -0.02763403 122.53955372 -0.02793957 123.34876349 -0.02825437 C126.53733564 -0.02949981 129.72590778 -0.03077342 132.91447989 -0.03209343 C162.79991226 -0.0443178 192.6852964 -0.03325405 222.57072132 -0.01170584 C249.09750704 0.0072753 275.62421593 0.00557673 302.15100098 -0.0135498 C331.98324972 -0.03498799 361.8154559 -0.04345071 391.64771128 -0.03110075 C394.83033147 -0.02981796 398.01295168 -0.0285666 401.1955719 -0.02732849 C401.97916175 -0.02701218 402.7627516 -0.02669587 403.57008659 -0.02636998 C415.38108161 -0.0218282 427.19204576 -0.02712603 439.0030365 -0.0372467 C452.43837499 -0.04870215 465.873626 -0.04578527 479.30895364 -0.02412373 C486.16054626 -0.01344015 493.01199707 -0.00894216 499.86358833 -0.02272034 C506.14176404 -0.03468313 512.4196405 -0.02801728 518.69778925 -0.00681013 C520.96271901 -0.00236057 523.22767432 -0.00457302 525.49258751 -0.01431328 C541.05437255 -0.07607676 555.8792216 0.66937298 569.89465332 8.25793457 C570.55360596 8.60300049 571.21255859 8.94806641 571.89147949 9.30358887 C592.11624219 20.16161199 607.42093002 37.42885234 614.51184082 59.38684082 C616.56186831 66.56193703 617.70703937 73.52626145 617.70750248 81.00742733 C617.71125776 82.91904115 617.71125776 82.91904115 617.7150889 84.86927342 C617.7128124 86.2737557 617.71044421 87.67823782 617.70799446 89.0827198 C617.70903802 90.58854413 617.71051959 92.0943682 617.71239883 93.60019171 C617.71629989 97.74895901 617.71395913 101.8977031 617.71062087 106.04647003 C617.70808817 110.55686852 617.7113426 115.06726341 617.71386421 119.5776614 C617.71748067 127.48783003 617.71736338 135.39799183 617.71481705 143.30816078 C617.71104006 155.07359459 617.71296573 166.83902262 617.71602535 178.60445639 C617.72129931 199.63085707 617.7208308 220.65725471 617.71794644 241.68365567 C617.71543026 260.1179806 617.71477443 278.55230442 617.71596909 296.98662949 C617.71608366 298.82132224 617.71608366 298.82132224 617.71620056 300.69307949 C617.71651192 305.65883089 617.71683032 310.6245823 617.71716032 315.5903337 C617.72022258 362.22815734 617.71744258 408.86597905 617.71206342 455.50380239 C617.70733354 496.82549345 617.70772855 538.14718081 617.71252441 579.46887207 C617.71789998 625.94022573 617.71998938 672.41157767 617.71691215 718.88293159 C617.71659148 723.8563505 617.71627863 728.82976941 617.71596909 733.80318832 C617.71589001 735.0276708 617.71581093 736.25215327 617.71572946 737.51374127 C617.71459898 755.88688883 617.71590944 774.26003514 617.71844864 792.63318253 C617.72133157 813.59741877 617.72054419 834.56165151 617.71516789 855.52588733 C617.71252001 866.19854917 617.71135693 876.87120534 617.71481705 887.54386711 C617.72874772 933.20921752 617.56631051 978.8516679 616.58215332 1024.50793457 C555.79236927 1024.57650776 495.00258082 1024.64010361 434.21276855 1024.67730713 C433.31274544 1024.67785936 432.41272233 1024.67841159 431.48542579 1024.67898055 C411.9244662 1024.69095279 392.36350621 1024.70203343 372.80254561 1024.71219589 C363.20955017 1024.71718514 353.61655485 1024.72237137 344.02355957 1024.72766113 C343.06895239 1024.72818417 342.11434521 1024.72870721 341.13081054 1024.72924609 C310.20147332 1024.74628479 279.27216537 1024.77632504 248.34284587 1024.81312345 C216.55312883 1024.85087674 184.76342799 1024.87548166 152.97368891 1024.88359453 C148.48135043 1024.88474711 143.989012 1024.88604966 139.49667358 1024.88744354 C138.61253604 1024.88771323 137.72839851 1024.88798293 136.81746892 1024.88826079 C122.59787772 1024.89298362 108.37833667 1024.91152495 94.1587659 1024.93526271 C79.85566997 1024.95884395 65.55262365 1024.96779841 51.24950898 1024.96194008 C42.75669599 1024.95890287 34.26406486 1024.9669629 25.77128479 1024.99112474 C20.0898032 1025.00618079 14.40844 1025.00654975 8.72695008 1024.99526182 C5.49494649 1024.98925253 2.26335213 1024.99160215 -0.96862781 1025.0074673 C-17.32239264 1025.08305532 -32.8990633 1024.7690821 -47.66784668 1016.82043457 C-48.3220459 1016.48012207 -48.97624512 1016.13980957 -49.65026855 1015.78918457 C-69.70807357 1005.02645993 -85.12750056 987.22721965 -91.77722168 965.30871582 C-95.16731906 952.87303071 -95.56688999 940.60661078 -95.54648113 927.76816273 C-95.54782986 926.2935157 -95.54961493 924.81886902 -95.55179337 923.34422299 C-95.55650357 919.30097817 -95.55502814 915.25775599 -95.5525156 911.21451009 C-95.55087816 906.81221083 -95.55502697 902.40991633 -95.55842477 898.00761861 C-95.56357313 890.29479485 -95.56499695 882.58197737 -95.56396866 874.86915207 C-95.56244325 863.3996364 -95.56660654 851.93012768 -95.57184328 840.46061336 C-95.58151402 818.78368659 -95.58432742 797.10676218 -95.58490034 775.42983351 C-95.58535988 758.69014705 -95.58741821 741.95046153 -95.59060097 725.21077538 C-95.59149851 720.3922986 -95.59238832 715.57382182 -95.59327585 710.75534505 C-95.59349689 709.55745927 -95.59371794 708.3595735 -95.59394569 707.12538816 C-95.60009983 673.43134413 -95.60404626 639.73730042 -95.60360241 606.04325581 C-95.60358683 604.77292565 -95.60357125 603.5025955 -95.6035552 602.1937705 C-95.60347209 595.75520461 -95.60337305 589.31663872 -95.60327049 582.87807284 C-95.60325055 581.59934962 -95.6032306 580.3206264 -95.60321005 579.003154 C-95.60316962 576.41726431 -95.60312782 573.83137462 -95.60308466 571.24548493 C-95.60247187 531.01110581 -95.60997913 490.77673511 -95.62365723 450.5423584 C-95.63901802 405.33967743 -95.64762346 360.13700199 -95.646694 314.93431824 C-95.64661937 310.11426969 -95.64657067 305.29422114 -95.64653969 300.47417259 C-95.64652803 299.28735345 -95.64651638 298.10053431 -95.64650437 296.87775095 C-95.6464736 277.77995023 -95.65285906 258.68215682 -95.66147195 239.58435828 C-95.66994907 220.39066589 -95.67093791 201.19698421 -95.66436263 182.00329099 C-95.66066745 170.60216475 -95.66249843 159.20107103 -95.67230497 147.79994823 C-95.67830496 140.18024541 -95.67700927 132.56056614 -95.66983447 124.9408644 C-95.66595318 120.60213659 -95.66517675 116.26347171 -95.67329182 111.92474834 C-95.68062511 107.96926009 -95.67857085 104.01388657 -95.66936796 100.05840323 C-95.66766188 98.64451126 -95.66922448 97.23061005 -95.67466917 95.81672753 C-95.77772762 67.10655597 -88.99786289 43.94377726 -69.04284668 22.82043457 C-62.73629167 16.78194342 -55.49132033 12.35000873 -47.79284668 8.32043457 C-47.20318115 7.99953857 -46.61351562 7.67864258 -46.00598145 7.34802246 C-31.35649313 -0.0310214 -15.98949801 -0.06876288 0 0 Z " fill="#F5D95E" transform="translate(346.4178466796875,1023.4920654296875)"/>
<path d="M0 0 C5.88279221 0.00639382 11.76558537 0.00684965 17.64838052 0.00802541 C28.71090158 0.01109272 39.77341237 0.01924179 50.83592898 0.0293749 C63.46304484 0.04068184 76.09016129 0.04608263 88.71728098 0.05107033 C114.62060477 0.06143014 140.52391881 0.07914651 166.42723489 0.10139394 C166.42723489 7.36139394 166.42723489 14.62139394 166.42723489 22.10139394 C55.54723489 22.10139394 -55.33276511 22.10139394 -169.57276511 22.10139394 C-143.32323693 2.4142478 -102.80729221 1.23272466 -71.44849753 0.54499745 C-70.52557485 0.5239876 -69.60265217 0.50297775 -68.65176213 0.48133123 C-45.76881145 -0.0290736 -22.88749037 -0.02923685 0 0 Z " fill="#000000" transform="translate(917.5727651119232,487.8986060619354)"/>
</svg>
