<?xml version="1.0" encoding="UTF-8"?>
<svg version="1.1" xmlns="http://www.w3.org/2000/svg" width="512" height="512">
<path d="M0 0 C3.58226337 0.0031485 7.16368811 -0.02036036 10.74584961 -0.0456543 C45.72854998 -0.13970992 84.54286508 1.66139562 111.04858398 27.31567383 C122.70795925 40.84749843 127.52602281 55.07119587 127.43676758 72.76660156 C127.44465302 74.71519577 127.44465302 74.71519577 127.45269775 76.70315552 C127.46625757 80.23427624 127.46111986 83.76513105 127.4515605 87.29625583 C127.44390292 91.01286394 127.45102643 94.72945106 127.45571899 98.44606018 C127.46115963 104.68559811 127.45403033 110.92502913 127.43969727 117.16455078 C127.42338114 124.34973175 127.42865847 131.53465712 127.44517648 138.71983188 C127.45884843 144.91808884 127.46068307 151.11626944 127.45286047 157.31453663 C127.44821423 161.00362742 127.44747394 164.69259862 127.45746994 168.38168144 C127.46785099 172.49972208 127.45340965 176.61733142 127.43676758 180.73535156 C127.44284027 181.93727646 127.44891296 183.13920135 127.45516968 184.37754822 C127.37587032 195.03122773 125.36771278 204.86852342 120.48608398 214.37817383 C119.97053955 215.38932251 119.97053955 215.38932251 119.44458008 216.42089844 C111.07735314 232.09033079 97.34845962 241.17140739 80.68457031 246.36390686 C74.79189951 247.80366144 68.85049185 247.59946372 62.81811523 247.58691406 C60.80445818 247.59493786 58.79080112 247.60296405 56.77714443 247.61107934 C54.62473431 247.61790972 52.47236666 247.61993284 50.31994629 247.62063408 C45.8117812 247.62258775 41.30376717 247.64071454 36.7956543 247.66139221 C25.59344648 247.71041628 14.39119764 247.74136063 3.18890381 247.76269531 C-5.51208577 247.77929522 -14.21294511 247.80233629 -22.91384792 247.84571606 C-26.65341381 247.86377572 -30.39280253 247.87612812 -34.13241577 247.87441826 C-63.11652284 247.86507114 -87.3531902 250.0185408 -109.57250977 270.84692383 C-125.32580651 287.19517267 -131.54741622 306.9757997 -131.56079102 329.21801758 C-131.57582397 330.67633348 -131.59256151 332.13463269 -131.61090088 333.59291077 C-131.65401457 337.37552809 -131.67444661 341.15791618 -131.68963623 344.94073486 C-131.70941292 348.82301081 -131.75135729 352.70504619 -131.79125977 356.5871582 C-131.8659527 364.16326448 -131.91660915 371.73926792 -131.95141602 379.31567383 C-138.92150083 379.41827772 -145.89138638 379.48763642 -152.86206055 379.53540039 C-155.22639238 379.5553417 -157.59067604 379.58250471 -159.95483398 379.61743164 C-181.78914302 379.93159436 -200.88380115 378.72603643 -217.54125977 362.91333008 C-243.90627198 334.49723102 -250.4331253 285.82167329 -249.05639648 248.52172852 C-247.36782221 213.03810726 -241.89487403 174.25665716 -215.26391602 148.62817383 C-197.59131168 133.33931612 -177.07327607 129.98449462 -154.43286133 130.08862305 C-152.69712328 130.08918829 -150.96138475 130.0888684 -149.22564697 130.08773804 C-144.54877809 130.08716793 -139.87201334 130.09886637 -135.1951685 130.11288595 C-130.29448548 130.12545081 -125.39379966 130.12656833 -120.49310303 130.12893677 C-111.22866278 130.1351347 -101.96427015 130.15152255 -92.6998508 130.17163575 C-82.14597106 130.19404743 -71.59208896 130.20500139 -61.03819132 130.21502662 C-39.34257233 130.23589038 -17.64699886 130.27143971 4.04858398 130.31567383 C4.04858398 125.69567383 4.04858398 121.07567383 4.04858398 116.31567383 C-36.21141602 116.31567383 -76.47141602 116.31567383 -117.95141602 116.31567383 C-117.95141602 39.31567383 -117.95141602 39.31567383 -105.76391602 24.69067383 C-92.34786993 11.62768158 -73.47610142 7.31816158 -55.63891602 4.12817383 C-54.77596924 3.97324463 -53.91302246 3.81831543 -53.02392578 3.65869141 C-35.38980388 0.71406074 -17.85603462 -0.03264357 0 0 Z M-81.95141602 47.31567383 C-86.76594978 53.56155546 -86.87845409 59.59354222 -85.95141602 67.31567383 C-84.2509622 73.51377768 -80.27550019 77.84007626 -74.95141602 81.31567383 C-68.92506088 84.2290773 -62.04251568 84.45246858 -55.60375977 82.66333008 C-49.79275487 80.05453597 -45.57233845 75.66854079 -42.81079102 69.95629883 C-40.8576925 63.95495974 -40.88397048 56.81968762 -43.45141602 51.00317383 C-46.52044678 45.77162317 -51.19022351 41.98692192 -56.32641602 38.87817383 C-66.77589419 36.63899993 -75.01772721 39.03376776 -81.95141602 47.31567383 Z " fill="#4584B6" transform="translate(250.951416015625,-0.315673828125)"/>
<path d="M0 0 C7.61305236 -0.07656573 15.22600404 -0.128815 22.83935547 -0.16479492 C25.4250052 -0.17980712 28.01062978 -0.20022313 30.59619141 -0.22631836 C34.32981604 -0.26303545 38.06310166 -0.27980274 41.796875 -0.29296875 C42.93799744 -0.30845261 44.07911987 -0.32393646 45.25482178 -0.33988953 C59.85903647 -0.34289726 74.3340822 3.71369383 85.140625 13.984375 C107.41599417 38.13162393 113.95238194 75.45517414 117 107 C117.16435547 108.55654297 117.16435547 108.55654297 117.33203125 110.14453125 C121.03565388 150.1930373 113.18686384 198.04249132 88.12109375 230.53515625 C78.95301825 241.18903404 68.09389592 247.94028227 53.91111267 249.18303704 C51.81442452 249.24858445 49.7262788 249.25746152 47.62864685 249.24050903 C46.83691497 249.24221788 46.0451831 249.24392673 45.22945935 249.24568737 C42.60396823 249.24895441 39.97873864 249.23802501 37.35327148 249.22705078 C35.46034247 249.22648606 33.56741301 249.22680441 31.67448425 249.22793579 C26.55530703 249.22850794 21.43622417 249.21677594 16.31706882 249.20278788 C10.95992436 249.19025753 5.60277758 249.1891082 0.24562073 249.18673706 C-9.89015017 249.18052906 -20.02587776 249.16412744 -30.16162962 249.14403808 C-41.70453888 249.12165791 -53.24745025 249.11068032 -64.79037583 249.10064721 C-88.52694202 249.07976062 -112.26346675 249.04419343 -136 249 C-136 253.95 -136 258.9 -136 264 C-95.74 264 -55.48 264 -14 264 C-14 333.15353261 -14 333.15353261 -30.2734375 350.48828125 C-54.1726632 372.50433014 -93.99386176 382.01719019 -125.609375 382.203125 C-126.4096965 382.21018463 -127.21001801 382.21724426 -128.03459167 382.22451782 C-161.00415846 382.44931804 -161.00415846 382.44931804 -176 379 C-176.9482666 378.79068848 -177.8965332 378.58137695 -178.87353516 378.36572266 C-205.06141288 372.50610726 -233.55272454 363.93596852 -250 341 C-257.01715156 329.05974803 -259.30121294 318.9703686 -259.29052734 305.20678711 C-259.29724457 303.95345581 -259.30396179 302.70012451 -259.31088257 301.40881348 C-259.3265537 297.99301704 -259.33323354 294.57746392 -259.33451414 291.16164851 C-259.33594317 289.01884805 -259.34022701 286.8760725 -259.34550858 284.73327827 C-259.36397797 277.2324069 -259.37218365 269.73160625 -259.37060547 262.23071289 C-259.36940702 255.28077765 -259.39045877 248.33115443 -259.4220928 241.38129801 C-259.4484106 235.38175077 -259.45896623 229.38230441 -259.45769465 223.38270003 C-259.45718926 219.81410794 -259.46263336 216.24579312 -259.48405075 212.67725945 C-259.61695023 188.85824976 -258.45843848 168.30859607 -241.25732422 150.11206055 C-229.29104988 138.02177283 -214.40124727 131.82220779 -197.47706604 131.72102356 C-196.24834274 131.72357651 -195.01961945 131.72612946 -193.75366211 131.72875977 C-191.73756464 131.72073607 -189.72146717 131.71270998 -187.70537007 131.70459449 C-185.55050167 131.69776426 -183.39567569 131.69574101 -181.24079704 131.69503975 C-176.72870602 131.69308646 -172.21676601 131.67496221 -167.70472717 131.65428162 C-156.49374552 131.60525451 -145.28272291 131.57430143 -134.07165527 131.55297852 C-125.36219103 131.53638541 -116.65285703 131.51336621 -107.9434796 131.46995777 C-103.47343352 131.44837783 -99.00363603 131.44010506 -94.53354156 131.44235051 C-91.73137811 131.44066358 -88.92937195 131.42649285 -86.12726593 131.40913773 C-84.24207188 131.40102209 -82.35683205 131.40740043 -80.47163391 131.414505 C-58.07224089 131.22849547 -38.40573118 123.89685254 -22.0625 108.5 C-6.81799592 92.03287905 -0.40386838 72.12133391 -0.390625 50.09765625 C-0.37559205 48.63934035 -0.35885451 47.18104113 -0.34051514 45.72276306 C-0.29740145 41.94014574 -0.2769694 38.15775765 -0.26177979 34.37493896 C-0.2420031 30.49266302 -0.20005873 26.61062763 -0.16015625 22.72851562 C-0.08546332 15.15240935 -0.03480686 7.57640591 0 0 Z M-85.6953125 304.07421875 C-89.72270929 310.29942351 -90.59504067 315.65742261 -90 323 C-87.85382375 330.32224839 -83.18298194 336.07819958 -76.6875 340 C-69.3237927 341.99693757 -62.91340601 341.79392071 -56.0390625 338.3203125 C-50.4498764 334.70126096 -47.21713938 329.75293684 -45.41015625 323.390625 C-44.20877327 316.38827848 -45.47643483 310.55486962 -49.54296875 304.75390625 C-53.66928908 299.78683432 -58.27332505 296.54819547 -64.76171875 295.59375 C-73.3567022 295.31834332 -80.0837557 297.20846608 -85.6953125 304.07421875 Z " fill="#FEDD55" transform="translate(392,130)"/>
</svg>
