<?xml version="1.0" encoding="UTF-8"?>
<svg version="1.1" xmlns="http://www.w3.org/2000/svg" width="2560" height="1381">
<path d="M0 0 C2.33926419 -0.00692895 4.6784642 -0.01857553 7.01770401 -0.03116226 C86.77838122 -0.40141153 167.68483067 14.32223606 371.70407486 126.36791611 C372.29494888 126.85969345 372.88582291 127.35147079 373.4946022 127.85815048 C386.31964534 138.56414916 398.42759041 150.02458807 410.26657486 161.80541611 C411.23022964 162.76206161 411.23022964 162.76206161 412.2133522 163.73803329 C416.5783498 168.11785068 420.6711232 172.68261827 424.70407486 177.36791611 C425.73812027 178.54727642 426.77324418 179.72569215 427.80954361 180.90307236 C454.25853156 211.10805427 476.56387945 244.10776492 495.70407486 279.36791611 C496.31597672 280.49036728 496.92787857 281.61281845 497.55832291 282.76928329 C502.15064316 291.24571595 506.4297344 299.82538413 510.39157486 308.61791611 C510.68510849 309.26766403 510.97864212 309.91741196 511.28107071 310.58684921 C545.31348986 386.2860639 561.55632827 469.17548622 558.9319191 630.22350693 C558.70416047 632.36711038 558.48453205 634.51143152 558.26608658 636.65600204 C550.0152245 716.60915786 528.4760605 795.68082538 494.70407486 874.36791611 C496.68407486 874.36791611 498.66407486 874.36791611 500.70407486 874.36791611 C500.11378118 880.75916156 498.09437178 886.33199622 495.86423111 892.32494736 C495.27402428 893.93674126 495.27402428 893.93674126 494.67189407 895.58109665 C493.82122082 897.90191858 492.96745646 900.22160935 492.11093521 902.54027939 C490.74712776 906.23307319 489.39188128 909.92890589 488.0390358 913.62572861 C486.40626144 918.08719014 484.77199465 922.54809601 483.13512993 927.00805855 C472.81160784 955.13952092 462.65486389 983.32760863 452.95407486 1011.68041611 C452.6270961 1012.63126083 452.30011734 1013.58210556 451.96323013 1014.56176376 C448.54287086 1024.52471892 445.2830505 1034.51380937 442.36813736 1044.63744736 C442.12549149 1045.47697449 441.88284561 1046.31650162 441.63284683 1047.18146896 C436.94415751 1063.80618545 432.68620637 1083.50099384 440.84079361 1099.61400986 C443.79670117 1104.69593295 446.94580773 1108.05445557 452.32907486 1110.61791611 C463.71867298 1113.14893791 473.06781253 1110.26965223 482.95407486 1104.49291611 C490.03007937 1099.802652 495.97189004 1093.79275324 502.06540298 1087.92553329 C504.03793179 1086.05057296 506.07259106 1084.2605125 508.14157486 1082.49291611 C511.50353071 1079.6029411 514.59484447 1076.49447822 517.70407486 1073.33666611 C519.64298488 1071.42805156 521.64107037 1069.64081059 523.70407486 1067.86791611 C524.35762955 1067.28912704 525.01118423 1066.71033798 525.68454361 1066.11400986 C527.04594047 1064.93694139 528.44661273 1063.80401392 529.87985611 1062.71557236 C534.74598193 1058.65008881 536.23238474 1055.33715094 537.24313736 1049.07494736 C537.48742083 1047.63433619 537.73231014 1046.19382765 537.9777565 1044.75341415 C538.09772995 1044.02198196 538.2177034 1043.29054977 538.34131241 1042.53695297 C545.82788929 997.7730553 560.50541976 955.2420946 578.31979752 913.62084579 C579.65368054 910.48633832 580.95271759 907.33923244 582.24704361 904.18822861 C583.02268875 902.35157284 583.79992174 900.51558646 584.57907486 898.68041611 C584.91189468 897.85436874 585.24471451 897.02832138 585.58761978 896.17724228 C585.91222183 895.43192245 586.23682388 894.68660263 586.57126236 893.91869736 C586.84051529 893.275858 587.10976822 892.63301865 587.38718033 891.97069931 C590.67754708 887.96601675 597.5923739 887.69142622 602.48190689 886.7639122 C603.61475113 886.54401878 603.61475113 886.54401878 604.77048111 886.31968307 C607.25018405 885.83950338 609.73097503 885.36524191 612.21188736 884.89135361 C613.94255672 884.55815769 615.67317735 884.22470862 617.40375137 883.89101791 C621.02272814 883.19416236 624.64224645 882.50021178 628.26218033 881.80834579 C632.90136826 880.92145421 637.53917723 880.02757647 642.17661095 879.13156319 C645.74654963 878.4425563 649.31716593 877.7571165 652.88800049 877.07276917 C654.59863071 876.74450809 656.30905395 876.41516646 658.01926422 876.08472443 C660.40717953 875.62391879 662.79595901 875.16789144 665.18503189 874.71313095 C665.89058212 874.57601196 666.59613235 874.43889297 667.3230629 874.29761887 C670.54485321 873.68929196 673.40530151 873.36791611 676.70407486 873.36791611 C674.97096568 879.61383584 672.90961465 885.72593594 670.73532486 891.82885361 C670.31803116 893.00027908 670.31803116 893.00027908 669.89230728 894.19536972 C669.30245802 895.85024295 668.7125307 897.50508837 668.12253189 899.15990829 C652.76062788 940.52959515 652.76062788 940.52959515 642.70407486 983.36791611 C643.03407486 983.69791611 643.36407486 984.02791611 643.70407486 984.36791611 C644.08177017 983.92963486 644.45946548 983.49135361 644.84860611 983.03979111 C651.974033 974.82969736 659.22846064 966.71266155 666.99875259 959.10570908 C668.65915267 957.41369365 670.1902382 955.66345833 671.72360611 953.85619736 C675.99924697 948.94287198 680.57880825 944.34251964 685.19211197 939.7495079 C686.63931871 938.30766389 688.08109512 936.86054495 689.52243423 935.41283798 C694.21033797 930.72162046 698.95673184 926.15295307 703.99435806 921.83691025 C706.33262626 919.82786273 708.57462195 917.72013908 710.82907486 915.61791611 C734.56965092 894.05925856 763.87282869 872.69761381 797.30563736 873.98900986 C808.12197151 874.7234523 816.45329877 879.58686362 823.67673111 887.53979111 C833.86656693 900.08778426 837.04118757 914.54179924 835.49313736 930.54906845 C831.18450589 970.54263438 815.22353223 1009.05003578 801.04001236 1046.38744736 C795.56199957 1060.8733156 790.71508051 1075.40409486 786.70407486 1090.36791611 C786.5169191 1091.03975937 786.32976334 1091.71160263 786.13693619 1092.40380478 C785.34878541 1095.98004449 785.47764879 1099.59484985 785.45407486 1103.24291611 C785.43344986 1104.03311142 785.41282486 1104.82330673 785.39157486 1105.63744736 C785.35295263 1111.44043684 786.52396715 1115.31576532 789.95407486 1120.11791611 C794.68261977 1123.49544819 799.8513021 1123.71807047 805.38766861 1122.90307236 C825.83823079 1118.17840622 842.53769305 1099.72196552 856.79074478 1085.46654892 C858.26363458 1083.99585201 859.74437751 1082.53338077 861.22555923 1081.07104111 C867.50383893 1074.82911354 873.21912969 1068.32185014 878.70407486 1061.36791611 C880.34231151 1059.33742909 881.99712973 1057.34157141 883.70407486 1055.36791611 C884.03407486 1055.36791611 884.36407486 1055.36791611 884.70407486 1055.36791611 C889.49636299 1093.14799855 889.49636299 1093.14799855 880.48367691 1105.1769371 C873.98643091 1112.80660669 866.22103748 1119.14417163 858.2544899 1125.17385483 C856.18882998 1126.76473499 854.2308764 1128.46079608 852.28219986 1130.19213486 C828.2175501 1151.56365207 801.79812062 1170.84888305 770.70407486 1180.36791611 C769.54262955 1180.72627548 768.38118423 1181.08463486 767.18454361 1181.45385361 C750.20241104 1185.84543712 731.75641506 1185.14406968 716.32907486 1176.55541611 C703.15868512 1168.00210968 696.62201012 1155.19778677 692.70407486 1140.36791611 C684.4245594 1096.28081469 705.56956859 1048.44088938 721.2449379 1008.16674423 C725.36740654 997.56747945 729.38666134 986.95999702 733.01657486 976.18041611 C733.37114761 975.14376816 733.72572037 974.10712021 734.09103775 973.03905869 C738.8991764 959.22116141 738.8991764 959.22116141 736.70407486 945.36791611 C734.21687677 943.15707336 732.78604296 943.36476349 729.45407486 943.49291611 C715.71632442 946.69839121 704.77468021 958.1810954 694.76657486 967.55541611 C694.06927261 968.208004 693.37197037 968.86059189 692.65353775 969.53295517 C688.61105406 973.37943672 684.86291546 977.37759899 681.22922134 981.61132431 C679.47671209 983.62978182 677.62672965 985.51155975 675.70407486 987.36791611 C671.82420577 991.20335921 668.24430488 995.21942262 664.70407486 999.36791611 C663.335483 1000.96531117 661.9661591 1002.56207629 660.59665298 1004.15868759 C659.57551563 1005.35083589 658.55601194 1006.54438524 657.53805923 1007.739254 C654.83399569 1010.90865438 652.10534258 1014.04969554 649.32126236 1017.14916611 C629.27941281 1039.56385953 624.08552636 1062.09476586 620.51657486 1091.24291611 C620.38942596 1092.27658813 620.38942596 1092.27658813 620.2597084 1093.33114243 C618.15359163 1110.64761546 617.48818545 1127.88009897 617.14157486 1145.30541611 C617.09826544 1147.35685497 617.05464777 1149.40828736 617.01071548 1151.45971298 C616.90495445 1156.42904656 616.80334291 1161.39844876 616.70407486 1166.36791611 C606.84765657 1168.71877935 596.99038541 1171.06602858 587.13200283 1173.40864182 C582.5546069 1174.49647304 577.97751642 1175.58555648 573.40109634 1176.67748642 C568.98627275 1177.73081119 564.57068336 1178.78086651 560.15453911 1179.82863998 C558.46812826 1180.22936795 556.7819988 1180.63128195 555.09615517 1181.0343895 C552.73857066 1181.5979071 550.38002947 1182.15723539 548.02121353 1182.71557236 C546.97140808 1182.9680423 546.97140808 1182.9680423 545.90039444 1183.22561264 C543.08744765 1183.88756792 540.60647116 1184.36791611 537.70407486 1184.36791611 C536.05997827 1181.07972293 536.23210301 1177.40080336 535.98532486 1173.77807236 C535.92274994 1172.89798004 535.86017502 1172.01788773 535.79570389 1171.11112595 C535.59280012 1168.21791765 535.3977554 1165.32425564 535.20407486 1162.43041611 C535.10369415 1160.95985764 535.10369415 1160.95985764 535.00128555 1159.45959091 C533.73459723 1140.77064672 533.03316405 1122.09509081 532.70407486 1103.36791611 C527.432813 1108.0825851 522.18820255 1112.81706908 517.05197525 1117.67870712 C511.40726276 1123.01930137 505.70067682 1128.19125059 499.62204361 1133.03979111 C497.41613305 1134.79979471 495.23639463 1136.57909881 493.06735611 1138.38354111 C465.43577927 1161.29074365 431.31057945 1186.44434888 393.70407486 1184.36791611 C385.71314042 1183.16825928 379.29313232 1179.94963593 372.70407486 1175.36791611 C371.78175064 1174.74143173 371.78175064 1174.74143173 370.84079361 1174.10229111 C358.22592608 1164.47439221 351.6057689 1147.93044845 349.19626236 1132.77025986 C348.18113985 1125.01792952 348.47526593 1117.16436867 348.70407486 1109.36791611 C343.6416679 1114.83193364 338.6870937 1120.31197803 334.01657486 1126.11791611 C331.01649796 1129.83505884 327.93159744 1133.27517321 324.48971939 1136.58275986 C322.69642979 1138.37555909 321.0357336 1140.23312029 319.37985611 1142.15307236 C308.86569543 1154.24242439 297.57966469 1165.59513116 286.26657486 1176.93041611 C285.65697922 1177.54259995 285.04738358 1178.15478378 284.41931534 1178.78551865 C278.02493434 1185.20128841 271.62987875 1191.52042746 264.70407486 1197.36791611 C263.51198076 1198.41252458 262.32187296 1199.45940413 261.13376236 1200.50854111 C253.45760786 1207.23773475 245.64743281 1213.72324059 237.55368423 1219.9435997 C235.61323613 1221.43786768 233.68196382 1222.94351251 231.75094986 1224.44994736 C201.09470051 1248.25861828 168.02957788 1268.31893409 133.70407486 1286.36791611 C132.82912369 1286.82875595 131.95417252 1287.28959579 131.05270767 1287.76440048 C57.47201047 1326.22512355 -24.20601843 1350.19507783 -225.60842514 1379.11791611 C-226.47616562 1379.17708206 -227.3439061 1379.23624802 -228.23794174 1379.29720688 C-234.25496102 1379.70002319 -240.27379993 1380.05090799 -246.29592514 1380.36791611 C-247.6546373 1380.4405014 -247.6546373 1380.4405014 -249.04079819 1380.51455307 C-268.5790107 1381.52138807 -288.11254782 1381.5695989 -307.67092514 1381.55541611 C-308.49738289 1381.55514923 -309.32384064 1381.55488235 -310.17534256 1381.55460739 C-336.59848105 1381.54391652 -362.92804444 1381.22175364 -389.29592514 1379.36791611 C-390.22211655 1379.30475204 -391.14830795 1379.24158798 -392.10256577 1379.17650986 C-479.22099845 1373.23264355 -567.289747 1360.34181661 -732.01858139 1286.99291611 C-740.7051455 1276.98027274 -747.76613168 1265.86764224 -754.29592514 1254.36791611 C-755.24338608 1252.73789658 -755.24338608 1252.73789658 -756.20998764 1251.07494736 C-798.95085594 1174.65146063 -813.61869881 1078.57262137 -826.29592514 939.36791611 C-826.36851044 938.13931366 -826.36851044 938.13931366 -826.4425621 936.88589096 C-827.55167696 917.58041132 -827.49693759 898.26052413 -827.48342514 878.93041611 C-827.48315826 878.07529812 -827.48289139 877.22018013 -827.48261642 876.33914948 C-827.47286457 851.44125134 -827.39992134 826.59391043 -825.47951889 801.75603867 C-825.28177903 799.18390856 -825.09328432 796.61118697 -824.90530014 794.03832626 C-818.40795957 706.24496929 -802.44786234 618.80882282 -741.70119858 459.35033798 C-740.36905719 456.52312477 -739.05307378 453.68897034 -737.74123764 450.85229111 C-724.94659613 423.34546492 -709.85380039 395.95414399 -692.46291733 371.04711533 C-691.20622513 369.23884568 -689.97251036 367.41623668 -688.74123764 365.59057236 C-678.11246544 349.88278768 -666.83023218 334.71557694 -654.73293686 320.10912704 C-652.65089382 317.58633891 -650.6018572 315.03699841 -648.54592514 312.49291611 C-644.96187633 308.11460007 -641.23192262 303.89317723 -637.42092514 299.71166611 C-635.4709779 297.560989 -633.56566385 295.37966639 -631.67092514 293.18041611 C-628.92062223 290.01820147 -626.01882344 287.06917018 -623.03030014 284.13354111 C-621.28390095 282.35567526 -619.66373275 280.51306216 -618.04592514 278.61791611 C-611.72930844 271.30767431 -604.80526619 264.5719747 -597.45608139 258.30932236 C-594.62708169 255.76680364 -591.96844402 253.07314788 -589.29592514 250.36791611 C-585.43294372 246.4624383 -581.52854115 242.6966099 -577.34280014 239.13354111 C-574.83877665 236.97358191 -572.41594816 234.73303618 -569.98342514 232.49291611 C-565.44067829 228.34546353 -560.75472552 224.43558916 -555.96780014 220.57494736 C-553.39733464 218.45168273 -550.93673151 216.24979762 -548.48342514 213.99291611 C-543.51874956 209.47459148 -538.29505117 205.36229675 -532.99514389 201.25072861 C-529.89556335 198.84550001 -526.83416911 196.39657014 -523.78176498 193.93188095 C-516.09276272 187.72781851 -508.26899834 181.72794477 -500.31887436 175.86254501 C-499.01571455 174.89972286 -497.71505196 173.93350692 -496.41750717 172.96313095 C-473.04553232 155.49372543 -448.36519185 139.2876624 -423.29592514 124.36791611 C-422.37021713 123.81523056 -421.44450912 123.26254501 -420.49074936 122.69311142 C-406.61585375 114.43572198 -392.56085333 106.54556023 -378.30373764 98.96801376 C-376.31435206 97.90969939 -374.32732384 96.84694058 -372.34280014 95.7795372 C-355.00786721 86.46143751 -337.27195563 78.20171236 -319.2821312 70.24676132 C-317.37970815 69.40498794 -315.47878539 68.5599117 -313.5781517 67.71410751 C-295.76370165 59.81478601 -277.69537925 52.77639386 -259.29592514 46.36791611 C-258.599207 46.12514938 -257.90248886 45.88238266 -257.18465805 45.63225937 C-198.12291707 25.10671166 -137.76520366 10.59866005 -75.5791893 3.62505722 C-73.39075616 3.37859597 -71.20348961 3.1232955 -69.01613998 2.86742783 C-46.0747632 0.24622283 -23.06319025 0.05722786 0 0 Z " fill="#F79839" transform="translate(1675.2959251403809,-0.3679161071777344)"/>
<path d="M0 0 C1.61807377 0.72488721 3.23651279 1.4489602 4.85546875 2.171875 C16.5712945 7.47141261 27.79060841 13.7150396 39 20 C39.71027344 20.39348633 40.42054688 20.78697266 41.15234375 21.19238281 C78.91508879 42.18622573 113.83625794 69.1334194 145.40332031 98.52099609 C147.11156615 100.10334369 148.83251251 101.67111126 150.5546875 103.23828125 C224.20820534 170.60430366 260.47942432 265.91015463 281.16992188 424.53417969 C281.83181676 440.35346746 282.2743051 456.16753583 282 472 C281.98211426 473.04430176 281.96422852 474.08860352 281.94580078 475.16455078 C280.58150178 543.26995847 277.52229223 656.67590061 226 707 C183.67201868 747.03585236 103.648228 755.18553318 48 760 C46.81647949 760.10441406 45.63295898 760.20882812 44.41357422 760.31640625 C6.89277161 763.47352877 -31.50888114 763.53943862 -69 760 C-69.67538818 759.93683594 -70.35077637 759.87367188 -71.04663086 759.80859375 C-152.86878081 752.08898751 -234.13692744 730.26490053 -344 654 C-344.77472656 653.33871094 -345.54945313 652.67742188 -346.34765625 651.99609375 C-350.18938929 648.6873179 -353.80325983 645.23383443 -357.3515625 641.61328125 C-359.16207301 639.79180525 -359.16207301 639.79180525 -362 637.5625 C-365.02274387 634.98057295 -367.44755441 632.25519604 -370.015625 629.23828125 C-372.24904322 626.71909101 -374.60323731 624.36407957 -377 622 C-381.21685089 617.82113876 -385.15268112 613.51675236 -389 609 C-389.87926737 607.99526951 -390.75956223 606.9914377 -391.640625 605.98828125 C-398.98507795 597.5828811 -405.81045403 588.85487741 -412.52294922 579.93994141 C-413.79536343 578.2687673 -415.09983362 576.62208851 -416.41015625 574.98046875 C-430.53957998 557.26415872 -442.71179457 537.61383803 -454 518 C-454.62430908 516.92274658 -454.62430908 516.92274658 -455.26123047 515.82373047 C-485.68728145 463.09246061 -506.52958104 405.16311901 -516 345 C-516.10654907 344.33601196 -516.21309814 343.67202393 -516.32287598 342.98791504 C-522.39633356 304.82817869 -523.51902124 263.12639697 -517 225 C-516.79600586 223.77249023 -516.59201172 222.54498047 -516.38183594 221.28027344 C-506.76579594 164.25537549 -484.54004244 105.0023036 -444.16015625 62.30078125 C-442.30470048 60.32453631 -440.53159554 58.30993462 -438.76171875 56.2578125 C-429.15911966 45.24521152 -418.61137668 34.87196342 -407 26 C-405.71536643 24.98796772 -404.4315783 23.97486177 -403.1484375 22.9609375 C-332.16309885 -32.71723389 -240.9505456 -51.64113714 0 0 Z " fill="#3399CD" transform="translate(520,607)"/>
<path d="M0 0 C9.87788389 5.13649962 13.65959951 14.34833545 17.1875 24.375 C19.59178356 35.10180359 20.37127883 45.58615702 20.3125 56.5625 C20.31067719 57.2745459 20.30885437 57.9865918 20.30697632 58.72021484 C19.99229619 132.53781844 -9.99775394 200.56285935 -52 260 C-52.51175781 260.72574219 -53.02351563 261.45148438 -53.55078125 262.19921875 C-61.02157704 272.76012472 -68.81122499 282.98753698 -77 293 C-77.77988281 293.96292969 -78.55976562 294.92585938 -79.36328125 295.91796875 C-87.32364017 305.71642121 -95.44615737 315.36471646 -103.9296875 324.71484375 C-105.92817557 326.92072209 -107.90824679 329.14080127 -109.875 331.375 C-110.40867187 331.98085938 -110.94234375 332.58671875 -111.4921875 333.2109375 C-113.06789556 335.02855765 -113.06789556 335.02855765 -114.5703125 337.2265625 C-115.04210938 337.81179688 -115.51390625 338.39703125 -116 339 C-116.66 339 -117.32 339 -118 339 C-117.98839844 339.84820313 -117.97679687 340.69640625 -117.96484375 341.5703125 C-117.95582031 342.74335937 -117.94679688 343.91640625 -117.9375 345.125 C-117.92589844 346.26195312 -117.91429687 347.39890625 -117.90234375 348.5703125 C-117.93072252 352.15893729 -118.19966952 355.70465649 -118.48828125 359.28125 C-119.09899915 367.46737597 -119.22120755 375.6329414 -119.24023438 383.83984375 C-119.24996116 386.36491602 -119.2811228 388.88917884 -119.3125 391.4140625 C-119.40067053 404.75066824 -118.56664861 418.18544576 -112.75 430.4375 C-112.44698975 431.0979834 -112.14397949 431.7584668 -111.83178711 432.43896484 C-107.12121677 442.34199284 -100.45075663 450.27444657 -90.3125 454.875 C-76.20673822 459.55844546 -59.87324513 453.96044769 -47 448 C-31.40019803 439.99738116 -18.13165628 428.00210393 -5.3515625 416.16796875 C-3.20711953 414.19094906 -1.02468432 412.27542862 1.1875 410.375 C4.6190703 407.3977109 7.79835287 404.2205707 10.984375 400.984375 C13.59915628 398.41013297 16.34741262 396.01831818 19.140625 393.640625 C19.75421875 393.09921875 20.3678125 392.5578125 21 392 C21.70769531 391.49984375 22.41539062 390.9996875 23.14453125 390.484375 C26.16099411 386.44548999 26.0064641 381.91933137 26.4375 377 C29.05053111 352.64830673 36.32357397 329.52570762 48 308 C48.35320312 307.33516602 48.70640625 306.67033203 49.0703125 305.98535156 C61.62266323 282.4045416 79.16207546 258.88225073 100 242 C101.1224651 241.06518733 102.24485355 240.13028263 103.3671875 239.1953125 C133.04685433 214.70978074 166.91766187 201.98230398 205.57470703 205.21533203 C220.71539311 206.8835615 234.31330256 212.12285571 246 222 C246.71671875 222.59296875 247.4334375 223.1859375 248.171875 223.796875 C257.27008785 232.04874247 264.33372211 244.79776587 265.13916016 257.13085938 C266.12490537 280.53623831 260.35736301 299.06884912 244.4765625 316.69042969 C211.44029027 352.5126555 157.44028927 373.61017296 111 385 C111.46170702 391.03986374 112.48499273 396.43673228 114.5625 402.125 C114.82716064 402.85291748 115.09182129 403.58083496 115.36450195 404.33081055 C122.62942085 423.65293836 133.55567446 438.78165193 152.6875 447.8125 C170.62068677 455.48377905 193.65513276 455.63725043 212 449 C227.51140604 442.72295438 240.50898006 432.93995537 253 422 C253.71800781 421.38253906 254.43601562 420.76507812 255.17578125 420.12890625 C257.13452761 418.43781467 259.07073003 416.72465043 261 415 C261.86625 414.2265625 262.7325 413.453125 263.625 412.65625 C265.65766916 410.8181981 267.65495903 408.96469348 269.640625 407.078125 C271.94693351 404.9043947 274.33412227 402.96024921 276.859375 401.046875 C289.35789144 390.97155606 291.18507461 378.5443377 293.90180969 363.56201172 C295.50130162 354.94229828 298.51140796 347.00944953 302 339 C302.33225586 338.22833496 302.66451172 337.45666992 303.00683594 336.66162109 C312.93443652 313.92436254 326.65437006 293.5823362 343 275 C343.79664063 274.09121094 344.59328125 273.18242188 345.4140625 272.24609375 C353.35869633 263.30496804 361.65430931 255.46862127 371 248 C371.75667969 247.36449219 372.51335938 246.72898437 373.29296875 246.07421875 C405.4392563 219.35019657 442.89131429 202.087004 485 204 C489.33493173 204.46165407 492.9664802 205.36553799 497 207 C497.91072266 207.36327393 497.91072266 207.36327393 498.83984375 207.73388672 C516.40356946 214.9622329 525.7376087 226.85229127 535 243 C553.11369362 233.4009509 553.11369362 233.4009509 571.0625 223.5 C571.6493457 223.17467285 572.23619141 222.8493457 572.84082031 222.51416016 C577.05526678 220.16214176 581.16006521 217.6651266 585.26171875 215.12109375 C598.83922773 206.84845784 609.74914917 201.49844371 626 204 C623.91225137 213.52899796 621.5580065 222.76718401 618.34887695 231.98657227 C617.0102982 235.90532795 615.83154619 239.86559877 614.68359375 243.84375 C612.92247386 249.88748734 611.12588951 255.91871677 609.28125 261.9375 C609.05304062 262.68229614 608.82483124 263.42709229 608.58970642 264.19445801 C607.66166539 267.22015001 606.73192269 270.24531804 605.80224609 273.27050781 C603.04898775 282.23451499 600.33404219 291.20748816 597.69966125 300.20721436 C596.43636652 304.52273639 595.14896204 308.82964186 593.83398438 313.12963867 C579.03898925 359.27103687 579.03898925 359.27103687 572 407 C571.96745117 407.67321289 571.93490234 408.34642578 571.90136719 409.04003906 C571.42372274 420.15130332 571.48142818 430.21490585 578.375 439.5625 C583.44592184 444.27121314 589.6128319 444.68092288 596.29296875 444.56640625 C608.13930156 442.75637647 617.73348626 435.2367245 626 427 C627.38641275 425.78086923 628.78180614 424.57184791 630.1875 423.375 C633.31797658 420.65230093 636.24109127 417.78357124 639.14501953 414.82275391 C640.84471331 413.15258889 642.59023502 411.61464669 644.41015625 410.078125 C649.91788113 405.28593578 655.05792057 400.1281181 660.2175293 394.96777344 C661.92543056 393.26205402 663.64118045 391.56450973 665.35742188 389.8671875 C672.02675853 383.23195739 678.16268815 376.39191353 684 369 C685.08376793 367.69394064 686.1718629 366.39145121 687.265625 365.09375 C695.53140534 355.17643939 702.87336021 344.75958676 710 334 C707.01712631 331.72451156 703.97976515 329.78517539 700.75 327.875 C691.13153769 321.7751741 685.52855872 314.07996442 681.75 303.5 C676.42555415 278.62031667 687.99239641 252.57404029 701 232 C703.16222984 228.81836793 705.44754663 225.87584113 708 223 C708.59039063 222.31679688 709.18078125 221.63359375 709.7890625 220.9296875 C719.06943671 210.88549648 731.99576527 204.65548692 745.63671875 203.76171875 C755.28920244 203.49936493 763.26492835 203.97015179 770.9375 210.5 C771.618125 211.325 772.29875 212.15 773 213 C773.8353125 213.9590625 773.8353125 213.9590625 774.6875 214.9375 C781.53973182 225.70529285 778.62902345 242.74696072 776.20556641 254.60888672 C773.00827209 268.3730117 767.79290983 281.72922903 763 295 C783.59215717 293.21467012 801.71997331 283.60383934 817 270 C817.80050781 269.319375 818.60101562 268.63875 819.42578125 267.9375 C834.54156919 254.93030097 845.79350992 237.91101817 856.02734375 220.97265625 C856.7857959 219.75545898 856.7857959 219.75545898 857.55957031 218.51367188 C859.0682158 216.01107272 859.0682158 216.01107272 860.13574219 213.20507812 C861.48277868 210.18745755 862.5607223 208.24641876 865 206 C870.44487847 204.47325899 875.75113228 204.41526636 881.375 204.375 C882.88946579 204.32867516 884.40380341 204.27793686 885.91796875 204.22265625 C889.61187668 204.09736991 893.30397566 204.03238228 897 204 C896.40970632 210.39124546 894.39029692 215.96408011 892.16015625 221.95703125 C891.56994942 223.56882515 891.56994942 223.56882515 890.96781921 225.21318054 C890.11714596 227.53400247 889.2633816 229.85369324 888.40686035 232.17236328 C887.0430529 235.86515708 885.68780642 239.56098978 884.33496094 243.2578125 C882.70218658 247.71927403 881.06791979 252.1801799 879.43105507 256.64014244 C869.10753298 284.77160481 858.95078903 312.95969252 849.25 341.3125 C848.92302124 342.26334473 848.59604248 343.21418945 848.25915527 344.19384766 C844.838796 354.15680281 841.57897564 364.14589327 838.6640625 374.26953125 C838.42141663 375.10905838 838.17877075 375.94858551 837.92877197 376.81355286 C833.24008265 393.43826934 828.98213151 413.13307773 837.13671875 429.24609375 C840.09262631 434.32801684 843.24173287 437.68653946 848.625 440.25 C860.01459813 442.78102181 869.36373768 439.90173612 879.25 434.125 C886.32600451 429.43473589 892.26781518 423.42483713 898.36132812 417.55761719 C900.33385693 415.68265685 902.3685162 413.89259639 904.4375 412.125 C907.79945586 409.23502499 910.89076961 406.12656212 914 402.96875 C915.93891002 401.06013545 917.93699551 399.27289448 920 397.5 C920.65355469 396.92121094 921.30710937 396.34242188 921.98046875 395.74609375 C923.34186561 394.56902528 924.74253787 393.43609781 926.17578125 392.34765625 C931.04190707 388.28217271 932.52830988 384.96923483 933.5390625 378.70703125 C933.78334597 377.26642008 934.02823528 375.82591154 934.27368164 374.38549805 C934.39365509 373.65406586 934.51362854 372.92263367 934.63723755 372.16903687 C942.12381443 327.40513919 956.8013449 284.87417849 974.61572266 243.25292969 C975.94960568 240.11842221 977.24864273 236.97131633 978.54296875 233.8203125 C979.31861389 231.98365673 980.09584688 230.14767035 980.875 228.3125 C981.20781982 227.48645264 981.54063965 226.66040527 981.88354492 225.80932617 C982.20814697 225.06400635 982.53274902 224.31868652 982.8671875 223.55078125 C983.13644043 222.90794189 983.40569336 222.26510254 983.68310547 221.6027832 C986.97347223 217.59810064 993.88829904 217.32351011 998.77783203 216.39599609 C999.53306152 216.24940048 1000.28829102 216.10280487 1001.06640625 215.95176697 C1003.54610919 215.47158727 1006.02690017 214.9973258 1008.5078125 214.5234375 C1010.23848186 214.19024158 1011.96910249 213.85679251 1013.69967651 213.52310181 C1017.31865328 212.82624625 1020.93817159 212.13229568 1024.55810547 211.44042969 C1029.1972934 210.5535381 1033.83510237 209.65966036 1038.47253609 208.76364708 C1042.04247477 208.07464019 1045.61309107 207.38920039 1049.18392563 206.70485306 C1050.89455585 206.37659198 1052.60497909 206.04725035 1054.31518936 205.71680832 C1056.70310467 205.25600268 1059.09188416 204.79997533 1061.48095703 204.34521484 C1062.18650726 204.20809586 1062.8920575 204.07097687 1063.61898804 203.92970276 C1066.84077835 203.32137585 1069.70122665 203 1073 203 C1071.26689082 209.24591973 1069.20553979 215.35801983 1067.03125 221.4609375 C1066.7530542 222.24188782 1066.4748584 223.02283813 1066.18823242 223.82745361 C1065.59838316 225.48232685 1065.00845584 227.13717226 1064.41845703 228.79199219 C1049.05655302 270.16167904 1049.05655302 270.16167904 1039 313 C1039.33 313.33 1039.66 313.66 1040 314 C1040.56654297 313.34257813 1040.56654297 313.34257813 1041.14453125 312.671875 C1048.26995814 304.46178125 1055.52438579 296.34474545 1063.29467773 288.73779297 C1064.95507781 287.04577755 1066.48616334 285.29554222 1068.01953125 283.48828125 C1072.29517211 278.57495587 1076.87473339 273.97460354 1081.48803711 269.3815918 C1082.93524385 267.93974779 1084.37702026 266.49262884 1085.81835938 265.04492188 C1090.50626311 260.35370436 1095.25265698 255.78503697 1100.2902832 251.46899414 C1102.6285514 249.45994663 1104.87054709 247.35222297 1107.125 245.25 C1130.86557606 223.69134245 1160.16875384 202.32969771 1193.6015625 203.62109375 C1204.41789665 204.35553619 1212.74922391 209.21894752 1219.97265625 217.171875 C1230.16249207 229.71986816 1233.33711271 244.17388314 1231.7890625 260.18115234 C1227.48043103 300.17471827 1211.51945737 338.68211967 1197.3359375 376.01953125 C1191.85792471 390.50539949 1187.01100565 405.03617875 1183 420 C1182.81284424 420.67184326 1182.62568848 421.34368652 1182.43286133 422.03588867 C1181.64471055 425.61212838 1181.77357393 429.22693374 1181.75 432.875 C1181.729375 433.66519531 1181.70875 434.45539063 1181.6875 435.26953125 C1181.64887777 441.07252073 1182.81989229 444.94784921 1186.25 449.75 C1190.97854491 453.12753208 1196.14722724 453.35015437 1201.68359375 452.53515625 C1222.13415593 447.81049011 1238.83361819 429.35404942 1253.08666992 415.09863281 C1254.55955972 413.6279359 1256.04030265 412.16546466 1257.52148438 410.703125 C1263.79976407 404.46119743 1269.51505483 397.95393403 1275 391 C1276.63823665 388.96951298 1278.29305487 386.97365531 1280 385 C1280.33 385 1280.66 385 1281 385 C1285.79228813 422.78008244 1285.79228813 422.78008244 1276.77960205 434.809021 C1270.28235605 442.43869058 1262.51696262 448.77625553 1254.55041504 454.80593872 C1252.48475512 456.39681888 1250.52680154 458.09287997 1248.578125 459.82421875 C1224.51347524 481.19573597 1198.09404576 500.48096694 1167 510 C1165.25783203 510.53753906 1165.25783203 510.53753906 1163.48046875 511.0859375 C1146.49833618 515.47752101 1128.0523402 514.77615357 1112.625 506.1875 C1099.45461026 497.63419358 1092.91793526 484.82987067 1089 470 C1080.72048454 425.91289858 1101.86549373 378.07297327 1117.54086304 337.79882812 C1121.66333168 327.19956334 1125.68258648 316.59208091 1129.3125 305.8125 C1129.84435913 304.25752808 1129.84435913 304.25752808 1130.38696289 302.67114258 C1135.19510154 288.8532453 1135.19510154 288.8532453 1133 275 C1130.51280191 272.78915726 1129.08196811 272.99684738 1125.75 273.125 C1112.01224956 276.3304751 1101.07060535 287.81317929 1091.0625 297.1875 C1090.36519775 297.84008789 1089.66789551 298.49267578 1088.94946289 299.16503906 C1084.9069792 303.01152061 1081.1588406 307.00968288 1077.52514648 311.2434082 C1075.77263724 313.26186571 1073.92265479 315.14364365 1072 317 C1068.12013091 320.83544311 1064.54023003 324.85150652 1061 329 C1059.63140814 330.59739506 1058.26208424 332.19416019 1056.89257812 333.79077148 C1055.87144077 334.98291978 1054.85193708 336.17646913 1053.83398438 337.37133789 C1051.12992083 340.54073827 1048.40126772 343.68177944 1045.6171875 346.78125 C1025.57533795 369.19594342 1020.3814515 391.72684975 1016.8125 420.875 C1016.72773407 421.56411469 1016.64296814 422.25322937 1016.55563354 422.96322632 C1014.44951677 440.27969935 1013.7841106 457.51218286 1013.4375 474.9375 C1013.39419058 476.98893887 1013.35057291 479.04037125 1013.30664062 481.09179688 C1013.20087959 486.06113046 1013.09926805 491.03053265 1013 496 C1003.14358171 498.35086324 993.28631055 500.69811247 983.42792797 503.04072571 C978.85053204 504.12855693 974.27344156 505.21764038 969.69702148 506.30957031 C965.28219789 507.36289508 960.8666085 508.4129504 956.45046425 509.46072388 C954.7640534 509.86145185 953.07792394 510.26336584 951.39208031 510.66647339 C949.0344958 511.229991 946.67595461 511.78931929 944.31713867 512.34765625 C943.26733322 512.60012619 943.26733322 512.60012619 942.19631958 512.85769653 C939.38337279 513.51965181 936.9023963 514 934 514 C932.35590341 510.71180682 932.52802815 507.03288725 932.28125 503.41015625 C932.18738762 502.09001778 932.18738762 502.09001778 932.09162903 500.74320984 C931.88872526 497.85000155 931.69368054 494.95633953 931.5 492.0625 C931.43307953 491.08212769 931.36615906 490.10175537 931.29721069 489.0916748 C930.03052237 470.40273062 929.32908919 451.7271747 929 433 C923.72873814 437.71466899 918.48412769 442.44915298 913.34790039 447.31079102 C907.7031879 452.65138526 901.99660196 457.82333448 895.91796875 462.671875 C893.71205819 464.43187861 891.53231977 466.2111827 889.36328125 468.015625 C861.73170441 490.92282754 827.60650459 516.07643277 790 514 C782.00906556 512.80034318 775.58905746 509.58171982 769 505 C768.38511719 504.58234375 767.77023437 504.1646875 767.13671875 503.734375 C754.4205075 494.02912871 747.87529843 477.41549947 745.50390625 462.140625 C743.85873652 449.80330278 745.1837249 438.06775278 748 426 C748.16097168 425.28537598 748.32194336 424.57075195 748.48779297 423.83447266 C756.49967132 388.82387262 773.72124119 357.81634833 791.9296875 327.22558594 C793.72993503 324.19803655 795.49201822 321.18530911 797 318 C795.96101563 318.45890625 794.92203125 318.9178125 793.8515625 319.390625 C792.44274673 320.01050394 791.03389035 320.6302906 789.625 321.25 C788.60599609 321.70052734 788.60599609 321.70052734 787.56640625 322.16015625 C785.38280893 323.11930648 783.19283244 324.06216269 781 325 C780.22857666 325.33491455 779.45715332 325.6698291 778.66235352 326.01489258 C772.14520138 328.74907376 765.55309256 330.54674697 758.6875 332.1875 C757.62982422 332.44724609 756.57214844 332.70699219 755.48242188 332.97460938 C747.49153421 334.92569677 747.49153421 334.92569677 744.28833008 335.40991211 C741.69013699 335.82325519 741.69013699 335.82325519 740 338.7109375 C739.31962277 339.92470736 738.65399228 341.1468125 738 342.375 C737.21870413 343.75164064 736.43195863 345.12519851 735.640625 346.49609375 C735.21845703 347.22812012 734.79628906 347.96014648 734.36132812 348.71435547 C726.82830992 361.36215253 717.87549493 373.02077181 708.43115234 384.28076172 C706.4362656 386.67721216 704.50548428 389.12389311 702.5625 391.5625 C697.28753999 398.00218658 691.55297622 404.0039448 685.83496094 410.04736328 C684.02328718 411.97521941 682.23144736 413.91957603 680.4453125 415.87109375 C673.51952337 423.42159965 666.37077372 430.53303202 658.76416016 437.39306641 C655.40836735 440.44978219 652.11615247 443.57468059 648.8125 446.6875 C643.68772181 451.50377525 638.53509214 456.28069415 633.28515625 460.9609375 C631.7016492 462.37391302 630.12666767 463.79647908 628.55859375 465.2265625 C623.50283701 469.83133625 618.34976664 474.26918303 613.0234375 478.55859375 C610.86344271 480.30277559 608.72716751 482.06279253 606.6015625 483.84765625 C585.90792455 501.05920513 562.7187652 514.69776202 535.03613281 513.1953125 C522.83112108 512.02456797 512.88763792 505.0355278 505.1328125 495.9296875 C489.03979285 473.82389128 488.76389856 443.16197307 488 417 C487.48783936 417.67035278 487.48783936 417.67035278 486.96533203 418.35424805 C484.15038835 422.03819361 481.33395153 425.72098537 478.515625 429.40234375 C476.43634805 432.11894483 474.36190534 434.83896322 472.296875 437.56640625 C462.86753256 449.98832815 452.72949759 461.68898873 442 473 C440.82630859 474.2375 440.82630859 474.2375 439.62890625 475.5 C422.80309285 492.77570146 401.17705396 507.96493306 377 512 C375.59427734 512.26876953 375.59427734 512.26876953 374.16015625 512.54296875 C357.78120632 514.91174148 342.28239769 512.50004869 328.515625 502.9375 C306.6200146 486.07380007 294.81497509 463.61038164 289.76171875 436.82421875 C289.2178388 433.21578135 289.2178388 433.21578135 288 431 C287.443125 431.56847656 286.88625 432.13695312 286.3125 432.72265625 C282.05594042 437.02954677 277.74891055 441.18769155 273.15234375 445.12890625 C270.61947838 447.33079829 268.15667478 449.60195826 265.6875 451.875 C225.98818566 488.02485707 180.41662566 515.16983794 125.1484375 513.4453125 C96.84339855 511.83020189 71.85790552 500.57222355 52.234375 480.1171875 C41.09281912 467.30098058 26.8780694 444.95088959 28 427 C23.50063253 430.89343546 19.06743844 434.8474704 14.6875 438.875 C10.25503526 442.91279322 5.72257823 446.77307434 1.0546875 450.53515625 C-1.1831158 452.34085175 -3.40481899 454.15979312 -5.6171875 455.99609375 C-15.43474911 464.11441451 -25.55549644 471.70712123 -36 479 C-36.65887207 479.46035645 -37.31774414 479.92071289 -37.99658203 480.39501953 C-66.93155404 500.47008687 -103.24330991 518.31859929 -139.51025391 512.60449219 C-160.24662961 508.57746301 -177.34298605 497.70251816 -189.80078125 480.515625 C-206.06404042 456.13876647 -210.22040837 428.71688971 -210.3125 399.9375 C-210.31511841 399.14363892 -210.31773682 398.34977783 -210.32043457 397.53186035 C-210.32670524 379.5036721 -208.47984552 361.8367534 -206 344 C-205.83983398 342.8248584 -205.67966797 341.6497168 -205.51464844 340.43896484 C-203.3896598 325.18280969 -200.21824386 310.20894398 -196.73925781 295.20996094 C-196.03602758 292.15643682 -195.35347052 289.099203 -194.6796875 286.0390625 C-192.14787125 274.57630144 -189.30957139 263.26233073 -186 252 C-185.69078613 250.94377441 -185.38157227 249.88754883 -185.06298828 248.79931641 C-166.1901331 184.55988296 -142.80307754 122.45481111 -114 62 C-113.71408997 61.39706116 -113.42817993 60.79412231 -113.13360596 60.1729126 C-111.11414062 55.9152728 -109.06441306 51.67353776 -107 47.4375 C-106.20807251 45.77678467 -106.20807251 45.77678467 -105.40014648 44.08251953 C-104.89684814 43.06399902 -104.3935498 42.04547852 -103.875 40.99609375 C-103.22144531 39.65309204 -103.22144531 39.65309204 -102.5546875 38.28295898 C-99.25504397 33.43764387 -93.68279925 31.9745968 -88.37890625 30.0234375 C-87.62223663 29.74058899 -86.86556702 29.45774048 -86.08596802 29.1663208 C-83.5799234 28.23102694 -81.07127295 27.30294811 -78.5625 26.375 C-76.8049546 25.72091589 -75.04755164 25.06644893 -73.2902832 24.41162109 C-68.54262477 22.64430566 -63.79241386 20.88395607 -59.04138184 19.12573242 C-55.91426749 17.9682671 -52.78764785 16.80947374 -49.66113281 15.65039062 C-39.42628315 11.85664234 -29.1895529 8.06798364 -18.94921875 4.2890625 C-18.08539581 3.96995911 -17.22157288 3.65085571 -16.33157349 3.32208252 C-15.53854828 3.02968689 -14.74552307 2.73729126 -13.9284668 2.43603516 C-12.89365425 2.05422592 -12.89365425 2.05422592 -11.8379364 1.66470337 C-7.62813026 0.14219567 -4.5025529 -0.38157228 0 0 Z " fill="#010101" transform="translate(1279,670)"/>
<path d="M0 0 C0.75539063 -0.01160156 1.51078125 -0.02320313 2.2890625 -0.03515625 C11.13978781 0.01046605 17.45972262 2.89900968 23.88671875 8.9375 C35.26571488 22.06225709 34.94660834 39.02989898 34 55.375 C29.76567624 104.33531697 6.94385317 167.54028126 -31.57470703 200.73193359 C-42.2239752 209.3280937 -54.01476715 214.37472218 -67.80859375 213.7890625 C-76.1221672 212.71043485 -82.41691337 208.52346249 -88 202.375 C-96.33733507 191.32142907 -97.53397169 179.69968638 -97.375 166.1875 C-97.37101196 165.50113464 -97.36702393 164.81476929 -97.36291504 164.10760498 C-97.29300482 153.85560053 -96.56517527 144.33716775 -94 134.375 C-93.71289872 133.04682426 -93.43187743 131.71732292 -93.15625 130.38671875 C-84.45963254 89.34022528 -62.61928008 33.68407151 -26.69140625 9.01171875 C-17.83123815 3.40881476 -10.54295941 -0.16192258 0 0 Z " fill="#F79838" transform="translate(1754,902.625)"/>
<path d="M0 0 C6.23256722 3.86419168 8.70869255 9.2135537 10.5859375 16.171875 C14.56631815 43.35862582 6.62958925 72.00157634 -1.9375 97.625 C-2.28674026 98.67450333 -2.28674026 98.67450333 -2.64303589 99.74520874 C-7.83487611 115.24956942 -14.12887661 130.1721336 -21 145 C-21.42603516 145.92522461 -21.85207031 146.85044922 -22.29101562 147.80371094 C-32.09285147 168.85920939 -44.29388588 189.25826959 -58 208 C-58.70237793 208.96607178 -58.70237793 208.96607178 -59.41894531 209.95166016 C-66.4907568 219.63942859 -73.92595501 229.01791049 -81.56591797 238.26269531 C-82.53356955 239.43494739 -83.49603152 240.61150005 -84.45361328 241.79199219 C-85.61382368 243.21284463 -86.80391934 244.60920854 -88 246 C-88.33 246 -88.66 246 -89 246 C-88.48775286 237.15052871 -86.82117647 228.69441847 -84.875 220.0625 C-84.56262351 218.65562574 -84.25036972 217.24872423 -83.93823242 215.84179688 C-81.10200031 203.14277538 -77.97221232 190.52092964 -74.74609375 177.91552734 C-73.75705333 174.05063185 -72.78180609 170.18238485 -71.8125 166.3125 C-71.50699219 165.095625 -71.20148438 163.87875 -70.88671875 162.625 C-70.26565734 160.08603529 -69.66221431 157.54815909 -69.08203125 155 C-58.72326586 109.53593517 -44.36080701 62.1322437 -22 21 C-21.09314453 19.329375 -21.09314453 19.329375 -20.16796875 17.625 C-9.51898464 -1.3065273 -9.51898464 -1.3065273 0 0 Z " fill="#F59738" transform="translate(1261,711)"/>
<path d="M0 0 C7.00414791 4.6787151 9.79699401 11.38271718 11.96484375 19.3125 C12.51377034 23.33182153 12.58558741 27.2599509 12.52734375 31.3125 C12.51711182 32.39829346 12.50687988 33.48408691 12.49633789 34.6027832 C11.96422842 55.11989935 4.842663 73.10027505 -9.03515625 88.3125 C-9.64875 89.00730469 -10.26234375 89.70210937 -10.89453125 90.41796875 C-27.94225742 108.66777818 -54.07500637 119.88648275 -78.03515625 125.3125 C-78.26482547 113.08526413 -78.05761279 101.39667783 -76.03515625 89.3125 C-75.82437753 87.85972769 -75.61615808 86.40658236 -75.41015625 84.953125 C-71.06030107 55.29964994 -58.09088686 25.24332167 -35.03515625 5.3125 C-24.48298957 -2.14266163 -12.25351291 -6.38157634 0 0 Z " fill="#F69838" transform="translate(1464.03515625,905.6875)"/>
<path d="M0 0 C5.94 0 11.88 0 18 0 C18.33 29.37 18.66 58.74 19 89 C32.84103067 74.25273329 32.84103067 74.25273329 46.54711914 59.38085938 C62.1494628 42.92492325 62.1494628 42.92492325 73.86314392 42.46740723 C78.31590435 42.64697413 82.63475566 43.09981478 87 44 C82.75789864 49.06711299 78.32282911 53.81223371 73.6328125 58.46484375 C72.95322479 59.14301651 72.27363708 59.82118927 71.57345581 60.51991272 C69.42632998 62.66149141 67.27573373 64.79954529 65.125 66.9375 C63.65862227 68.39885589 62.1924742 69.86044226 60.7265625 71.32226562 C57.15369 74.88417935 53.57770316 78.44293865 50 82 C53.88846986 89.33815955 58.04979395 96.4055401 62.5625 103.375 C63.80053068 105.30401305 65.0374836 107.23371816 66.2734375 109.1640625 C66.89444336 110.13375977 67.51544922 111.10345703 68.15527344 112.10253906 C72.65481508 119.16984454 77.03984605 126.30894683 81.42871094 133.4453125 C82.49590051 135.18040754 83.56430267 136.91475723 84.63378906 138.6484375 C86.19583675 141.18077699 87.75472876 143.71502815 89.3125 146.25 C89.7871167 147.01924805 90.2617334 147.78849609 90.75073242 148.58105469 C94 153.88483568 94 153.88483568 94 155 C86.70831457 156.55886382 79.14069509 157.62646256 72 155 C65.80476942 149.63275254 62.42893802 141.65163043 58.80175781 134.44824219 C55.84881846 128.79684444 52.37891179 123.48762323 48.9375 118.125 C44.53972253 111.13333256 40.22279177 104.0987667 36 97 C29.27492574 100.0073578 22.80123002 104.5865503 19 111 C16.79804238 118.49322891 17.45121397 126.53051731 17.6875 134.25 C17.70451874 136.3632417 17.71563643 138.47653959 17.72070312 140.58984375 C17.74574124 145.72973481 17.85070684 150.86227801 18 156 C12.06 156 6.12 156 0 156 C0 104.52 0 53.04 0 0 Z " fill="#FEFCFA" transform="translate(1688,601)"/>
<path d="M0 0 C1.44572388 0.01522705 1.44572388 0.01522705 2.9206543 0.03076172 C15.91189777 0.31334673 26.08724935 3.04061469 35.4375 12.4375 C40.3163388 18.51226586 42.125 26.75910233 42.125 34.375 C35.855 34.375 29.585 34.375 23.125 34.375 C22.135 31.405 21.145 28.435 20.125 25.375 C16.88785342 21.23864603 13.28247134 18.49431765 8.125 17.375 C-0.70529205 16.55124124 -9.14939737 16.58881989 -16.875 21.375 C-20.40108978 24.98709197 -22.02766236 27.68205818 -22.1875 32.6875 C-22.12280435 35.79786764 -21.91737963 37.29024074 -20.5 40.125 C-13.14912559 46.4257495 -4.34277066 48.48510097 4.9375 50.375 C35.15126379 56.97141033 35.15126379 56.97141033 43.125 69.375 C46.92191344 76.69761878 47.13586568 84.25493144 46.125 92.375 C42.97330061 102.07597544 37.37495842 109.27732255 28.4375 114.125 C18.85003878 118.44791778 10.01240791 119.65218104 -0.4375 119.75 C-1.39487061 119.76393799 -2.35224121 119.77787598 -3.33862305 119.79223633 C-14.38443353 119.71944836 -25.41557961 117.1053373 -33.84765625 109.625 C-38.41314744 104.81717913 -40.88727324 99.65878137 -42.875 93.375 C-43.07351563 92.78203125 -43.27203125 92.1890625 -43.4765625 91.578125 C-44.08228725 88.22882342 -43.875 84.77863388 -43.875 81.375 C-37.605 81.375 -31.335 81.375 -24.875 81.375 C-24.215 84.345 -23.555 87.315 -22.875 90.375 C-20.30209528 95.88836726 -16.47991285 98.92820266 -10.875 101.125 C-0.14943578 104.36761244 11.09238305 102.59828277 21.125 98 C24.47397958 95.27895409 25.90748449 93.13634507 26.4453125 88.78125 C26.61639546 84.5383927 26.56439404 81.31370545 24.75 77.4375 C16.60791404 71.04014675 5.12155124 69.46566551 -4.7109375 67.10742188 C-17.38374559 63.96082123 -31.35984488 59.9367771 -38.875 48.375 C-40.76089552 43.73174821 -41.2285829 39.46281463 -41.1875 34.5 C-41.18186035 33.79037109 -41.1762207 33.08074219 -41.17041016 32.34960938 C-40.96481052 23.49864696 -38.11478612 16.71624605 -31.875 10.375 C-22.08975706 2.68219895 -12.31991255 -0.18812328 0 0 Z " fill="#FEFDFC" transform="translate(1466.875,641.625)"/>
<path d="M0 0 C0.79019531 -0.00322266 1.58039063 -0.00644531 2.39453125 -0.00976562 C13.99766122 0.09468154 24.47121122 3.62689725 33.875 10.5625 C42.11205271 19.19179331 45.5 28.57963853 45.5 40.3125 C39.56 40.3125 33.62 40.3125 27.5 40.3125 C27.0875 38.78625 26.675 37.26 26.25 35.6875 C24.23599072 29.0243291 21.40117299 24.20190947 15.5 20.3125 C8.06503311 16.35736921 -0.13912412 16.14088187 -8.1875 18.375 C-17.30073236 21.9389248 -21.39869061 28.11234533 -25.2734375 36.8359375 C-27.95833114 44.44598635 -28.86342954 51.57296589 -28.8125 59.625 C-28.80758545 60.54708252 -28.8026709 61.46916504 -28.79760742 62.41918945 C-28.60271796 73.78374338 -26.41872382 85.58090424 -18.6796875 94.3828125 C-11.68375728 100.93978239 -5.06328972 102.94509969 4.46875 102.65625 C10.91187982 101.92558579 16.39954892 99.93610991 20.875 95.125 C25.28305611 89.30586644 27.30668081 83.47241514 28.5 76.3125 C34.44 76.3125 40.38 76.3125 46.5 76.3125 C46.5 89.39664554 42.58761992 98.71520854 33.76171875 108.17578125 C23.09988733 118.48442571 9.93323955 119.87110946 -4.1328125 119.65625 C-16.61747318 119.13186803 -26.11458001 113.01685449 -34.625 104.25 C-48.24518212 88.24829291 -48.9105178 67.00948833 -47.32128906 47.0703125 C-45.99807644 34.97908962 -40.15443243 19.36824147 -30.5 11.3125 C-20.74583847 3.86742979 -12.31915167 -0.25120619 0 0 Z " fill="#FEFDFC" transform="translate(1576.5,641.6875)"/>
<path d="M0 0 C5.94 0 11.88 0 18 0 C18 10.23 18 20.46 18 31 C23.94 31 29.88 31 36 31 C36 35.62 36 40.24 36 45 C30.06 45 24.12 45 18 45 C18.04030568 55.62263176 18.09734133 66.24481089 18.18390274 76.86716843 C18.22342569 81.79948007 18.25559048 86.73161189 18.27099609 91.6640625 C18.28613102 96.42346848 18.32051999 101.18238025 18.36830902 105.94156647 C18.38315555 107.75800534 18.39104289 109.57451475 18.39188385 111.3910141 C18.39424548 113.93406471 18.42125855 116.47574057 18.45410156 119.01855469 C18.4490712 119.77093414 18.44404083 120.5233136 18.43885803 121.29849243 C18.50773864 124.7416255 18.75807254 126.67323068 20.83197021 129.47442627 C23.87608518 131.61647333 26.0734823 131.39706071 29.75 131.25 C31.8125 131.1675 33.875 131.085 36 131 C36 135.95 36 140.9 36 146 C27.44499169 147.42583472 16.3662601 149.10105139 8.1875 145.375 C3.88852609 142.17184297 1.68650884 139.05952652 0 134 C-0.09149466 131.15479596 -0.12597774 128.33455054 -0.11352539 125.48950195 C-0.11367142 124.62099609 -0.11381744 123.75249023 -0.1139679 122.85766602 C-0.11327076 119.98451243 -0.10548761 117.11142352 -0.09765625 114.23828125 C-0.09579137 112.24716731 -0.09436779 110.25605292 -0.09336853 108.26493835 C-0.0895489 103.02227514 -0.07972332 97.77963959 -0.06866455 92.5369873 C-0.05843854 87.18807347 -0.05386835 81.83915517 -0.04882812 76.49023438 C-0.03810058 65.99347742 -0.02103077 55.49674101 0 45 C-4.95 45 -9.9 45 -15 45 C-15 40.38 -15 35.76 -15 31 C-10.05 31 -5.1 31 0 31 C0 20.77 0 10.54 0 0 Z " fill="#FEFDFB" transform="translate(1849,614)"/>
<path d="M0 0 C5.94 0 11.88 0 18 0 C18 36.96 18 73.92 18 112 C12.06 112 6.12 112 0 112 C0 75.04 0 38.08 0 0 Z " fill="#FEFCF9" transform="translate(1798,645)"/>
<path d="M0 0 C5.61 0 11.22 0 17 0 C17 36.63 17 73.26 17 111 C11.39 111 5.78 111 0 111 C0 74.37 0 37.74 0 0 Z " fill="#FFFFFF" transform="translate(1643,645)"/>
<path d="M0 0 C5.94 0 11.88 0 18 0 C18 7.59 18 15.18 18 23 C12.06 23 6.12 23 0 23 C0 15.41 0 7.82 0 0 Z " fill="#FEF9F4" transform="translate(1798,601)"/>
<path d="M0 0 C5.61 0 11.22 0 17 0 C17 7.26 17 14.52 17 22 C11.39 22 5.78 22 0 22 C0 14.74 0 7.48 0 0 Z " fill="#FEFEFD" transform="translate(1643,601)"/>
</svg>
