<?xml version="1.0" encoding="UTF-8"?>
<svg version="1.1" xmlns="http://www.w3.org/2000/svg" width="1521" height="2048">
<path d="M0 0 C1.79221697 -0.00464849 3.58443299 -0.00967572 5.37664795 -0.01504517 C10.19112043 -0.0280004 15.00557907 -0.0345839 19.82006621 -0.03905582 C22.86192672 -0.04202205 25.90378376 -0.04613337 28.94564247 -0.05056 C38.5592087 -0.06420801 48.17276662 -0.07388048 57.78634185 -0.07776189 C67.62274142 -0.08175972 77.45904334 -0.09390276 87.29541016 -0.12011719 C178.36585197 -0.35776365 178.36585197 -0.35776365 223.84640503 2.80836487 C230.40839104 3.26071098 236.97546644 3.58646792 243.54518127 3.90240479 C256.85621429 4.56692555 269.90169329 6.09188881 283.05786133 8.21972656 C288.41433405 9.08171675 293.76329297 9.71291687 299.16333008 10.22363281 C306.01728371 10.87952755 312.75704304 11.86591997 319.5378418 13.0559082 C324.44326516 13.910175 329.34223118 14.5918671 334.28833008 15.16113281 C340.74191202 15.92789502 347.0249658 17.1068546 353.38208008 18.44238281 C357.13558977 19.16785107 360.86995853 19.69088014 364.66333008 20.16113281 C370.7721313 20.92552921 376.6952442 22.09182215 382.69848633 23.44238281 C386.01271379 24.14251812 389.31121119 24.67823453 392.66333008 25.16113281 C398.09100936 25.95430817 403.35879907 27.10642693 408.69067383 28.38378906 C412.27264549 29.20029807 415.86115214 29.87992974 419.47583008 30.53613281 C426.42085242 31.80232843 433.32509503 33.23549512 440.22583008 34.72363281 C441.70188721 35.03856689 441.70188721 35.03856689 443.20776367 35.35986328 C447.95472041 36.39287554 452.49996684 37.58679613 457.10083008 39.16113281 C458.84409062 39.50926916 460.59470939 39.82259588 462.35083008 40.09863281 C466.82948485 40.8701911 471.02527755 41.99953922 475.35083008 43.37207031 C479.80995434 44.65153495 484.35333652 45.51353331 488.90161133 46.41503906 C491.81288984 47.09398191 494.34193931 48.03764363 497.10083008 49.16113281 C498.67584576 49.51316446 500.26019358 49.82572949 501.85083008 50.09863281 C506.02902225 50.88475193 509.89618014 52.04124252 513.90161133 53.44628906 C516.04375092 54.14257955 518.14582944 54.64478022 520.35083008 55.09863281 C529.25655452 56.97597194 537.8873737 59.96772034 546.37036133 63.23144531 C549.19966854 64.19478597 552.05426524 64.89872733 554.95703125 65.60302734 C558.64845257 66.56403283 562.24202924 67.80575338 565.85083008 69.03613281 C567.44973904 69.57664347 569.04869738 70.11700806 570.64770508 70.65722656 C571.79916016 71.0475708 571.79916016 71.0475708 572.97387695 71.44580078 C575.67512084 72.35427697 578.3885968 73.22359666 581.10083008 74.09863281 C586.99217362 76.05695146 592.755683 78.32139815 598.53173828 80.59228516 C602.59934954 82.19148755 606.67119447 83.75498295 610.78833008 85.22363281 C616.43116977 87.24637381 621.98562756 89.481687 627.54223633 91.72753906 C629.60782676 92.55967044 631.67659925 93.38414797 633.75317383 94.18847656 C639.5088688 96.41988576 645.08629661 98.96767611 650.66137695 101.61206055 C653.62725969 103.01768278 656.59947447 104.37309819 659.62036133 105.65722656 C664.38646003 107.71665193 668.9751185 110.08822603 673.60083008 112.44238281 C677.05724338 114.13972863 680.55735218 115.65586666 684.10083008 117.16113281 C696.27200909 122.87448853 707.99981866 129.58267139 719.47973633 136.57128906 C721.54251275 137.82248132 723.61261983 139.05681852 725.69067383 140.28222656 C732.28742588 144.1835941 738.74459992 148.14450249 744.95239258 152.65332031 C747.11023744 154.2075727 747.11023744 154.2075727 749.52661133 155.60644531 C752.35943134 157.31731385 754.99624189 159.20254788 757.66333008 161.16113281 C759.05745117 162.18207031 759.05745117 162.18207031 760.47973633 163.22363281 C761.77717773 164.18269531 761.77717773 164.18269531 763.10083008 165.16113281 C763.87297852 165.69738281 764.64512695 166.23363281 765.44067383 166.78613281 C765.98852539 167.23988281 766.53637695 167.69363281 767.10083008 168.16113281 C767.10083008 168.82113281 767.10083008 169.48113281 767.10083008 170.16113281 C768.05989258 170.31582031 768.05989258 170.31582031 769.03833008 170.47363281 C770.05926758 170.81394531 770.05926758 170.81394531 771.10083008 171.16113281 C771.43083008 172.15113281 771.76083008 173.14113281 772.10083008 174.16113281 C773.75521621 174.85771645 775.42337326 175.52210164 777.10083008 176.16113281 C778.12562974 177.13570228 779.12347185 178.13899246 780.10083008 179.16113281 C781.2390629 180.15019894 782.38425488 181.13128525 783.53442383 182.10644531 C788.76702609 186.66329437 793.67037151 191.544614 798.57373047 196.44873047 C800.1587562 198.03156526 801.75163201 199.60620321 803.3449707 201.18066406 C808.51610454 206.32508073 813.41480781 211.49115883 817.69628906 217.42333984 C819.16870735 219.42192105 819.16870735 219.42192105 822.10083008 221.16113281 C822.43083008 222.15113281 822.76083008 223.14113281 823.10083008 224.16113281 C824.4298785 225.49873734 825.76390771 226.8313982 827.10083008 228.16113281 C828.4349759 230.02731655 829.72428415 231.92607732 830.97583008 233.84863281 C832.01030273 235.42837891 832.01030273 235.42837891 833.06567383 237.04003906 C834.07307617 238.58498047 834.07307617 238.58498047 835.10083008 240.16113281 C836.24469703 241.87078342 837.39028722 243.57928355 838.53833008 245.28613281 C840.98856496 248.93144139 842.22557691 251.06229488 842.22880992 255.49861511 C842.23190205 256.41800796 842.23499418 257.33740081 842.23818001 258.28465405 C842.23649808 259.30413491 842.23481615 260.32361578 842.23308325 261.37399 C842.23523095 262.45570855 842.23737865 263.53742709 842.23959144 264.65192499 C842.24563961 268.32700412 842.24448096 272.00204721 842.24343109 275.6771307 C842.24629121 278.32978027 842.24954662 280.98242668 842.25328267 283.63507488 C842.26065462 289.44676412 842.26425951 295.25844653 842.26546472 301.07014018 C842.26727906 309.7706107 842.27476007 318.47106995 842.28334376 327.1715361 C842.29778611 341.99690376 842.30734215 356.82227111 842.31424332 371.64764404 C842.32124298 386.68068718 842.33033933 401.71372677 842.34199142 416.74676704 C842.34272348 417.69478709 842.34345554 418.64280714 842.34420977 419.61955506 C842.3471931 423.48044371 842.35018368 427.34133235 842.35318554 431.20222098 C842.39206521 481.31718333 842.41756779 531.43215062 842.44015332 581.5471226 C842.44357625 589.14198859 842.44705485 596.73685455 842.45056462 604.3317205 C842.48926263 688.18687397 842.52286488 772.04202918 842.54473328 855.89718884 C842.54962626 874.59240056 842.55468909 893.28761224 842.55982561 911.9828239 C842.56079125 915.50355668 842.56174938 919.02428946 842.56270746 922.54502224 C842.58300312 996.7513804 842.62749851 1070.95769709 842.6866416 1145.16403379 C842.72978958 1199.31538557 842.76957588 1253.46672831 842.78446198 1307.61809635 C842.7847696 1308.73136599 842.78507723 1309.84463563 842.78539418 1310.99164071 C842.79207582 1335.4288957 842.79681154 1359.8661507 842.79971861 1384.30340642 C842.80091824 1394.13565682 842.802375 1403.96790719 842.8039093 1413.80015755 C842.80415073 1415.41430932 842.80415073 1415.41430932 842.80439703 1417.06107021 C842.80970505 1451.74802128 842.83677117 1486.43491338 842.8750692 1521.12184244 C842.91352159 1556.05426244 842.93000503 1590.98661919 842.91601678 1625.91905971 C842.91408901 1630.74366942 842.91240884 1635.56827918 842.91087723 1640.39288902 C842.91041299 1641.81155844 842.91041299 1641.81155844 842.90993938 1643.25888784 C842.90567907 1658.24931145 842.92498384 1673.23960897 842.95405932 1688.2300011 C842.98214803 1702.96167124 842.98538001 1717.69317136 842.96197694 1732.42485163 C842.94900029 1741.06716817 842.9552693 1749.7089577 842.98976967 1758.35121804 C843.01076594 1764.08818051 843.00644999 1769.82476072 842.98140724 1775.56170613 C842.96791539 1778.81593394 842.96917347 1782.06892892 842.99382879 1785.32312127 C843.15860404 1808.56027374 843.15860404 1808.56027374 836.79701307 1816.55893404 C835.10083008 1818.16113281 835.10083008 1818.16113281 833.10083008 1819.16113281 C832.0848684 1820.81811792 831.08869748 1822.48724638 830.10083008 1824.16113281 C828.492708 1826.45646277 826.80217366 1828.68437431 825.10083008 1830.91113281 C824.4434082 1831.79478516 824.4434082 1831.79478516 823.77270508 1832.69628906 C820.45521086 1837.04300589 820.45521086 1837.04300589 817.10083008 1838.16113281 C816.95645508 1838.75925781 816.81208008 1839.35738281 816.66333008 1839.97363281 C815.89411778 1842.96501399 814.34450576 1844.0387369 812.10083008 1846.16113281 C811.17618869 1847.25863001 810.26025309 1848.36349246 809.35083008 1849.47363281 C806.47045904 1852.89039948 803.27012106 1855.73389145 799.83520508 1858.58300781 C797.87314833 1860.24037961 797.87314833 1860.24037961 796.10083008 1863.16113281 C795.11083008 1863.49113281 794.12083008 1863.82113281 793.10083008 1864.16113281 C791.61900014 1865.73147179 791.61900014 1865.73147179 790.22583008 1867.59863281 C787.78644347 1870.57468447 785.91813399 1872.15067001 782.10083008 1873.16113281 C782.10083008 1873.82113281 782.10083008 1874.48113281 782.10083008 1875.16113281 C780.01110738 1876.95652837 777.92240926 1878.63174723 775.72583008 1880.28613281 C775.12254883 1880.7540625 774.51926758 1881.22199219 773.89770508 1881.70410156 C769.36224134 1885.16113281 769.36224134 1885.16113281 767.10083008 1885.16113281 C766.77083008 1886.15113281 766.44083008 1887.14113281 766.10083008 1888.16113281 C764.46899901 1889.2170235 762.79290009 1890.20474541 761.10083008 1891.16113281 C759.2660116 1892.4750996 757.45556747 1893.81688453 755.65161133 1895.17285156 C754.10083008 1896.16113281 754.10083008 1896.16113281 752.10083008 1896.16113281 C752.10083008 1896.82113281 752.10083008 1897.48113281 752.10083008 1898.16113281 C750.45083008 1898.49113281 748.80083008 1898.82113281 747.10083008 1899.16113281 C747.10083008 1899.82113281 747.10083008 1900.48113281 747.10083008 1901.16113281 C744.87036133 1902.78222656 744.87036133 1902.78222656 741.91333008 1904.59863281 C740.95040039 1905.19546875 739.9874707 1905.79230469 738.99536133 1906.40722656 C736.36812535 1907.99916847 733.73721112 1909.58439046 731.10083008 1911.16113281 C730.33383789 1911.62132812 729.5668457 1912.08152344 728.77661133 1912.55566406 C727.11913425 1913.55015031 725.46014756 1914.54212284 723.80004883 1915.53222656 C721.97901778 1916.63117004 720.16920712 1917.74889494 718.37036133 1918.88378906 C717.49766602 1919.4290625 716.6249707 1919.97433594 715.72583008 1920.53613281 C714.9343457 1921.03886719 714.14286133 1921.54160156 713.32739258 1922.05957031 C711.10083008 1923.16113281 711.10083008 1923.16113281 707.10083008 1923.16113281 C707.10083008 1923.82113281 707.10083008 1924.48113281 707.10083008 1925.16113281 C703.99554508 1927.32542236 700.71691387 1928.77603955 697.23364258 1930.22363281 C692.42969819 1932.33525672 687.78155472 1934.79215971 683.10083008 1937.16113281 C676.82817066 1940.33580396 670.59467569 1943.46557426 664.10083008 1946.16113281 C659.58652073 1948.1407799 655.09117286 1950.16296343 650.60083008 1952.19628906 C649.10083008 1952.87207031 647.60083008 1953.54785156 646.10083008 1954.22363281 C645.35833008 1954.56201172 644.61583008 1954.90039062 643.85083008 1955.24902344 C639.34102219 1957.27295632 634.82381686 1958.97757936 630.11938477 1960.49291992 C627.59027371 1961.330145 625.16639614 1962.34479318 622.72583008 1963.41113281 C611.80649123 1968.03085309 600.62234425 1972.30461323 589.21411133 1975.55566406 C583.67172698 1977.14359304 578.25467437 1979.09662972 572.85083008 1981.09863281 C562.55649606 1984.86276603 551.9846836 1987.80707365 541.46801758 1990.87988281 C538.65718691 1991.70183595 535.85008657 1992.53474656 533.04614258 1993.37988281 C522.02095299 1996.69023155 510.91036245 1999.6286102 499.75854492 2002.48095703 C497.41963592 2003.07954241 495.08233425 2003.68395368 492.74536133 2004.29003906 C484.75832614 2006.3428093 476.7395007 2008.13491242 468.65649414 2009.76708984 C465.18630601 2010.47436565 461.81035719 2011.24425652 458.40161133 2012.21972656 C455.36861998 2013.08475723 452.46748026 2013.64663244 449.35083008 2014.09863281 C445.35777166 2014.72859358 441.54461309 2015.5335776 437.66333008 2016.66113281 C432.61311115 2018.11026306 427.59364081 2018.89586861 422.39770508 2019.63378906 C419.20375141 2020.14467028 416.11655137 2020.82939524 412.97583008 2021.59863281 C406.69134998 2023.11241269 400.37762141 2024.13180013 393.98706055 2025.07104492 C390.11745835 2025.64776054 386.31200914 2026.31054911 382.49926758 2027.19238281 C378.50842085 2028.1089762 374.54988601 2028.65580065 370.47583008 2029.09863281 C365.28088416 2029.69641573 360.21836665 2030.49462492 355.10083008 2031.59863281 C347.36090054 2033.22722585 339.57713786 2034.16687758 331.72705078 2035.10400391 C326.72271034 2035.70317919 321.75041469 2036.32905981 316.78833008 2037.22363281 C310.42264299 2038.34428768 304.01300209 2038.95934638 297.58520508 2039.59472656 C293.81672826 2039.97116433 290.06117096 2040.40824705 286.30395508 2040.88378906 C268.22796515 2043.10854799 250.17973588 2043.93586144 231.99047852 2044.59448242 C222.90241791 2044.92770269 213.81691914 2045.30003447 204.73186588 2045.7053709 C155.51603504 2047.89924724 106.38134511 2048.66963155 57.11934406 2048.6033808 C49.46450804 2048.59499421 41.80989096 2048.61302326 34.15509558 2048.63657421 C26.55972881 2048.65901477 18.96445649 2048.66531159 11.36905909 2048.6594978 C6.92387546 2048.65621685 2.47889072 2048.6579274 -1.96626282 2048.67574883 C-24.41177459 2048.75745346 -46.37159788 2047.4797782 -68.66756964 2044.86347312 C-75.10822156 2044.11432821 -81.55751705 2043.57178133 -88.02416992 2043.09863281 C-96.17918424 2042.46188193 -104.2278356 2041.49273369 -112.31494141 2040.26635742 C-118.06216341 2039.39898661 -123.8018428 2038.72099305 -129.58666992 2038.16113281 C-136.56327302 2037.47808849 -143.43131685 2036.47814526 -150.3347168 2035.26660156 C-155.2406345 2034.41227289 -160.14007588 2033.73045551 -165.08666992 2033.16113281 C-171.53901202 2032.39451791 -177.82087332 2031.21650539 -184.17651367 2029.87988281 C-187.95195895 2029.1509406 -191.70837249 2028.63076942 -195.52416992 2028.16113281 C-201.37876762 2027.4293081 -206.99263482 2026.28009005 -212.71948242 2024.87988281 C-215.93802817 2024.15234913 -219.13369356 2023.63098553 -222.39916992 2023.16113281 C-227.84869586 2022.37144103 -233.13311829 2021.22218756 -238.48510742 2019.93847656 C-242.08876865 2019.11796331 -245.6994998 2018.44171236 -249.33666992 2017.78613281 C-259.59963326 2015.91934166 -269.74434999 2013.53783037 -279.89916992 2011.16113281 C-280.79361816 2010.95198242 -281.68806641 2010.74283203 -282.60961914 2010.52734375 C-293.81512751 2007.89922122 -304.99337471 2005.16862172 -316.15307617 2002.35253906 C-319.24062199 2001.57389684 -322.3312197 2000.81070993 -325.42651367 2000.06347656 C-331.39405197 1998.61614355 -337.24691563 1997.18154291 -342.94995117 1994.86816406 C-345.37828017 1993.98734733 -347.82569197 1993.39269834 -350.33666992 1992.78613281 C-363.69615375 1989.55102569 -376.73903922 1985.30002052 -389.7487793 1980.88867188 C-393.08665728 1979.75937165 -396.43053118 1978.64823267 -399.77416992 1977.53613281 C-400.98717773 1977.13136719 -402.20018555 1976.72660156 -403.44995117 1976.30957031 C-405.63379561 1975.58244657 -407.81857927 1974.8581325 -410.00463867 1974.13769531 C-417.68139413 1971.60243922 -425.2987068 1968.91641784 -432.89916992 1966.16113281 C-433.60428711 1965.90589844 -434.3094043 1965.65066406 -435.03588867 1965.38769531 C-440.80634938 1963.25975969 -446.50251998 1960.93724899 -452.20776367 1958.64160156 C-454.40479825 1957.76046283 -456.60441767 1956.8856602 -458.80932617 1956.02441406 C-463.29403709 1954.27073267 -467.58416984 1952.35315075 -471.86401367 1950.14941406 C-474.02889065 1949.09813983 -476.21752352 1948.21745391 -478.46166992 1947.34863281 C-482.91269609 1945.60542907 -487.25300412 1943.67424222 -491.58666992 1941.66113281 C-492.20421143 1941.3764917 -492.82175293 1941.09185059 -493.45800781 1940.79858398 C-496.52677513 1939.36113681 -499.49509431 1937.84476122 -502.41870117 1936.12988281 C-505.84294107 1934.19293903 -509.28126253 1932.69884102 -512.89916992 1931.16113281 C-515.90786388 1929.67485075 -518.87282382 1928.10963025 -521.83666992 1926.53613281 C-522.66279785 1926.09881836 -523.48892578 1925.66150391 -524.34008789 1925.2109375 C-545.85827051 1913.76922031 -545.85827051 1913.76922031 -554.96557617 1907.48535156 C-556.88909964 1906.16802943 -558.84825488 1904.94030657 -560.83666992 1903.72363281 C-564.88337865 1901.2258647 -568.74065963 1898.48515851 -572.60229492 1895.71191406 C-574.65049482 1894.3290308 -576.66245346 1893.20253979 -578.89916992 1892.16113281 C-578.89916992 1891.50113281 -578.89916992 1890.84113281 -578.89916992 1890.16113281 C-579.97424805 1889.77441406 -579.97424805 1889.77441406 -581.07104492 1889.37988281 C-584.06255793 1888.09072251 -586.49144597 1886.53904554 -589.14916992 1884.66113281 C-590.4562793 1883.74847656 -590.4562793 1883.74847656 -591.78979492 1882.81738281 C-593.89916992 1881.16113281 -593.89916992 1881.16113281 -594.89916992 1879.16113281 C-596.9158682 1878.02762748 -596.9158682 1878.02762748 -598.89916992 1877.16113281 C-598.89916992 1876.50113281 -598.89916992 1875.84113281 -598.89916992 1875.16113281 C-599.98198242 1874.80148437 -599.98198242 1874.80148437 -601.08666992 1874.43457031 C-604.30425713 1872.97771833 -606.33120518 1871.20162465 -608.89916992 1868.78613281 C-611.44791308 1866.40465093 -613.94559105 1864.12541434 -616.71166992 1861.99707031 C-617.43354492 1861.39121094 -618.15541992 1860.78535156 -618.89916992 1860.16113281 C-618.89916992 1859.50113281 -618.89916992 1858.84113281 -618.89916992 1858.16113281 C-619.85823242 1857.75894531 -619.85823242 1857.75894531 -620.83666992 1857.34863281 C-622.89916992 1856.16113281 -622.89916992 1856.16113281 -623.89916992 1853.16113281 C-625.01291992 1852.75894531 -625.01291992 1852.75894531 -626.14916992 1852.34863281 C-629.98775556 1850.69106174 -631.44361309 1848.52875361 -633.89916992 1845.16113281 C-633.89916992 1844.50113281 -633.89916992 1843.84113281 -633.89916992 1843.16113281 C-634.85823242 1842.75894531 -634.85823242 1842.75894531 -635.83666992 1842.34863281 C-637.89916992 1841.16113281 -637.89916992 1841.16113281 -638.89916992 1838.16113281 C-640.22566026 1837.48095225 -641.55986208 1836.81571414 -642.89916992 1836.16113281 C-644.45483398 1834.49707031 -644.45483398 1834.49707031 -645.91479492 1832.53613281 C-646.44331055 1831.82972656 -646.97182617 1831.12332031 -647.51635742 1830.39550781 C-648.05518555 1829.65816406 -648.59401367 1828.92082031 -649.14916992 1828.16113281 C-649.7034668 1827.42378906 -650.25776367 1826.68644531 -650.82885742 1825.92675781 C-654.89916992 1820.43283848 -654.89916992 1820.43283848 -654.89916992 1818.16113281 C-655.55916992 1818.16113281 -656.21916992 1818.16113281 -656.89916992 1818.16113281 C-662.52138307 1810.58459873 -667.43890869 1801.93391027 -671.01245117 1793.19628906 C-674.14794133 1785.14618238 -674.14794133 1785.14618238 -678.89916992 1778.16113281 C-678.99678711 1776.79661773 -679.02519474 1775.42707989 -679.02573176 1774.05907761 C-679.02989473 1772.72068981 -679.02989473 1772.72068981 -679.03414181 1771.35526388 C-679.03210547 1770.36103135 -679.03006913 1769.36679883 -679.02797109 1768.34243804 C-679.0297461 1767.2912368 -679.03152111 1766.24003556 -679.03334991 1765.15697974 C-679.03813905 1761.57989504 -679.03570513 1758.00284982 -679.033391 1754.42576313 C-679.03534166 1751.8461005 -679.03772963 1749.26643817 -679.04051897 1746.68677631 C-679.04591041 1741.03207296 -679.04753382 1735.37737793 -679.04676823 1729.7226722 C-679.04563632 1721.25727751 -679.05020263 1712.79189256 -679.05589907 1704.32650005 C-679.06542789 1689.9022265 -679.07012117 1675.4779549 -679.0722084 1661.05367851 C-679.0743343 1646.42658467 -679.07858784 1631.79949384 -679.08545113 1617.17240143 C-679.08588174 1616.25013513 -679.08631235 1615.32786883 -679.08675602 1614.37765506 C-679.08851429 1610.62168599 -679.09028393 1606.86571692 -679.09206904 1603.10974786 C-679.113688 1557.53353892 -679.1245506 1511.95732937 -679.13354528 1466.38111647 C-679.13647774 1451.60538247 -679.13984741 1436.82964862 -679.14351249 1422.05391479 C-679.14377078 1421.01204172 -679.14402907 1419.97016866 -679.14429519 1418.89672369 C-679.14534137 1414.6819804 -679.14638979 1410.46723711 -679.14744101 1406.25249383 C-679.16540664 1334.1591555 -679.18078724 1262.06581694 -679.18820004 1189.97247668 C-679.18878402 1184.30762147 -679.18938129 1178.64276625 -679.18997766 1172.97791104 C-679.19009578 1171.85415985 -679.1902139 1170.73040867 -679.1903356 1169.57260442 C-679.19153302 1158.18702778 -679.19274177 1146.80145113 -679.19396813 1135.41587449 C-679.19421336 1133.13299596 -679.19445722 1130.85011743 -679.1946997 1128.56723889 C-679.20249139 1055.23128345 -679.22487849 981.895344 -679.25737613 908.55939555 C-679.28071327 855.87774864 -679.30226947 803.19610491 -679.30938244 750.51445293 C-679.30952946 749.43163365 -679.30967648 748.34881436 -679.30982796 747.23318237 C-679.31301238 723.4655864 -679.31506355 699.69799046 -679.3160555 675.9303943 C-679.31647026 666.36787423 -679.31702516 656.80535416 -679.31761742 647.24283409 C-679.31767809 646.19624495 -679.31773875 645.1496558 -679.31780126 644.07135184 C-679.31981937 610.32263493 -679.33407343 576.57393686 -679.35456242 542.82522653 C-679.37511983 508.84338948 -679.38304975 474.86157425 -679.37348466 440.87973161 C-679.37216611 436.1887776 -679.37098809 431.49782357 -679.36989403 426.80686951 C-679.36967418 425.88727202 -679.36945433 424.96767453 -679.36922782 424.02021045 C-679.36610781 409.43161388 -679.37646202 394.84305889 -679.39236958 380.25447196 C-679.40771663 365.92556929 -679.40890843 351.5967244 -679.39482134 337.26781976 C-679.38698285 328.85667918 -679.39020354 320.44571464 -679.4094585 312.03459147 C-679.42250832 305.80554144 -679.41490678 299.57668264 -679.39897115 293.34764292 C-679.39580066 290.83188605 -679.39944979 288.31610983 -679.4104629 285.80037508 C-679.42437962 282.4021178 -679.41393071 279.00479679 -679.39711457 275.6065734 C-679.40703195 274.62429459 -679.41694932 273.64201577 -679.42716722 272.62997093 C-679.36686889 266.89898144 -678.61778013 263.76763856 -674.89916992 259.16113281 C-674.16421504 257.49949568 -673.43127488 255.8363909 -672.74682617 254.15332031 C-669.24108259 245.91401512 -664.7238991 238.3302042 -659.83666992 230.84863281 C-658.79833008 229.24568359 -658.79833008 229.24568359 -657.73901367 227.61035156 C-657.13186523 226.80210937 -656.5247168 225.99386719 -655.89916992 225.16113281 C-655.23916992 225.16113281 -654.57916992 225.16113281 -653.89916992 225.16113281 C-653.79604492 224.37738281 -653.69291992 223.59363281 -653.58666992 222.78613281 C-652.89916992 220.16113281 -652.89916992 220.16113281 -649.89916992 218.16113281 C-649.56916992 217.17113281 -649.23916992 216.18113281 -648.89916992 215.16113281 C-647.26739599 213.46028908 -645.59411893 211.79902884 -643.89916992 210.16113281 C-642.03663475 208.14721597 -640.18359059 206.1266784 -638.33666992 204.09863281 C-629.98978012 195.01739347 -621.63242219 186.1460795 -611.76245117 178.68457031 C-609.7900444 177.28402218 -609.7900444 177.28402218 -608.89916992 175.16113281 C-607.56583659 174.49446615 -606.23250326 173.82779948 -604.89916992 173.16113281 C-604.29008789 172.54238281 -604.29008789 172.54238281 -603.66870117 171.91113281 C-601.12607246 169.39656843 -598.29349474 167.27233522 -595.46166992 165.09863281 C-594.6021875 164.42864258 -594.6021875 164.42864258 -593.7253418 163.74511719 C-590.88508688 161.5585458 -588.1409927 159.68448935 -584.89916992 158.16113281 C-584.12573242 157.35675781 -584.12573242 157.35675781 -583.33666992 156.53613281 C-581.89916992 155.16113281 -581.89916992 155.16113281 -578.89916992 155.16113281 C-578.89916992 154.50113281 -578.89916992 153.84113281 -578.89916992 153.16113281 C-577.21948242 151.87207031 -577.21948242 151.87207031 -575.02416992 150.53613281 C-574.30487305 150.09011719 -573.58557617 149.64410156 -572.84448242 149.18457031 C-570.89916992 148.16113281 -570.89916992 148.16113281 -568.89916992 148.16113281 C-568.89916992 147.50113281 -568.89916992 146.84113281 -568.89916992 146.16113281 C-568.13604492 145.81050781 -567.37291992 145.45988281 -566.58666992 145.09863281 C-562.45229647 143.03631005 -558.63746875 140.48349144 -554.75463867 137.98925781 C-547.55660984 133.38094387 -540.27736692 129.29986041 -532.59838867 125.54394531 C-530.43063716 124.43340402 -528.45693504 123.2960212 -526.46166992 121.91113281 C-523.89916992 120.16113281 -523.89916992 120.16113281 -521.69995117 119.29785156 C-517.49334169 117.59056654 -513.57823651 115.34877701 -509.60229492 113.17089844 C-506.48436262 111.48148818 -503.38348458 109.90057734 -500.11010742 108.53222656 C-496.83069292 107.24792921 -496.83069292 107.24792921 -493.89916992 105.16113281 C-492.95041992 104.85175781 -492.00166992 104.54238281 -491.02416992 104.22363281 C-487.9524852 103.30652028 -487.9524852 103.30652028 -485.64916992 101.78613281 C-482.44185183 99.89089939 -479.17058769 98.61029669 -475.70385742 97.26269531 C-472.76816201 96.10967845 -469.86603828 94.89077448 -466.96166992 93.66113281 C-461.33610615 91.30691742 -455.64164481 89.20946108 -449.89916992 87.16113281 C-441.09810923 83.92494513 -432.33574932 80.56759266 -423.64916992 77.03613281 C-419.96423165 75.5562616 -416.26159846 74.22667979 -412.48510742 73.00097656 C-409.26064051 71.95375544 -406.04990574 70.86731594 -402.83666992 69.78613281 C-392.39083216 66.29314851 -381.87445819 63.0332081 -371.31323242 59.90722656 C-368.53008652 59.04706335 -365.78011474 58.10470565 -363.02416992 57.16113281 C-358.17427445 55.53220721 -353.3207597 54.20085179 -348.34838867 53.00488281 C-344.10032825 51.96571967 -339.8759815 50.8455825 -335.64916992 49.72363281 C-328.90780031 47.93881826 -322.15488762 46.21223466 -315.38525391 44.53808594 C-311.81158323 43.65084216 -308.25642412 42.71972544 -304.71166992 41.72363281 C-292.55635838 38.37678455 -280.30082168 35.32725262 -267.80151367 33.62207031 C-263.76654753 32.98125469 -259.87458664 31.91748412 -255.92651367 30.87988281 C-251.71354872 29.87964339 -247.46792875 29.30505541 -243.18432617 28.69238281 C-239.87478533 28.15718952 -236.65803595 27.44545677 -233.39916992 26.66113281 C-228.04708993 25.37766039 -222.71900832 24.47769604 -217.27416992 23.69238281 C-213.66287068 23.12393756 -210.10292971 22.40670777 -206.52416992 21.66113281 C-200.27267488 20.37877485 -194.03772564 19.4828047 -187.70776367 18.69238281 C-183.78345407 18.14499193 -179.90934219 17.4297016 -176.02416992 16.66113281 C-169.83287139 15.44470261 -163.66265529 14.60833178 -157.39135742 13.93066406 C-152.23012718 13.35823671 -147.13772363 12.5608065 -142.02416992 11.66113281 C-135.14689583 10.46056298 -128.28895964 9.60965743 -121.34034729 8.9468689 C-116.51874283 8.47423463 -111.74473967 7.8621685 -106.95860291 7.11447144 C-94.4649884 5.17980822 -81.94844236 4.16024056 -69.34228516 3.28076172 C-65.83657881 3.03612645 -62.33173925 2.7812054 -58.8269043 2.52441406 C-56.52681702 2.35845347 -54.22668803 2.19306961 -51.92651367 2.02832031 C-50.91443344 1.95539764 -49.90235321 1.88247498 -48.85960388 1.80734253 C-32.57094286 0.67524318 -16.32711816 0.01012559 0 0 Z M0.5667429 113.77605724 C-7.27540416 114.14148424 -15.11910125 114.44805126 -22.96449184 114.73482227 C-44.54154009 115.52659745 -65.93978181 117.17121982 -87.4065094 119.47450256 C-92.6768405 120.03955207 -97.94988234 120.54038202 -103.23046875 121.00097656 C-112.03036875 121.77125287 -120.69481833 122.99203517 -129.40698242 124.44238281 C-133.62191667 125.13613967 -137.84415509 125.66906573 -142.08666992 126.16113281 C-148.13404267 126.88609258 -154.06633547 127.885877 -160.03833008 129.05566406 C-164.33412256 129.89057637 -168.62521042 130.57578395 -172.96166992 131.16113281 C-179.05288208 131.99582893 -185.04290757 133.13857872 -191.06323242 134.37988281 C-194.91795697 135.16495909 -198.78005812 135.88813723 -202.64916992 136.59863281 C-227.29159126 141.19055513 -251.66251513 147.09347389 -275.86157227 153.61572266 C-277.84694915 154.14715472 -279.83515496 154.66605296 -281.82495117 155.18066406 C-301.82264972 160.39294063 -321.51944273 167.00186037 -340.89916992 174.16113281 C-342.16857422 174.6300293 -342.16857422 174.6300293 -343.46362305 175.10839844 C-346.29902058 176.16052708 -349.13080896 177.22186291 -351.96166992 178.28613281 C-352.86699463 178.62306152 -353.77231934 178.95999023 -354.70507812 179.30712891 C-359.05327124 180.95477084 -362.94428508 182.69349809 -366.89916992 185.16113281 C-368.56430461 185.89127713 -370.23065889 186.61914752 -371.90942383 187.31738281 C-375.85149465 188.98901432 -379.7133149 190.83731529 -383.58666992 192.66113281 C-384.4277832 193.05171875 -385.26889648 193.44230469 -386.13549805 193.84472656 C-386.94825195 194.22757812 -387.76100586 194.61042969 -388.59838867 195.00488281 C-389.32888428 195.34712891 -390.05937988 195.689375 -390.81201172 196.04199219 C-393.02590342 197.2290877 -394.9108927 198.63123242 -396.89916992 200.16113281 C-398.57361881 201.08112985 -400.26244404 201.97524572 -401.96166992 202.84863281 C-408.02329374 206.11320415 -413.44583811 209.973474 -418.89916992 214.16113281 C-419.86081055 214.89332031 -420.82245117 215.62550781 -421.81323242 216.37988281 C-425.44043262 219.17100028 -425.44043262 219.17100028 -428.89916992 222.16113281 C-428.89916992 222.82113281 -428.89916992 223.48113281 -428.89916992 224.16113281 C-429.76348633 224.51884766 -429.76348633 224.51884766 -430.64526367 224.88378906 C-433.36149031 226.42314107 -434.93999181 228.22637469 -436.96166992 230.59863281 C-440.76973396 235.03528324 -440.76973396 235.03528324 -442.44995117 236.66894531 C-444.23243189 238.50427587 -445.59889195 240.47504026 -447.02416992 242.59863281 C-447.80147461 243.74138672 -447.80147461 243.74138672 -448.59448242 244.90722656 C-449.82674106 247.03600871 -450.45047542 248.75897566 -450.89916992 251.16113281 C-451.55916992 251.16113281 -452.21916992 251.16113281 -452.89916992 251.16113281 C-459.06594545 265.30066813 -461.0860826 281.10313191 -455.38452148 295.75537109 C-454.00098934 298.95778865 -452.50847241 302.06568874 -450.89916992 305.16113281 C-450.23916992 305.16113281 -449.57916992 305.16113281 -448.89916992 305.16113281 C-448.40416992 307.63613281 -448.40416992 307.63613281 -447.89916992 310.16113281 C-447.23916992 310.16113281 -446.57916992 310.16113281 -445.89916992 310.16113281 C-445.67616211 310.86367188 -445.4531543 311.56621094 -445.22338867 312.29003906 C-443.60639827 315.79590321 -441.33729206 318.32981094 -438.71166992 321.09863281 C-438.22061768 321.62424805 -437.72956543 322.14986328 -437.22363281 322.69140625 C-433.65607079 326.46669085 -430.03009562 329.99701951 -425.89916992 333.16113281 C-425.23916992 333.16113281 -424.57916992 333.16113281 -423.89916992 333.16113281 C-423.89916992 333.82113281 -423.89916992 334.48113281 -423.89916992 335.16113281 C-422.57997929 336.09845247 -421.24918949 337.02172026 -419.87963867 337.88378906 C-416.61934245 339.98658367 -413.50659376 342.30141699 -410.36401367 344.57519531 C-407.93722141 346.13664961 -405.60788142 347.18580354 -402.89916992 348.16113281 C-402.89916992 348.82113281 -402.89916992 349.48113281 -402.89916992 350.16113281 C-401.78670898 350.70640625 -400.67424805 351.25167969 -399.52807617 351.81347656 C-393.6593356 354.74720094 -387.95569956 357.97575949 -382.2331543 361.18261719 C-377.5312849 363.79396864 -372.88116898 366.13645784 -367.89916992 368.16113281 C-366.80217773 368.63292969 -365.70518555 369.10472656 -364.57495117 369.59082031 C-362.21412622 370.60534439 -359.85230018 371.6172267 -357.48901367 372.62597656 C-355.33220817 373.54831015 -353.17774931 374.47620222 -351.02807617 375.41503906 C-343.84345079 378.50289933 -336.51975473 381.08918855 -329.13012695 383.63427734 C-324.75454899 385.14496291 -320.42670505 386.69905168 -316.14916992 388.47363281 C-313.37545827 389.62204676 -310.69522598 390.5297421 -307.77416992 391.22363281 C-305.02371046 391.88906655 -302.73504528 392.56641096 -300.14916992 393.59863281 C-296.93572125 394.85434459 -293.73343156 395.742094 -290.37963867 396.54785156 C-284.19606991 398.06722397 -278.08249762 399.78383649 -271.96166992 401.53613281 C-252.90000026 406.93054109 -233.63475169 411.41072441 -214.14453125 414.96411133 C-208.98846505 415.91884674 -203.88436937 417.05023177 -198.77416992 418.22363281 C-192.30576356 419.70169357 -185.87774768 420.81113811 -179.29370117 421.66894531 C-175.78971057 422.17700379 -172.36246486 422.86433859 -168.89916992 423.59863281 C-161.57528024 425.11392033 -154.22155181 426.13288151 -146.80786133 427.10400391 C-142.10889598 427.72016825 -137.43840466 428.37679303 -132.77416992 429.22363281 C-126.90209542 430.24413579 -121.00298119 430.78302112 -115.07299805 431.34106445 C-108.45222476 431.97472173 -101.86797349 432.7942227 -95.27416992 433.66113281 C-86.0453126 434.85321508 -76.82794176 435.72333399 -67.54582214 436.37443542 C-61.43420618 436.80499382 -55.33197082 437.29121558 -49.23120117 437.85571289 C-27.57259581 439.85740893 -5.94637915 441.0683549 15.78833008 441.84863281 C17.51037681 441.91178153 19.23242269 441.97495326 20.95446777 442.03814697 C90.77358342 444.57343023 161.63559617 444.97695024 231.13223267 436.78993225 C235.99321398 436.23452476 240.84419756 435.91285101 245.72973633 435.66503906 C253.52474624 435.2644931 261.18644233 434.33842414 268.91333008 433.22363281 C277.5495757 432.01961326 286.1660289 430.88404848 294.85083008 430.09863281 C301.83123387 429.4601595 308.68916735 428.48243469 315.59155273 427.26635742 C320.45839421 426.41317801 325.31793003 425.72883991 330.22583008 425.16113281 C336.31624351 424.43536359 342.29308477 423.44163528 348.30786133 422.26660156 C352.43658457 421.46198817 356.56346616 420.76656756 360.72583008 420.16113281 C366.46322292 419.30904477 372.09505707 418.13254277 377.75708008 416.87988281 C380.73989523 416.23871694 383.71973323 415.67942537 386.72583008 415.16113281 C391.53384692 414.31183349 396.22525622 413.15758496 400.95239258 411.94238281 C404.21900692 411.13180854 407.49492077 410.41698214 410.78833008 409.72363281 C424.18854763 406.88472833 437.43296334 403.64382177 450.60180664 399.87255859 C452.44536989 399.34773021 454.29147241 398.83180214 456.13891602 398.32080078 C465.07037162 395.82528479 473.86756126 393.00856103 482.65893555 390.06201172 C484.9649219 389.28978573 487.27297095 388.52398333 489.58129883 387.75878906 C507.47084645 381.80123969 524.99479453 375.11646983 542.10083008 367.16113281 C543.15995605 366.67338379 543.15995605 366.67338379 544.24047852 366.17578125 C554.16661561 361.59797373 563.75871028 356.85024423 573.10083008 351.16113281 C574.34835271 350.4691476 575.59800665 349.78097415 576.85083008 349.09863281 C580.21551705 347.09276173 583.23441634 344.85559966 586.30395508 342.43066406 C588.10083008 341.16113281 588.10083008 341.16113281 591.10083008 340.16113281 C592.45675734 338.85078293 593.78681741 337.51351081 595.10083008 336.16113281 C596.83668337 334.72716705 598.5877669 333.31150871 600.35083008 331.91113281 C611.97441937 322.43319944 620.95174656 311.9526487 627.10083008 298.16113281 C627.48239258 297.37222656 627.86395508 296.58332031 628.25708008 295.77050781 C633.92189741 283.22698372 632.39669928 271.28594454 627.91333008 258.72363281 C622.78482371 245.9696505 614.16741097 234.49195032 604.10083008 225.16113281 C603.44083008 225.16113281 602.78083008 225.16113281 602.10083008 225.16113281 C601.89200195 224.59910156 601.68317383 224.03707031 601.46801758 223.45800781 C599.62502799 220.3617853 597.07454879 218.5206688 594.22583008 216.41113281 C593.64720215 215.97502686 593.06857422 215.5389209 592.47241211 215.08959961 C586.83389148 210.88104957 581.00658413 206.98344581 575.10083008 203.16113281 C573.81499023 202.28521484 573.81499023 202.28521484 572.50317383 201.39160156 C565.7739408 196.89529654 558.72734049 193.50265939 551.38989258 190.14550781 C547.42895734 188.33104084 543.54314407 186.39177839 539.66333008 184.41113281 C534.2312265 181.67656249 528.77575444 179.33168782 523.10083008 177.16113281 C521.32477679 176.44268414 519.54878572 175.72407724 517.77392578 175.00268555 C505.735253 170.12577748 493.54611711 165.88147926 481.10083008 162.16113281 C479.52253886 161.68121035 477.94442613 161.20070066 476.36645508 160.71972656 C467.04379948 157.88699424 457.70897559 155.1672 448.27416992 152.72802734 C445.7095247 152.05906462 443.14945883 151.37370125 440.58911133 150.68847656 C430.85695635 148.09750548 421.16798841 145.60795139 411.25708008 143.80175781 C408.10083008 143.16113281 408.10083008 143.16113281 404.72192383 142.17675781 C400.72318183 141.05521205 396.75639269 140.33164352 392.66333008 139.66113281 C388.42943052 138.96378465 384.24798604 138.23429602 380.09301758 137.15332031 C375.98223285 136.09175787 371.85968104 135.41280732 367.66333008 134.78613281 C365.99010049 134.5286613 364.3169263 134.27082956 362.64379883 134.01269531 C361.75354004 133.87637695 360.86328125 133.74005859 359.94604492 133.59960938 C354.78650041 132.80447106 349.63110706 131.98341821 344.47583008 131.16113281 C343.40719727 130.99129883 342.33856445 130.82146484 341.23754883 130.64648438 C335.19827509 129.68012638 329.17791549 128.64449621 323.16333008 127.53613281 C316.82546165 126.37908741 310.49192507 125.58715303 304.08447266 124.92797852 C298.47958826 124.34335421 292.92235454 123.56505329 287.35083008 122.72363281 C277.33131336 121.23037592 267.27888155 120.20958107 257.19555664 119.2512207 C251.58057817 118.7162258 245.98134544 118.1541249 240.38752747 117.42736816 C228.879424 115.95873197 217.32899661 115.380159 205.74804688 114.78344727 C202.20060233 114.60055443 198.65364506 114.40989302 195.10668945 114.21777344 C189.21397519 113.90177677 183.32045213 113.60700926 177.42608643 113.32357788 C175.3398913 113.2216633 173.25387317 113.1159814 171.16815186 113.00479126 C148.66476662 111.80842797 126.12579794 111.97382219 103.59790039 111.97583008 C98.9761151 111.97591055 94.35443061 111.96908291 89.73266602 111.95532227 C59.96760212 111.86810178 30.30068977 112.38579762 0.5667429 113.77605724 Z M26.10083008 894.16113281 C25.35172363 894.3909082 24.60261719 894.62068359 23.83081055 894.85742188 C14.75916307 897.71087141 6.50564527 901.77922539 -1.89916992 906.16113281 C-3.27259513 906.83103776 -4.64731404 907.49830756 -6.02416992 908.16113281 C-14.76302866 912.58587142 -22.79479865 917.64035087 -30.64916992 923.47363281 C-31.36524414 924.00150391 -32.08131836 924.529375 -32.8190918 925.07324219 C-33.47973633 925.57275391 -34.14038086 926.07226562 -34.82104492 926.58691406 C-35.71194824 927.25847534 -35.71194824 927.25847534 -36.62084961 927.94360352 C-37.04269531 928.34538818 -37.46454102 928.74717285 -37.89916992 929.16113281 C-37.89916992 929.82113281 -37.89916992 930.48113281 -37.89916992 931.16113281 C-38.62104492 931.38800781 -39.34291992 931.61488281 -40.08666992 931.84863281 C-43.47602102 933.43032999 -45.44163872 935.36227783 -47.89916992 938.16113281 C-48.22916992 939.15113281 -48.55916992 940.14113281 -48.89916992 941.16113281 C-50.22786993 941.83698672 -51.56205158 942.5020905 -52.89916992 943.16113281 C-65.03408951 954.80026775 -74.83108162 969.47800216 -82.78198242 984.18457031 C-83.89916992 986.16113281 -83.89916992 986.16113281 -85.96166992 989.09863281 C-88.07655721 992.44151917 -89.43549358 995.73402054 -90.84057617 999.41894531 C-91.91461288 1002.20113633 -93.08803582 1004.9250663 -94.27416992 1007.66113281 C-108.58121995 1042.21816134 -109.33707194 1077.21765745 -108.89916992 1114.16113281 C-108.89191895 1115.17095215 -108.88466797 1116.18077148 -108.87719727 1117.22119141 C-108.65169754 1139.3469186 -104.66608097 1160.80665237 -95.89916992 1181.16113281 C-95.6181543 1181.82113281 -95.33713867 1182.48113281 -95.04760742 1183.16113281 C-89.14880015 1196.83313471 -81.93618457 1210.40639645 -72.83666992 1222.22363281 C-70.64641417 1225.10728611 -68.76248596 1228.05560609 -66.89916992 1231.16113281 C-65.90751441 1232.16940825 -64.90651356 1233.16853078 -63.89916992 1234.16113281 C-62.91309397 1235.30102562 -61.93457867 1236.44748124 -60.96166992 1237.59863281 C-57.63380125 1241.41925457 -54.146737 1245.05847483 -50.58666992 1248.66113281 C-50.05887939 1249.20181396 -49.53108887 1249.74249512 -48.98730469 1250.29956055 C-47.66352448 1251.62675641 -46.28525376 1252.89914449 -44.89916992 1254.16113281 C-44.23916992 1254.16113281 -43.57916992 1254.16113281 -42.89916992 1254.16113281 C-42.89916992 1254.82113281 -42.89916992 1255.48113281 -42.89916992 1256.16113281 C-31.48793835 1267.14449825 -31.48793835 1267.14449825 -17.89916992 1273.16113281 C-17.89916992 1273.82113281 -17.89916992 1274.48113281 -17.89916992 1275.16113281 C6.18766756 1288.98876174 31.41627161 1298.93028238 58.95654297 1303.12597656 C69.25989187 1304.73722876 77.75981588 1307.82401731 86.10083008 1314.16113281 C87.04958008 1314.86238281 87.99833008 1315.56363281 88.97583008 1316.28613281 C91.02696471 1318.09595749 92.46829436 1319.98441852 94.10083008 1322.16113281 C94.76083008 1322.16113281 95.42083008 1322.16113281 96.10083008 1322.16113281 C96.16270508 1322.71800781 96.22458008 1323.27488281 96.28833008 1323.84863281 C97.44846717 1327.15056147 99.55642803 1328.79021272 102.10083008 1331.16113281 C105.68815932 1334.65877882 108.89460568 1338.31366353 112.10083008 1342.16113281 C114.6628013 1344.97470174 114.6628013 1344.97470174 117.10083008 1347.16113281 C117.76083008 1347.16113281 118.42083008 1347.16113281 119.10083008 1347.16113281 C119.32383789 1347.71285156 119.5468457 1348.26457031 119.77661133 1348.83300781 C121.51637104 1351.89170041 123.75847489 1353.96851401 126.28833008 1356.41113281 C129.49408468 1359.54225061 132.6398622 1362.67643188 135.53833008 1366.09863281 C139.07502567 1370.25339171 142.93712828 1374.05370289 146.83886719 1377.86206055 C149.17447982 1380.15793758 151.31989402 1382.44136645 153.33911133 1385.02441406 C153.92047852 1385.72953125 154.5018457 1386.43464844 155.10083008 1387.16113281 C155.76083008 1387.16113281 156.42083008 1387.16113281 157.10083008 1387.16113281 C157.36895508 1387.80050781 157.63708008 1388.43988281 157.91333008 1389.09863281 C158.9875076 1391.49244967 158.9875076 1391.49244967 162.10083008 1392.16113281 C162.79431373 1393.48071708 163.45756831 1394.8163516 164.10083008 1396.16113281 C165.77866715 1398.0423988 165.77866715 1398.0423988 167.66333008 1399.78613281 C171.00360786 1402.96668837 171.00360786 1402.96668837 172.10083008 1405.16113281 C185.75998718 1405.20799518 199.41912438 1405.24327029 213.07834625 1405.26475716 C219.42457469 1405.27508282 225.77074713 1405.28902988 232.11694336 1405.31201172 C266.26597857 1405.54513389 266.26597857 1405.54513389 300.38208008 1404.27832031 C301.65796997 1404.2003421 302.93385986 1404.12236389 304.24841309 1404.04202271 C310.95843155 1403.64122769 310.95843155 1403.64122769 317.10083008 1401.16113281 C315.99145431 1400.05175705 314.88128643 1398.94316924 313.76879883 1397.83691406 C312.5528303 1396.61525013 311.34864978 1395.38181975 310.15161133 1394.14160156 C305.23695385 1389.10341589 300.09830569 1384.57471739 294.58129883 1380.20410156 C292.10083008 1378.16113281 292.10083008 1378.16113281 289.90161133 1375.89941406 C288.27815025 1373.92962916 288.27815025 1373.92962916 286.10083008 1374.16113281 C286.10083008 1373.50113281 286.10083008 1372.84113281 286.10083008 1372.16113281 C284.14862578 1370.45370891 284.14862578 1370.45370891 281.72583008 1368.72363281 C278.82709079 1366.59328949 277.12017344 1365.19014786 275.10083008 1362.16113281 C274.11083008 1361.83113281 273.12083008 1361.50113281 272.10083008 1361.16113281 C270.96328267 1360.05805654 269.83249798 1358.94728929 268.73364258 1357.80566406 C262.60605496 1351.63409854 255.91031888 1346.09981762 249.03442383 1340.79003906 C247.10083008 1339.16113281 247.10083008 1339.16113281 246.10083008 1337.16113281 C245.46145508 1336.85175781 244.82208008 1336.54238281 244.16333008 1336.22363281 C242.10083008 1335.16113281 242.10083008 1335.16113281 240.10083008 1332.16113281 C239.11083008 1331.83113281 238.12083008 1331.50113281 237.10083008 1331.16113281 C236.60583008 1330.48050781 236.11083008 1329.79988281 235.60083008 1329.09863281 C235.10583008 1328.45925781 234.61083008 1327.81988281 234.10083008 1327.16113281 C233.11083008 1327.16113281 232.12083008 1327.16113281 231.10083008 1327.16113281 C230.90102539 1326.61328125 230.7012207 1326.06542969 230.49536133 1325.50097656 C228.53509035 1322.21189444 225.72931147 1320.09665553 222.78833008 1317.72363281 C218.67788201 1314.36730999 214.85529847 1310.92221118 211.10083008 1307.16113281 C209.77515809 1306.47935865 208.4432932 1305.80921846 207.10083008 1305.16113281 C206.44083008 1304.17113281 205.78083008 1303.18113281 205.10083008 1302.16113281 C204.11083008 1301.83113281 203.12083008 1301.50113281 202.10083008 1301.16113281 C200.41085685 1299.51810328 198.74866614 1297.84641969 197.10083008 1296.16113281 C194.7994241 1294.12288137 192.45632581 1292.1364909 190.10083008 1290.16113281 C191.28252219 1284.09853852 196.3078052 1280.67601773 201.10083008 1277.16113281 C203.74712196 1275.58557134 206.40595025 1274.04029137 209.08911133 1272.52832031 C209.75297852 1272.07714844 210.4168457 1271.62597656 211.10083008 1271.16113281 C211.10083008 1270.50113281 211.10083008 1269.84113281 211.10083008 1269.16113281 C211.81110352 1268.93296875 212.52137695 1268.70480469 213.25317383 1268.46972656 C216.70138307 1266.88515853 218.91189315 1264.82965305 221.66333008 1262.22363281 C226.83468671 1257.35352025 226.83468671 1257.35352025 229.44067383 1255.46972656 C229.98852539 1255.03789063 230.53637695 1254.60605469 231.10083008 1254.16113281 C231.10083008 1253.50113281 231.10083008 1252.84113281 231.10083008 1252.16113281 C231.63708008 1251.93425781 232.17333008 1251.70738281 232.72583008 1251.47363281 C238.2559318 1248.41752396 242.33189167 1244.14943365 246.10083008 1239.16113281 C246.10083008 1238.50113281 246.10083008 1237.84113281 246.10083008 1237.16113281 C246.65125977 1236.96519531 247.20168945 1236.76925781 247.76879883 1236.56738281 C251.08239288 1234.56923564 253.1113011 1231.70011496 255.41333008 1228.66113281 C255.89970947 1228.02820312 256.38608887 1227.39527344 256.88720703 1226.74316406 C258.30277001 1224.89050755 259.70456682 1223.02836201 261.10083008 1221.16113281 C261.75825195 1220.28457031 262.41567383 1219.40800781 263.09301758 1218.50488281 C272.7964206 1205.09003992 281.72203078 1189.16203426 286.46801758 1173.21191406 C287.17939404 1170.90652739 288.0798196 1168.71365901 288.97583008 1166.47363281 C307.67632544 1114.59946176 303.80846323 1046.19224407 281.53833008 996.22363281 C280.73568158 994.53142482 279.92352874 992.84368427 279.10083008 991.16113281 C278.7012207 990.32324219 278.30161133 989.48535156 277.88989258 988.62207031 C275.33629468 983.36848991 272.50079171 978.35790443 269.43286133 973.38769531 C268.21457525 971.35126403 267.13024111 969.29801449 266.10083008 967.16113281 C265.44083008 967.16113281 264.78083008 967.16113281 264.10083008 967.16113281 C263.85719727 966.44441406 263.61356445 965.72769531 263.36254883 964.98925781 C261.9364804 961.79274531 260.17725795 959.57641106 257.91333008 956.91113281 C255.02032601 953.4728021 252.2183334 950.01740456 249.53833008 946.41113281 C246.66882701 942.68077882 243.50628837 939.67353042 239.89379883 936.66894531 C238.10083008 935.16113281 238.10083008 935.16113281 235.72583008 932.72363281 C234.23627507 930.93009657 234.23627507 930.93009657 232.10083008 931.16113281 C231.89973633 930.60425781 231.69864258 930.04738281 231.49145508 929.47363281 C229.56010505 926.26194961 226.81758288 924.351353 223.85083008 922.16113281 C223.29008789 921.73574219 222.7293457 921.31035156 222.15161133 920.87207031 C209.89809974 911.64656274 196.50639154 903.49163109 182.10083008 898.16113281 C181.08375977 897.75507812 181.08375977 897.75507812 180.04614258 897.34082031 C173.85813111 894.90156268 167.48274813 893.01845251 161.10083008 891.16113281 C159.39540039 890.64679687 159.39540039 890.64679687 157.65551758 890.12207031 C115.80048752 878.48086238 67.18398145 881.54372612 26.10083008 894.16113281 Z M-341.27416992 889.91113281 C-342.22130859 890.17917725 -343.16844727 890.44722168 -344.14428711 890.72338867 C-350.7022459 892.63716562 -356.83353195 895.01147155 -362.89916992 898.16113281 C-364.75058789 898.97987685 -366.60485061 899.79221336 -368.46166992 900.59863281 C-396.10901597 913.22959855 -420.25446562 934.93156672 -431.59057617 963.51269531 C-443.2124745 995.9152417 -444.49499816 1033.08490608 -429.71557617 1064.69238281 C-423.02079304 1077.47965025 -413.99406974 1088.98118901 -402.89916992 1098.16113281 C-402.1128418 1098.81210938 -401.32651367 1099.46308594 -400.51635742 1100.13378906 C-380.96696713 1116.03681972 -359.33061798 1127.2516851 -336.21166992 1136.97363281 C-323.17751319 1142.533158 -309.29194327 1148.65594309 -297.83666992 1157.03613281 C-295.23335158 1159.35650607 -295.23335158 1159.35650607 -292.89916992 1159.16113281 C-292.89916992 1159.82113281 -292.89916992 1160.48113281 -292.89916992 1161.16113281 C-292.28041992 1161.24363281 -291.66166992 1161.32613281 -291.02416992 1161.41113281 C-288.20093852 1162.40756742 -288.16837698 1163.51460107 -286.89916992 1166.16113281 C-285.42810528 1168.17185432 -283.88722197 1170.11365736 -282.33666992 1172.06347656 C-278.0701672 1178.28932429 -278.05911318 1184.84669935 -278.89916992 1192.16113281 C-281.460402 1199.81421671 -285.24830106 1204.8267398 -292.27416992 1208.72363281 C-316.61875414 1220.15500279 -348.06665469 1214.23601908 -372.47729492 1205.80957031 C-379.44120771 1203.27863285 -386.16916923 1200.24945535 -392.89916992 1197.16113281 C-394.01678711 1196.68546875 -395.1344043 1196.20980469 -396.28588867 1195.71972656 C-400.55803549 1193.87693026 -404.75936952 1191.90696653 -408.96166992 1189.91113281 C-410.09765625 1189.37552734 -410.09765625 1189.37552734 -411.2565918 1188.82910156 C-418.52600588 1185.38348333 -425.71237526 1181.77490124 -432.89916992 1178.16113281 C-434.58745372 1198.28358981 -435.11816513 1218.34584614 -435.14916992 1238.53613281 C-435.15416504 1239.66417328 -435.15916016 1240.79221375 -435.16430664 1241.95443726 C-435.20442556 1252.99646724 -435.13097998 1264.00866091 -434.13354492 1275.01269531 C-434.07281799 1275.78696869 -434.01209106 1276.56124207 -433.94952393 1277.35897827 C-433.58020109 1280.80597518 -433.13294 1282.86964173 -430.94140625 1285.60229492 C-395.48493436 1312.66620084 -312.11301507 1307.80049605 -270.29370117 1302.20410156 C-254.25281848 1299.75073265 -238.89259142 1295.29879074 -223.89916992 1289.16113281 C-222.97233398 1288.81308594 -222.04549805 1288.46503906 -221.09057617 1288.10644531 C-214.69276598 1285.69104739 -208.79397221 1282.61910739 -202.89916992 1279.16113281 C-201.7931543 1278.51273438 -200.68713867 1277.86433594 -199.54760742 1277.19628906 C-190.67297315 1271.82444135 -183.27569042 1265.42604159 -175.89916992 1258.16113281 C-175.05483398 1257.33613281 -174.21049805 1256.51113281 -173.34057617 1255.66113281 C-164.42880558 1246.53547973 -157.87580115 1237.11065132 -152.89135742 1225.39941406 C-152.14422977 1223.71396468 -151.31411583 1222.06494275 -150.44604492 1220.43847656 C-143.18730678 1205.05948339 -142.87976506 1187.84099907 -142.89916992 1171.16113281 C-142.89127441 1170.35015137 -142.88337891 1169.53916992 -142.87524414 1168.70361328 C-142.80604122 1155.13081384 -145.32599094 1138.6657435 -152.89916992 1127.16113281 C-153.57035451 1125.49628042 -154.23696553 1123.82957747 -154.89916992 1122.16113281 C-155.8616208 1120.36961419 -156.86239545 1118.59818973 -157.89916992 1116.84863281 C-158.41479492 1115.965625 -158.93041992 1115.08261719 -159.46166992 1114.17285156 C-159.93604492 1113.50898437 -160.41041992 1112.84511719 -160.89916992 1112.16113281 C-161.55916992 1112.16113281 -162.21916992 1112.16113281 -162.89916992 1112.16113281 C-163.55916992 1110.51113281 -164.21916992 1108.86113281 -164.89916992 1107.16113281 C-165.55916992 1107.16113281 -166.21916992 1107.16113281 -166.89916992 1107.16113281 C-167.06416992 1106.48050781 -167.22916992 1105.79988281 -167.39916992 1105.09863281 C-169.62100238 1100.74754425 -173.18962279 1098.24995891 -176.89916992 1095.16113281 C-178.97588955 1093.14209985 -180.97486382 1091.08085141 -182.96166992 1088.97363281 C-184.86456115 1086.94090926 -184.86456115 1086.94090926 -187.89916992 1086.16113281 C-189.23250326 1084.82779948 -190.56583659 1083.49446615 -191.89916992 1082.16113281 C-195.71593442 1079.15340817 -199.73143197 1076.59486569 -203.98510742 1074.24316406 C-206.14118633 1073.02431946 -208.23207691 1071.71682513 -210.33666992 1070.41113281 C-215.3519011 1067.38522586 -220.53342743 1064.78562956 -225.78564453 1062.2043457 C-230.21961601 1060.02055855 -234.5692336 1057.73236082 -238.89916992 1055.34863281 C-242.78798886 1053.23048786 -246.53193011 1051.4550411 -250.70776367 1050.01660156 C-255.61360251 1048.10148801 -260.25258258 1045.54432204 -264.94018555 1043.15234375 C-266.95585944 1042.13244893 -268.98044415 1041.13263071 -271.00854492 1040.13769531 C-278.51601791 1036.44711735 -285.80304296 1032.60768926 -292.89916992 1028.16113281 C-294.20241211 1027.40316406 -294.20241211 1027.40316406 -295.53198242 1026.62988281 C-298.03772751 1025.07516309 -299.82335001 1023.23695273 -301.89916992 1021.16113281 C-302.55916992 1021.16113281 -303.21916992 1021.16113281 -303.89916992 1021.16113281 C-304.05385742 1020.26394531 -304.05385742 1020.26394531 -304.21166992 1019.34863281 C-304.71771673 1017.12277344 -304.71771673 1017.12277344 -306.27416992 1015.84863281 C-309.77262969 1012.2156169 -311.09398141 1007.7752474 -311.39916992 1002.84863281 C-311.13244943 996.32509423 -308.34229893 990.78326335 -303.92651367 986.04394531 C-300.77003947 983.20016856 -297.76359197 980.95133278 -293.89916992 979.16113281 C-293.89916992 978.50113281 -293.89916992 977.84113281 -293.89916992 977.16113281 C-292.01198242 976.75894531 -292.01198242 976.75894531 -290.08666992 976.34863281 C-287.46130672 975.78021305 -284.90854321 975.16407092 -282.34448242 974.36035156 C-269.38561963 970.30349689 -256.19141841 972.32809932 -243.02416992 974.28613281 C-241.88313812 974.45219528 -241.88313812 974.45219528 -240.71905518 974.62161255 C-217.85003287 977.97601877 -196.00667376 983.69383821 -174.80541992 992.98535156 C-170.90664154 994.56267991 -166.88910649 995.83115396 -162.89916992 997.16113281 C-162.89916992 964.16113281 -162.89916992 931.16113281 -162.89916992 897.16113281 C-178.11340365 892.88991019 -178.11340365 892.88991019 -193.46166992 889.91113281 C-194.44973633 889.75128906 -195.43780273 889.59144531 -196.45581055 889.42675781 C-206.78924653 887.78326899 -216.93737245 886.91929588 -227.39916992 886.59863281 C-228.07447754 886.57778625 -228.74978516 886.5569397 -229.44555664 886.53546143 C-244.92695409 886.07697933 -260.4121121 886.05138988 -275.89916992 886.03613281 C-277.09807861 886.03354462 -278.2969873 886.03095642 -279.53222656 886.02828979 C-310.7399018 884.98238853 -310.7399018 884.98238853 -341.27416992 889.91113281 Z M361.10083008 887.16113281 C361.10083008 1022.13113281 361.10083008 1157.10113281 361.10083008 1296.16113281 C448.22083008 1296.16113281 535.34083008 1296.16113281 625.10083008 1296.16113281 C625.10083008 1266.46113281 625.10083008 1236.76113281 625.10083008 1206.16113281 C578.57083008 1206.16113281 532.04083008 1206.16113281 484.10083008 1206.16113281 C484.10083008 1100.89113281 484.10083008 995.62113281 484.10083008 887.16113281 C443.51083008 887.16113281 402.92083008 887.16113281 361.10083008 887.16113281 Z " fill="#00BBF2" transform="translate(678.899169921875,-0.1611328125)"/>
<path d="M0 0 C6.94850825 5.755681 6.94850825 5.755681 8.34375 9.94140625 C8.941875 10.50730469 9.54 11.07320312 10.15625 11.65625 C13.00124564 14.62825437 14.56325413 17.82415721 16.34375 21.50390625 C16.69332764 22.21554932 17.04290527 22.92719238 17.40307617 23.66040039 C20.12601091 29.29245888 22.40611622 34.99193161 24.34375 40.94140625 C24.56699951 41.56168701 24.79024902 42.18196777 25.02026367 42.82104492 C37.63276567 78.6110931 36.15781387 122.56134474 20.34375 156.94140625 C19.92222656 157.90820312 19.50070312 158.875 19.06640625 159.87109375 C13.180578 172.59399522 3.41739443 184.63569784 -8.65625 191.94140625 C-9.33558594 192.36035156 -10.01492188 192.77929688 -10.71484375 193.2109375 C-26.49532266 202.01926553 -48.14397507 204.18114281 -65.50341797 199.39868164 C-78.00389111 195.42399472 -88.73476645 188.58625334 -97.65625 178.94140625 C-98.39488281 178.15830078 -98.39488281 178.15830078 -99.1484375 177.359375 C-102.31108588 173.87416795 -104.62983509 170.48135437 -106.59765625 166.2109375 C-107.36811192 164.55914878 -108.19677295 162.93413647 -109.05859375 161.328125 C-115.08706714 149.99214068 -118.8465915 139.15281842 -119.28515625 126.3203125 C-119.32184418 125.4146756 -119.3585321 124.5090387 -119.39633179 123.57595825 C-119.74694397 114.11085072 -119.80769585 104.64547665 -119.78662109 95.17480469 C-119.78123889 92.31049343 -119.78662315 89.44633797 -119.79296875 86.58203125 C-119.81239405 51.33964003 -119.81239405 51.33964003 -115.96875 41.44140625 C-115.6996582 40.69987305 -115.43056641 39.95833984 -115.15332031 39.19433594 C-109.51631692 24.12505383 -100.34808765 9.94794491 -87.65625 -0.05859375 C-86.79 -0.82171875 -85.92375 -1.58484375 -85.03125 -2.37109375 C-82.08229185 -4.46640612 -79.02481812 -5.8081922 -75.65625 -7.05859375 C-75.01042969 -7.30480469 -74.36460937 -7.55101562 -73.69921875 -7.8046875 C-49.12924046 -16.60247193 -21.22500563 -16.44937937 0 0 Z " fill="#00BBF2" transform="translate(818.65625,1000.05859375)"/>
</svg>
